<?xml version="1.0" encoding="utf-8"?>
<!-- Generator: Adobe Illustrator 24.0.2, SVG Export Plug-In . SVG Version: 6.00 Build 0)  -->
<svg version="1.1" id="Layer_1" xmlns="http://www.w3.org/2000/svg" xmlns:xlink="http://www.w3.org/1999/xlink" x="0px" y="0px"
	 viewBox="0 0 1309 1040" style="enable-background:new 0 0 1309 1040;" xml:space="preserve">
<style type="text/css">
	.st0{fill:#476B7F;}
	.st1{fill:#2C4D5B;}
	.st2{fill:#F8F7FF;}
	.st3{fill:#C4B8FF;}
	.st4{fill:#DDD6FF;}
	.st5{fill:#40327A;}
	.st6{fill:#FFFFFF;}
	.st7{fill:none;stroke:#C791E0;stroke-width:4.6889;stroke-miterlimit:10;}
	.st8{fill:#FFE4E0;}
	.st9{fill:#FFDC68;}
	.st10{fill:#FFD4CC;}
	.st11{fill:#A796F2;}
	.st12{fill:#7760DB;}
	.st13{fill:#EEEBFF;}
	.st14{fill:none;stroke:#7760DB;stroke-width:2.0245;stroke-miterlimit:10;}
	.st15{fill:#FF95A9;}
	.st16{fill:#0076C6;}
	.st17{fill:#0468A0;}
	.st18{fill:#007CE2;}
</style>
<g>
	<rect x="737.1" y="871.9" class="st0" width="42.2" height="168.1"/>
	<polygon class="st1" points="779.3,1040 779.3,871.9 758.7,871.9 758.3,1040 	"/>
	<rect x="242.1" y="871.9" class="st0" width="42.2" height="168.1"/>
	<polygon class="st1" points="284.3,1040 284.3,871.9 263.7,871.9 263.3,1040 	"/>
	<path class="st2" d="M608.6,749.1c-142.6,28.2-389.3,108.2-510.4-44.4C-67.1,496.6,66.6-11.7,625.4,208.4
		c231,91,366.6,112.8,379.7,71c7.6-24.2-23.7-35.8-24.3-61.4c-1.9-78.6,213.1-15.5,292.7,150.8c65.2,136.3,31.9,326.4-83.7,350
		C968.3,763.9,936.8,684.1,608.6,749.1z"/>
	<g>
		<rect x="9.8" y="690.5" class="st3" width="805.4" height="2.2"/>
	</g>
	<g>
		<rect x="837.3" y="691.5" class="st3" width="310" height="2"/>
	</g>
	<rect x="1017" y="706.7" class="st3" width="150.8" height="2"/>
	<rect x="973.1" y="706.7" class="st3" width="25.5" height="2"/>
	<g>
		<polygon class="st4" points="918.2,611.2 712.3,630.7 719.4,596.3 915.8,596.3 		"/>
		<rect x="670.3" y="623.9" transform="matrix(0.1728 -0.985 0.985 0.1728 -25.32 1219.665)" class="st5" width="86.3" height="2"/>
		
			<rect x="919.6" y="581.7" transform="matrix(0.985 -0.1724 0.1724 0.985 -93.9523 168.0785)" class="st5" width="2" height="86.3"/>
	</g>
	<path class="st6" d="M1028,596.2H606.1c-8.3,0-15-6.7-15-15v-44.9H1043v44.9C1043,589.5,1036.3,596.2,1028,596.2z"/>
	<path class="st5" d="M1028,597.2H606.1c-8.8,0-16-7.2-16-16V294.2c0-8.8,7.2-16,16-16H1028c8.8,0,16,7.2,16,16v287.1
		C1044,590,1036.8,597.2,1028,597.2z M606.1,280.2c-7.7,0-14,6.3-14,14v287.1c0,7.7,6.3,14,14,14H1028c7.7,0,14-6.3,14-14V294.2
		c0-7.7-6.3-14-14-14H606.1z"/>
	<g>
		<line class="st7" x1="130.3" y1="0" x2="130.3" y2="316.5"/>
		<circle class="st8" cx="128.5" cy="437.3" r="26.4"/>
		<path class="st9" d="M258,442.6c-0.6-70-57.6-126.6-127.8-126.6S3.1,372.5,2.5,442.6H258z"/>
	</g>
	<path class="st10" d="M101.7,694.8L101.7,694.8c-26.6,0-48.2-21.6-48.2-48.2v-28.9h96.4v28.9C149.9,673.2,128.3,694.8,101.7,694.8z
		"/>
	<path class="st8" d="M149.9,617.6v28.9c0,26.6-21.6,48.2-48.2,48.2c-5.7,0-11.1-1-16.2-2.8c7.7-6.2,21.8-19.7,14.1-29.6
		c-6.8-8.8-18.2-3.8-28.2-19.5c-9-14,6.8-25.3,6.8-25.3H149.9z"/>
	<rect x="65.6" y="626.3" class="st6" width="84" height="2"/>
	<rect x="131.9" y="616.6" class="st5" width="17.9" height="2"/>
	<path class="st5" d="M101.7,695.8c-27.1,0-49.2-22.1-49.2-49.2h2c0,26,21.2,47.2,47.2,47.2c8.3,0,16.4-2.2,23.5-6.3l1,1.7
		C118.8,693.5,110.3,695.8,101.7,695.8z"/>
	<polygon class="st5" points="54.5,638.1 52.5,638.1 52.5,616.6 112.4,616.6 112.4,618.6 54.5,618.6 	"/>
	<g>
		<path class="st3" d="M117.1,617.6H79.6c-7-6.2-12.9-12.4-17.8-18.7c-44.9-56.6-12.2-112.2-12.2-112.2s19.6,25.9,23.9,42.8
			c0.4,1.7,0.8,3.4,1.1,5c3.4,17.8-1.1,28.1,4.3,45.8c5.1,16.8,14.5,26.1,22.7,31.2C110,616.8,117.1,617.6,117.1,617.6z"/>
		<path class="st11" d="M117.1,618.6H79.3l-0.3-0.3c-6.8-6-12.8-12.3-17.9-18.8c-16.7-21-24.7-44.2-23.9-68.9l2,0.1
			c-0.8,24.3,7.1,47,23.4,67.6c5,6.3,10.8,12.4,17.4,18.3h29.6c-2.5-0.9-5.4-2.3-8.5-4.2c-7.6-4.7-17.8-14.1-23.1-31.8
			c-3-10-3-17.5-2.9-25.5c0.1-6.2,0.1-12.6-1.4-20.4c-0.3-1.5-0.6-3.1-1.1-4.9c-1.7-6.7-6.2-16-13.1-26.8l1.7-1.1
			c7,11.2,11.5,20.4,13.3,27.4c0.5,1.8,0.8,3.5,1.1,5c1.5,8,1.5,14.5,1.4,20.7c-0.1,7.8-0.1,15.2,2.8,24.9
			c5.2,17.1,15,26.1,22.3,30.6c8.1,5,15.1,5.9,15.1,5.9L117.1,618.6z"/>
		<path class="st11" d="M40.5,517.5l-2-0.3c3.1-18.5,10-30.4,10.3-30.9l0.8-1.3l0.9,1.2c0,0,3.4,4.5,7.5,10.7l-1.7,1.1
			c-2.8-4.3-5.3-7.6-6.5-9.4C47.9,492.3,42.9,502.9,40.5,517.5z"/>
		<path class="st11" d="M101.6,611.6l-0.4,6.1H79.6c-7-6.2-12.9-12.4-17.8-18.7c-2.4-16.4-3.8-45.7,12.8-64.4
			c3.4,17.8-1.1,28.1,4.3,45.8C84,597.2,93.4,606.5,101.6,611.6z"/>
		<path class="st4" d="M83.8,617.6c0,0-32.8-40.7-3.4-83.7c11-16.2,24.8-25.8,26.1-47.1c1.9-30.9-14.6-36.6-14.6-36.6
			s59.9,12.2,37.8,84.5c-13.3,43.5-16.4,57.2-4.1,83H83.8z"/>
		<path class="st3" d="M127.3,618.6h-44l-0.3-0.4c-0.3-0.4-8.4-10.5-12.9-26.1c-4.2-14.4-6-36.3,9.4-58.9c2.7-3.9,5.5-7.4,7.9-10.4
			l1.6,1.3c-2.4,3-5.2,6.4-7.8,10.3c-27.1,39.8,0,78,3.1,82.2h39.8c-11.8-25.5-8.4-39.5,4.7-82.3c8.5-27.8,5.9-49.8-7.8-65.5
			l1.5-1.3c14.1,16.2,16.9,38.9,8.2,67.4c-13.1,43.1-16.4,56.6-4.1,82.3L127.3,618.6z"/>
		<path class="st3" d="M105.2,474.5c-2.4-19.3-13.5-23.3-13.6-23.4l0.5-1.9c0.3,0.1,7.1,1.5,15.3,6.1l-1,1.7c-3.1-1.8-6.1-3-8.5-4
			c3.6,3.5,7.8,9.9,9.2,21.2L105.2,474.5z"/>
		<path class="st3" d="M98.7,511.7l-1.7-1.1c1.4-2,2.5-3.9,3.5-5.8l1.8,0.9C101.3,507.7,100.1,509.6,98.7,511.7z"/>
		<path class="st11" d="M94.1,617.6c0,0-17-32.5,7.1-54.6c9.5-8.7,34.7-18.2,47.1-37.8c10.1-16,5.6-36.6,5.6-36.6s35.7,27.3,7.9,67
			c-23,32.8-51.4,23.2-55.9,62H94.1z"/>
		<path class="st12" d="M106.8,618.6H93.5l-0.3-0.5c-0.2-0.3-17.1-33.4,7.3-55.8c3.2-2.9,8-5.9,13.6-9.3
			c9.3-5.7,20.9-12.8,29.2-22.6l1.5,1.3c-8.5,10.1-20.2,17.3-29.7,23.1c-5.5,3.4-10.2,6.2-13.3,9c-21.6,19.8-9.2,48.6-7.2,52.9H105
			c2.8-22.2,13.8-28.7,26.5-36.1c9.3-5.5,19.9-11.8,29.5-25.4c11.3-16.1,13.5-32.1,6.5-47.3c-3.7-8-9.1-13.8-12.1-16.5
			c0.9,6.3,1.9,21.7-6.2,34.6l-1.7-1.1c9.8-15.5,5.5-35.7,5.5-35.9l-0.6-2.7l2.2,1.7c0.4,0.3,36.2,28.3,8.1,68.4
			c-9.8,14-20.6,20.4-30.1,26c-12.9,7.6-23.1,13.6-25.6,35.5L106.8,618.6z"/>
		<path class="st3" d="M178.5,558.6c-13.4,5-22.5,12-28.6,19.5c-14.6,17.6-12.3,37.7-12.1,39.5c0,0.1,0,0.1,0,0.1H94.1
			C122.4,547.8,173.7,558.2,178.5,558.6z"/>
		<path class="st4" d="M137.8,617.5l-31.9,0.1c0,0,10.8-33.7,44-39.6C135.3,595.7,137.6,615.7,137.8,617.5z"/>
		<path class="st3" d="M142.1,617.6c0,0,31.3-1,45.4-21.6c14.1-20.6,0-52.9,0-52.9s2.5,26.9-24,37.3c-25.3,9.9-39.6,15.2-53.6,37.3
			H142.1z"/>
		<path class="st11" d="M142.1,618.6l-0.1-2c0.3,0,30.9-1.3,44.6-21.2l1.6,1.1C174.1,617.4,143.4,618.6,142.1,618.6z"/>
	</g>
	<g>
		<path class="st4" d="M709.7,73.9l-1.9-0.7c5.9-15.5,15.6-29.4,28.1-40.3c13.4-11.7,29.8-19.7,47.3-23l0.4,2
			c-17.2,3.3-33.2,11.1-46.3,22.5C724.9,45.1,715.4,58.7,709.7,73.9z"/>
		<path class="st11" d="M784.3,208c-8.1-1.4-16.1-3.9-23.6-7.3l0.8-1.8c7.4,3.3,15.2,5.7,23.1,7.2L784.3,208z"/>
		<path class="st11" d="M802,209.6c-1.5,0-3,0-4.5-0.1l0.1-2c1.4,0.1,2.9,0.1,4.4,0.1c23.6,0,46.4-8.5,64.3-23.8
			c17.7-15.2,29.4-36.1,33.1-58.9l2,0.3c-3.8,23.3-15.8,44.7-33.8,60.1C849.3,200.9,826.1,209.6,802,209.6z"/>
		<path class="st11" d="M802,194.6c-47.3,0-85.7-38.5-85.7-85.7c0-4.2,0.3-8.4,0.9-12.5c3-20.2,13.1-38.7,28.5-52.1
			c15.6-13.6,35.6-21.1,56.3-21.1c47.3,0,85.7,38.5,85.7,85.7c0,4.6-0.4,9.3-1.1,13.9c-3.2,19.8-13.4,38-28.8,51.2
			C842.3,187.2,822.5,194.6,802,194.6z M802,25.1c-20.2,0-39.8,7.3-55,20.6c-15.1,13.1-25,31.2-27.9,50.9c-0.6,4-0.9,8.2-0.9,12.2
			c0,46.2,37.6,83.7,83.7,83.7c20,0,39.4-7.2,54.5-20.2c15-12.9,25-30.6,28.1-50c0.7-4.5,1.1-9,1.1-13.6
			C885.7,62.7,848.2,25.1,802,25.1z"/>
		<path class="st13" d="M872.6,108.8c0,3.9-0.3,7.7-0.9,11.4c-5.4,33.6-34.6,59.2-69.7,59.2c-39,0-70.6-31.6-70.6-70.6
			c0-3.5,0.3-7,0.8-10.3c5-34.1,34.4-60.3,69.9-60.3C841,38.2,872.6,69.8,872.6,108.8z"/>
		<path class="st2" d="M872.6,108.8c0,3.9-0.3,7.7-0.9,11.4L732.1,98.5c5-34.1,34.4-60.3,69.9-60.3C841,38.2,872.6,69.8,872.6,108.8
			z"/>
		<polygon class="st12" points="769.6,124.9 768.9,123 802,110.9 821.9,68 823.7,68.8 803.4,112.4 		"/>
	</g>
	<g>
		<path class="st11" d="M965.4,689.9c0,15.3-35.9,14.5-61.6,14.5s-34.4-0.9-31.4-16c3.2-16.5,32-33.2,57.7-33.2
			S965.4,674.6,965.4,689.9z"/>
		<path class="st14" d="M957.6,667c2.9,3.6,5,7.7,6.2,11.9"/>
		<path class="st14" d="M926,655.3c1.4-0.1,2.8-0.1,4.1-0.1c11.1,0,19.2,3.7,24.9,9.1"/>
		<path class="st15" d="M947.7,700.6c0-18.2-21-32.9-46.8-32.9c-25.8,0-46.8,14.7-46.8,32.9c0,0.8,0.1,1.6,0.1,2.5
			c-0.6,2.5-0.9,5.2-0.9,7.9c0,20.3,16.5,36.8,36.8,36.8c13.3,0,25-7.1,31.5-17.7C937.1,724.7,947.7,713.5,947.7,700.6z"/>
	</g>
	<g>
		<polygon class="st15" points="564.4,527.3 457.5,527.3 461.1,369.1 560.8,369.1 		"/>
		<g>
			<path class="st15" d="M612.5,362.9H417.1c-10.4,0-18.8-8.4-18.8-18.8v0c0-10.4,8.4-18.8,18.8-18.8h195.5
				c10.4,0,18.8,8.4,18.8,18.8v0C631.4,354.5,622.9,362.9,612.5,362.9z"/>
			<path class="st5" d="M584.8,305.6l-13.2-0.1l0.7-88.9l13.2,0.1c24.5,0.2,44.3,20.2,44.1,44.8l0,0
				C629.4,286,609.4,305.8,584.8,305.6z"/>
			<path class="st5" d="M458.7,308.6l13.2-0.1l-0.7-88.9l-13.2,0.1c-24.5,0.2-44.3,20.2-44.1,44.8l0,0
				C414.1,289,434.1,308.8,458.7,308.6z"/>
			<path class="st5" d="M544.9,307.4l-35.7-0.3l0.9-114.4l32,0.2c21.8,0.2,39.4,18,39.2,39.8l-0.3,39.1
				C580.7,291.7,564.6,307.6,544.9,307.4z"/>
			<path class="st5" d="M571.4,272.3l-75-0.6c-30.6-0.2-55.2-25.3-55-55.8c0.1-14.5,12-26.2,26.5-26.1c14.5,0.1,26.2,12,26.1,26.5
				c0,1.5,1.2,2.8,2.7,2.8l75,0.6L571.4,272.3z"/>
			<path class="st5" d="M543.6,245.7l-37.3-0.3c-14.5-0.1-26.2-12-26.1-26.5c0.1-14.5,12-26.2,26.5-26.1l37.3,0.3
				c14.5,0.1,26.2,12,26.1,26.5C570,234.1,558.2,245.8,543.6,245.7z"/>
			<path class="st5" d="M559.8,456.7h-85.1c-30.3,0-54.9-24.6-54.9-54.9v-87.9c0-42.6,34.5-77.2,77.2-77.2h40.6
				c42.6,0,77.2,34.5,77.2,77.2v87.9C614.6,432.1,590.1,456.7,559.8,456.7z"/>
		</g>
	</g>
	<path class="st15" d="M501,703.4L501,703.4l-23.7,2.4l0,0l-270.5,28.1c-0.2,0-0.5,0-0.7,0.1c-0.2,0-0.5,0.1-0.7,0.1l-1.3,0.1l0,0
		c-28,4-48.1,29.5-45.1,57.9c3,29,29.1,50.2,58.2,47.2c2.8-0.3,5.5-0.8,8.1-1.5l0,0.1L508,751.3c6.9-1.5,12.6-5.9,16-11.7
		c2.4-4.3,3.6-9.3,3-14.5C525.7,712,514.1,702.4,501,703.4z"/>
	<g>
		<path class="st15" d="M757.1,817.6c-0.1-0.1-0.2-0.2-0.3-0.3l-172.7-177l119.5-95.9L840.2,753l0,0c14.4,23.6,8.1,54.8-14.9,70.9
			c-14.5,10.2-32.4,12-48,6.5c-7-2.5-13.5-6.4-19.1-11.7l0,0L757.1,817.6z"/>
		<path class="st13" d="M586.2,532.6c14.9-14.5,34.5-22.3,55.2-22.1c20.8,0.3,40.2,8.6,54.7,23.4c6.4,6.6,11.6,14.1,15.2,22.3
			l93.3,142.5l-91.8,73.6L593.9,650.4c-3.2-2.4-6.2-5-9-7.9C554.9,611.8,555.5,562.5,586.2,532.6z"/>
	</g>
	<g>
		<path class="st15" d="M249.1,821.8c0.1-0.1,0.2-0.2,0.3-0.3L422,644.3l-119.6-95.8L166,757.2l0,0c-14.4,23.6-8.1,54.8,14.9,70.9
			c14.5,10.2,32.4,12,48,6.5c7-2.5,13.5-6.4,19.1-11.7l0,0L249.1,821.8z"/>
		<path class="st13" d="M419.8,536.6c-14.9-14.5-34.5-22.3-55.2-22c-20.8,0.3-40.2,8.6-54.6,23.5c-6.4,6.6-11.5,14.1-15.2,22.3
			l-93.1,142.6l91.9,73.5l118.8-122c3.2-2.4,6.2-5,9-7.9C451.1,615.8,450.5,566.5,419.8,536.6z"/>
	</g>
	<path class="st13" d="M692.4,575.8L679.6,1040h-343l-30.3-456.1c-2.6-37.3,26.5-69.1,63.8-69.9l255.5-5.4
		C663,507.8,693.4,538.4,692.4,575.8z"/>
	<path class="st16" d="M305.5,884.3H221c-14.8,0-26.8-12-26.8-26.8l0,0c0-14.8,12-26.8,26.8-26.8h84.5c14.8,0,26.8,12,26.8,26.8l0,0
		C332.3,872.3,320.3,884.3,305.5,884.3z"/>
	<path class="st17" d="M303.6,849.2H222c-5.1,0-9.3-4.1-9.3-9.3l0,0c0-5.1,4.1-9.3,9.3-9.3h81.6c5.1,0,9.3,4.1,9.3,9.3l0,0
		C312.8,845,308.7,849.2,303.6,849.2z"/>
	<path class="st16" d="M802.3,884.3h-84.5c-14.8,0-26.8-12-26.8-26.8l0,0c0-14.8,12-26.8,26.8-26.8h84.5c14.8,0,26.8,12,26.8,26.8
		l0,0C829.1,872.3,817.1,884.3,802.3,884.3z"/>
	<path class="st17" d="M800.3,849.2h-81.6c-5.1,0-9.3-4.1-9.3-9.3l0,0c0-5.1,4.1-9.3,9.3-9.3h81.6c5.1,0,9.3,4.1,9.3,9.3l0,0
		C809.6,845,805.5,849.2,800.3,849.2z"/>
	<g>
		<path class="st18" d="M284.5,629.3l52,410.7h102.2h143.1h102.2l52-410.7c3.2-25.1-22.3-46.8-54.9-46.8H339.5
			C306.9,582.6,281.4,604.3,284.5,629.3z"/>
		<path class="st16" d="M509,582.6V1040h72.8h102.2l52-410.7c3.2-25.1-22.3-46.8-54.9-46.8H509z"/>
	</g>
</g>
</svg>
