<?xml version="1.0" encoding="utf-8"?>
<!-- Generator: Adobe Illustrator 24.0.2, SVG Export Plug-In . SVG Version: 6.00 Build 0)  -->
<svg version="1.1" id="Layer_1" xmlns="http://www.w3.org/2000/svg" xmlns:xlink="http://www.w3.org/1999/xlink" x="0px" y="0px"
	 viewBox="0 0 1309 686" style="enable-background:new 0 0 1309 686;" xml:space="preserve">
<style type="text/css">
	.st0{fill:#DDD6FF;}
	.st1{fill:#603913;}
	.st2{fill:#E2EBFC;}
	.st3{fill:#40327A;}
	.st4{fill:#FFFFFF;}
	.st5{fill:#AD613B;}
	.st6{fill:#636363;}
	.st7{fill:none;stroke:#000000;stroke-width:0.8627;stroke-miterlimit:10;}
	.st8{fill:none;stroke:#000000;stroke-width:1.9411;stroke-linecap:round;stroke-linejoin:round;stroke-miterlimit:10;}
	.st9{fill:none;stroke:#000000;stroke-width:1.0784;stroke-linecap:round;stroke-miterlimit:10;}
	.st10{fill:#BE616A;}
	.st11{fill:#FF95A9;}
	.st12{fill:none;stroke:#40327A;stroke-width:2.7379;stroke-miterlimit:10;}
	.st13{fill:#9BB7D4;}
	.st14{fill:#1D85C4;}
	.st15{fill:none;}
	.st16{fill:#09CCD1;}
	.st17{fill:#8B77E8;}
	.st18{fill:#186DA1;}
	.st19{fill:#624AC9;}
	.st20{fill:#DEDAF1;}
	.st21{fill:#55616D;}
	.st22{fill:#7760DB;}
	.st23{fill:#436BA9;}
	.st24{fill:#C7C3E0;}
	.st25{fill:none;stroke:#40327A;stroke-width:3.3129;stroke-miterlimit:10;}
	.st26{fill:#37AAF0;}
	.st27{fill:#587177;}
	.st28{fill:#FFC7BD;}
	.st29{fill:#AEADBC;}
	.st30{fill:#C4C4C4;}
	.st31{fill:#D6D6D6;}
	.st32{fill:#E0E0E0;}
	.st33{fill:#AEB9BA;}
	.st34{fill:#CBD9D8;}
	.st35{fill:#9DD0EA;}
	.st36{fill:#DF9EE8;}
</style>
<g>
	<g>
		<ellipse class="st0" cx="659.8" cy="669" rx="115.3" ry="10.2"/>
	</g>
	<g>
		<g>
			<path class="st1" d="M741.6,454.1l6.4-131.1h-42.3l0,131.1h0l0,197.1h26.1l9.6-195.1C741.5,455.4,741.6,454.8,741.6,454.1
				L741.6,454.1z"/>
			<circle class="st2" cx="726.9" cy="322.9" r="21.1"/>
			
				<ellipse transform="matrix(0.7071 -0.7071 0.7071 0.7071 -249.8942 699.0095)" class="st1" cx="718.8" cy="651.2" rx="13.1" ry="13.1"/>
			<path class="st3" d="M745.1,666.6h-39.3v-15.5h26.1l15,8.2c1.2,0.7,2,2,2,3.4l0,0C748.9,664.9,747.2,666.6,745.1,666.6z"/>
			<g>
				<rect x="704.2" y="598.6" class="st3" width="3.1" height="28.8"/>
			</g>
			<g>
				<rect x="704.2" y="505.6" class="st3" width="3.1" height="82.4"/>
			</g>
		</g>
		<g>
			<polygon class="st1" points="640.2,311 607.8,648.8 633.7,651.9 682.1,316.1 			"/>
			
				<ellipse transform="matrix(0.6028 -0.7979 0.7979 0.6028 -272.0895 753.4761)" class="st1" cx="620.8" cy="650" rx="13.1" ry="13.1"/>
			<g>
				<path class="st4" d="M637.3,341l-9.2,96.1L637.3,341z"/>
			</g>
			<g>
				<path class="st4" d="M627.5,443.1l-1,10.8L627.5,443.1z"/>
			</g>
			<g>
				<path class="st4" d="M610.6,619l-1.1,11.8L610.6,619z"/>
				
					<rect x="604.2" y="623.4" transform="matrix(9.512015e-02 -0.9955 0.9955 9.512015e-02 -70.0572 1172.7902)" class="st3" width="11.8" height="3.1"/>
			</g>
			<g>
				<path class="st4" d="M613.7,587.2l-2.5,25.7L613.7,587.2z"/>
				
					<rect x="599.6" y="598.5" transform="matrix(9.510862e-02 -0.9955 0.9955 9.510862e-02 -43.1434 1152.6748)" class="st3" width="25.8" height="3.1"/>
			</g>
		</g>
		<path class="st3" d="M593.8,664.8l39.2,1.7l0.7-15.5l-26.1-1.1l-15.3,7.5c-1.3,0.6-2.1,1.9-2.2,3.3l0,0
			C590,662.9,591.7,664.7,593.8,664.8z"/>
		
			<ellipse transform="matrix(0.4117 -0.9113 0.9113 0.4117 242.0374 685.2517)" class="st2" cx="651.7" cy="155.2" rx="31" ry="31"/>
		<ellipse transform="matrix(0.4117 -0.9113 0.9113 0.4117 288.387 757.0466)" class="st2" cx="730.5" cy="155.2" rx="31" ry="31"/>
		<circle class="st2" cx="659.4" cy="318.9" r="21.1"/>
		<path class="st2" d="M628,147.2l-15.9,279.1l140.1,8.7l3.8-287.9c0.6-12.4-9.3-22.7-21.7-22.7l-84.7,0.1
			C637.2,124.5,627.4,134.9,628,147.2z"/>
		<path class="st2" d="M749.1,301.8l-1,21.1l-0.1,1c-0.6,11.3-9.8,20.1-21.1,20.1h-68.5c-11.3,0-20.5-8.8-21.1-20.1l-0.1-1l-1-21.1
			H749.1z"/>
		<polygon class="st4" points="663.3,124.5 693,210.4 721.6,124.4 		"/>
		<g>
			<polygon class="st5" points="710.2,124.4 692.3,147.8 671.8,124.3 671.4,62.9 709.8,61.3 			"/>
			<g>
				<path class="st6" d="M710.2,74.1l-36.1,1.3c-9.5,0.4-17.6-7.1-17.9-16.6l-0.6-15.1c-0.4-9.5,7.1-17.6,16.6-17.9l36.1-1.3
					c9.5-0.4,17.6,7.1,17.9,16.6l0.6,15.1C727.1,65.7,719.7,73.7,710.2,74.1z"/>
				<path class="st5" d="M705.4,112.8l-22.4,0.8c-11,0.4-20.3-8.2-20.7-19.2l-2.2-58.1c-0.6-16.3,11.8-25.1,28.2-25.7l3.2-0.1
					c16.3-0.6,30.4,7.2,31,23.6l2.2,58.1C725,103.1,716.4,112.4,705.4,112.8z"/>
				<path class="st5" d="M709.9,78l-34.1,1.3c-6.7,0.2-12.3-5-12.6-11.7L662,34.7c-0.6-15.5,11.2-23.6,26.7-24.2l2.1-0.1
					c15.5-0.6,28.9,6.6,29.5,22.1l1.2,32.8C721.8,72.1,716.6,77.7,709.9,78z"/>
				<circle class="st5" cx="722.9" cy="65.3" r="9.4"/>
				<circle class="st5" cx="661.2" cy="67.6" r="9.4"/>
				<path class="st4" d="M683.8,84.1c0,4.7,3.8,8.5,8.5,8.6c4.7,0,8.5-3.8,8.6-8.5L683.8,84.1z"/>
				<g>
					<g>
						<g>
							<path class="st7" d="M661.5,53.5l0.2,12.3c0.1,5.5,4.7,9.9,10.2,9.9l4.5-0.1c5.5-0.1,9.9-4.7,9.9-10.2L686,53"/>
							<path class="st8" d="M659.2,54.6c0,0,4.9-2.9,14.5-3.1c9.6-0.2,14,2.6,14,2.6"/>
						</g>
						<g>
							<path class="st7" d="M721.5,52.4l0.2,12.3c0.1,5.5-4.3,10.1-9.9,10.2l-4.5,0.1c-5.5,0.1-10.1-4.3-10.2-9.9L697,52.9"/>
							<path class="st8" d="M723.9,53.5c0,0-5-2.8-14.6-2.6c-9.6,0.2-13.9,3.1-13.9,3.1"/>
						</g>
					</g>
					<path class="st9" d="M686.5,57.3c0,0,5-3.6,10.1-0.2"/>
				</g>
			</g>
		</g>
		<polygon class="st10" points="689.7,149.8 695.6,149.8 699.6,190.6 693,210.4 686.1,190.6 		"/>
		<g>
			
				<ellipse transform="matrix(0.9732 -0.2301 0.2301 0.9732 -14.8845 175.2466)" class="st2" cx="743.8" cy="151.4" rx="26.5" ry="26.5"/>
			
				<ellipse transform="matrix(0.9772 -0.2123 0.2123 0.9772 -15.193 161.3749)" class="st2" cx="743.8" cy="151.4" rx="26.5" ry="26.5"/>
			<polygon class="st2" points="666.5,162.7 628.6,240.7 594.9,228.1 617.1,144.3 			"/>
			
				<ellipse transform="matrix(0.2301 -0.9732 0.9732 0.2301 347.7583 741.7651)" class="st2" cx="642.7" cy="151.1" rx="26.5" ry="26.5"/>
			
				<ellipse transform="matrix(0.2123 -0.9772 0.9772 0.2123 358.6043 747.0576)" class="st2" cx="642.7" cy="151.1" rx="26.5" ry="26.5"/>
			<g>
				<path class="st2" d="M630.6,229.9c2.1,9.7-4.1,19.4-13.8,21.5c-9.7,2.1-19.4-4.1-21.5-13.8c-2.1-9.7,4.1-19.4,13.8-21.5
					C618.8,214,628.4,220.2,630.6,229.9z"/>
				<g>
					<polygon class="st2" points="715.7,209.1 710.8,194 609.1,216.2 620.1,250.4 703.5,214.4 710.8,211.2 					"/>
					<polygon class="st2" points="715.7,209.1 710.8,194 696.1,197.2 703.5,214.4 710.8,211.2 					"/>
					<polygon class="st2" points="715.7,209.1 710.9,194 704,195.5 710.8,211.2 					"/>
				</g>
			</g>
			<g>
				<path class="st4" d="M644.6,207.6l12-24.8L644.6,207.6z"/>
				
					<rect x="636.9" y="193.9" transform="matrix(0.4375 -0.8992 0.8992 0.4375 190.424 694.9099)" class="st3" width="27.5" height="2.6"/>
			</g>
			<g>
				<path class="st4" d="M638.1,221.1l3.5-7.2L638.1,221.1z"/>
				
					<rect x="635.8" y="216.2" transform="matrix(0.4375 -0.8992 0.8992 0.4375 164.3437 697.6919)" class="st3" width="8" height="2.6"/>
			</g>
			<polygon class="st2" points="720,163 757.9,241 791.6,228.5 769.4,144.7 			"/>
			<g>
				<path class="st2" d="M755.9,230.3c-2.1,9.7,4.1,19.4,13.8,21.5c9.7,2.1,19.4-4.1,21.5-13.8c2.1-9.7-4.1-19.4-13.8-21.5
					C767.7,214.4,758.1,220.6,755.9,230.3z"/>
				<g>
					<path class="st5" d="M645.5,204.4c0.1-5.8,4.8-10.5,10.7-10.5c5.8,0.1,10.5,4.8,10.5,10.7c-0.1,5.8-4.8,10.5-10.7,10.5
						C650.1,215.1,645.4,210.3,645.5,204.4z"/>
					<path class="st11" d="M666.6,202c0,4.4,3.5,8,7.9,8c4.4,0,8-3.5,8-7.9c0-4.4-3.5-8-7.9-8C670.3,194.1,666.7,197.6,666.6,202z"
						/>
					<polygon class="st5" points="658.9,214.7 676.7,209.7 674.6,194.1 656.1,194 					"/>
				</g>
				<g>
					<polygon class="st2" points="670.8,209.4 675.7,194.4 777.4,216.5 766.4,250.7 683,214.7 675.7,211.6 					"/>
					<polygon class="st2" points="670.8,209.4 675.7,194.4 690.4,197.6 683,214.7 675.7,211.6 					"/>
					<polygon class="st2" points="670.8,209.4 675.7,194.4 682.5,195.9 675.7,211.5 					"/>
				</g>
			</g>
			<g>
				<path class="st4" d="M784.3,203.8l-2.2-7.6L784.3,203.8z"/>
				
					<rect x="781.9" y="196" transform="matrix(0.9601 -0.2796 0.2796 0.9601 -24.6671 226.9529)" class="st3" width="2.6" height="8"/>
			</g>
			<g>
				<path class="st4" d="M780.9,191.3l-7-26.6L780.9,191.3z"/>
				
					<rect x="776.1" y="164.2" transform="matrix(0.9672 -0.2541 0.2541 0.9672 -19.7052 203.3738)" class="st3" width="2.6" height="27.5"/>
			</g>
		</g>
		<g>
			<path class="st5" d="M741.1,204.1c-0.1-5.8-4.8-10.5-10.7-10.5c-5.8,0.1-10.5,4.8-10.5,10.7c0.1,5.8,4.8,10.5,10.7,10.5
				C736.4,214.7,741.1,209.9,741.1,204.1z"/>
			<path class="st5" d="M719.9,201.6c0,4.4-3.5,8-7.9,8c-4.4,0-8-3.5-8-7.9c0-4.4,3.5-8,7.9-8C716.3,193.7,719.8,197.3,719.9,201.6z
				"/>
			<polygon class="st5" points="727.6,214.4 709.8,209.4 711.9,193.8 730.4,193.6 			"/>
		</g>
		<line class="st12" x1="674.6" y1="223.9" x2="624.5" y2="248.5"/>
		<line class="st12" x1="680.3" y1="195.5" x2="701.2" y2="199.9"/>
		<path class="st13" d="M692.3,240.7c0.8,4.3,2.1,190.7,2.1,190.7l-10.1-0.6L693,245"/>
	</g>
	<g>
		<g>
			<ellipse class="st0" cx="923.5" cy="669" rx="115.3" ry="10.2"/>
		</g>
		<g>
			<g>
				<g>
					<path class="st11" d="M822.9,340.4c-4,1.4-8.4-0.7-9.9-4.7c-1.4-4,0.7-8.4,4.7-9.9c4-1.4,8.4,0.7,9.9,4.7
						C829,334.6,826.9,339,822.9,340.4z"/>
					<path class="st11" d="M813.4,355.3c-0.4-1.2-0.6-2.3-0.6-3.5l0,0l-0.2-18.5l15-2.7l6.2,17.5c2,5.6-0.9,11.8-6.6,13.8
						C821.6,363.8,815.5,360.9,813.4,355.3z"/>
				</g>
				<g>
					<path class="st11" d="M824.9,315.9c-4.2,0.7-8.2-2.2-8.8-6.4c-0.7-4.2,2.2-8.2,6.4-8.8c4.2-0.7,8.2,2.2,8.8,6.4
						S829.1,315.2,824.9,315.9z"/>
					<path class="st11" d="M812.8,328.7c-0.2-1.2-0.2-2.4,0-3.6l0,0l3.2-18.3l15.2,0.2l2.9,18.3c0.9,5.9-3.1,11.4-9,12.4
						C819.3,338.6,813.8,334.6,812.8,328.7z"/>
				</g>
				<polygon class="st14" points="833.8,244.5 812.6,324.5 832.3,329.2 856.3,261.8 				"/>
				<path class="st3" d="M959.2,31.6c0,0,2.1,40.4-4.3,65.3s22.7,61.1,22.7,61.1s-41.1,23.5-58,14s-1.4-119.4-1.4-119.4L959.2,31.6z
					"/>
				<g>
					<path class="st14" d="M862.3,251.2c-1.5,7.9-9.1,13.2-17,11.7c-7.9-1.5-13.2-9.1-11.7-17c1.5-7.9,9.1-13.2,17-11.7
						C858.6,235.6,863.8,243.2,862.3,251.2z"/>
					<polygon class="st14" points="891.5,174.3 861.7,253.7 833.8,245.2 853.1,162.6 					"/>
				</g>
				<path class="st15" d="M875.9,64.9l8-25.5L875.9,64.9z"/>
				
					<ellipse transform="matrix(0.7071 -0.7071 0.7071 0.7071 56.406 709.8031)" class="st16" cx="885" cy="286.8" rx="35.9" ry="35.9"/>
				
					<ellipse transform="matrix(0.7527 -0.6584 0.6584 0.7527 102.0353 616.4363)" class="st11" cx="871.5" cy="172.4" rx="20.1" ry="20.1"/>
				<circle class="st11" cx="987.4" cy="657.6" r="10"/>
				<circle class="st17" cx="873" cy="657.6" r="10"/>
				<path class="st14" d="M851.5,172l-2.3,112.4l89.2,21.9l20-132.9c2.5-7.7-2.9-15.6-10.9-16.1l-74.5-5
					C861.5,151.6,851.7,160.5,851.5,172z"/>
				
					<ellipse transform="matrix(0.2198 -0.9755 0.9755 0.2198 511.8178 984.7444)" class="st14" cx="871.5" cy="172.4" rx="20.1" ry="20.1"/>
				<path class="st14" d="M849.1,286.8L849.1,286.8h31.8h40.1l3.9,3c13,10.1,20.7,25.7,20.7,42.2v15.4c0,11.9-9.7,21.6-21.6,21.6
					h-62.4c-11.9,0-21.6-9.7-21.6-21.6l0-21.2C839.8,312.7,843,299.1,849.1,286.8z"/>
				<path class="st14" d="M833.9,209.7c0.2-2.5,0.8-4.8,1.8-7l0,0l17.6-38.6l36.5,16.7l-17.6,38.6l0,0c-3.4,7.4-11,12.3-19.6,11.7
					C841.5,230.3,833.1,220.8,833.9,209.7z"/>
				
					<rect x="844.7" y="174.4" transform="matrix(0.4155 -0.9096 0.9096 0.4155 335.5407 874.0168)" class="st18" width="6.3" height="3.1"/>
				<path class="st18" d="M853.9,232.7c2.9,0,5.8-0.6,8.5-1.8l-1.2-2.8c-2.7,1.2-5.6,1.7-8.5,1.5c-10.2-0.7-17.9-9.5-17.3-19.7
					c0.1-2.2,0.7-4.4,1.6-6.5l0.7-1.4l0,0l7.8-17l-2.8-1.3l-9.1,19.8l0.1,0c-0.7,2-1.2,4-1.3,6.1c-0.8,11.9,8.2,22.2,20.1,23
					C853,232.6,853.4,232.7,853.9,232.7z"/>
				<path class="st14" d="M962.1,188.5c-6.2,9.2-18.6,11.7-27.9,5.5c-9.2-6.2-11.7-18.6-5.5-27.9c6.2-9.2,18.6-11.7,27.9-5.5
					C965.8,166.8,968.3,179.3,962.1,188.5z"/>
				<circle class="st14" cx="861.5" cy="347.5" r="21.6"/>
				<circle class="st14" cx="923.8" cy="347.5" r="21.6"/>
				<circle class="st17" cx="865.6" cy="459.3" r="17.5"/>
				<g>
					<polygon class="st14" points="883.1,347.5 883.1,459.3 848.2,460.7 839.9,349.2 					"/>
				</g>
				<g>
					
						<rect x="884" y="115.5" transform="matrix(0.9911 0.1331 -0.1331 0.9911 26.1791 -118.7368)" class="st11" width="34" height="41.8"/>
				</g>
				<path class="st11" d="M924.5,100.7l-7.7-1l2.1-15.3l7.7,1c4.2,0.6,7.2,4.5,6.6,8.7l0,0C932.7,98.3,928.8,101.2,924.5,100.7z"/>
				<path class="st11" d="M871.4,48.3L929,56l-10,74.3l-35.7-4.8c-14.3-1.9-24-15.5-21.2-29.7L871.4,48.3z"/>
				<path class="st3" d="M925.1,85.1l1.5,0.2l5.9-44.2L887,35c-12-1.6-23.1,6.8-24.7,18.9l-0.1,0.9l1.5,0.2c13,1.8,25.1,7.7,34.5,17
					l0,0C905.4,79.1,914.9,83.8,925.1,85.1L925.1,85.1z"/>
				<path class="st11" d="M884,169.5c-17.2-0.4-7.4-16.9-7.4-16.9l54.4,3.6C931,156.2,901.2,170,884,169.5z"/>
				<polygon class="st14" points="848.2,460.7 863,658.3 883.1,657.6 883.1,459.3 				"/>
				<polygon class="st14" points="945.2,343.9 997.3,655.9 977.6,660 902.8,352.7 				"/>
				<path class="st3" d="M997.4,657.6h-20.1v13.9h28.1c2.4,0,4.3-1.9,4.3-4.3l0,0c0-1.5-0.8-3-2.2-3.7L997.4,657.6z"/>
				<path class="st4" d="M873.2,102.3c-0.7,4.6,2.5,9,7.1,9.7c4.6,0.7,9-2.5,9.7-7.1L873.2,102.3z"/>
				
					<rect x="993.6" y="638.5" transform="matrix(0.9863 -0.165 0.165 0.9863 -92.4857 173.0553)" class="st19" width="3.1" height="9"/>
				<rect x="881.5" y="414.2" class="st18" width="3.1" height="10"/>
				<polygon class="st14" points="943.8,401.5 856.5,401.5 850.9,326.1 930.5,322.1 				"/>
				
					<rect x="968.7" y="352.6" transform="matrix(0.9863 -0.165 0.165 0.9863 -68.2032 166.904)" class="st18" width="3.1" height="282.4"/>
				<rect x="881.5" y="466.2" class="st18" width="3.1" height="181.4"/>
				<path class="st3" d="M863,657.6h20.1v13.9H855c-2.4,0-4.3-1.9-4.3-4.3l0,0c0-1.5,0.8-3,2.2-3.7L863,657.6z"/>
				<circle class="st3" cx="938.2" cy="31.6" r="21"/>
				<path class="st3" d="M879.7,36.6c0,0,14.9-10.3,45.1-9.1s14.8,41.7,14.8,41.7L879.7,36.6z"/>
				<polygon class="st14" points="962.6,166.6 987.9,247.5 960.7,258 925.2,181 				"/>
				<path class="st14" d="M960.5,257.5c-3.1-7.4,0.5-16,7.9-19.1c7.4-3.1,16,0.5,19.1,7.9c3.1,7.4-0.5,16-7.9,19.1
					C972.1,268.4,963.6,264.9,960.5,257.5z"/>
				
					<rect x="947.9" y="230.3" transform="matrix(0.9078 -0.4193 0.4193 0.9078 -10.4529 419.6501)" class="st18" width="3.1" height="6.6"/>
				
					<rect x="935.3" y="185.4" transform="matrix(0.9078 -0.4193 0.4193 0.9078 -0.1186 411.8586)" class="st18" width="3.1" height="41.5"/>
				
					<rect x="857.5" y="183.8" transform="matrix(-0.9878 0.1556 -0.1556 -0.9878 1828.363 337.036)" class="st20" width="86.9" height="112.6"/>
				<path class="st11" d="M866.7,281.9c-2.3,3.6-1.4,8.4,2.2,10.7c3.6,2.3,8.4,1.4,10.7-2.2c2.3-3.6,1.4-8.4-2.2-10.7
					C873.9,277.4,869.1,278.4,866.7,281.9z"/>
				<path class="st11" d="M850,287.6c1,0.7,2.1,1.1,3.3,1.4l0,0l17.9,4.6l6.2-13.9l-15.5-10.2c-5-3.3-11.7-1.9-15,3.1
					C843.7,277.6,845.1,284.3,850,287.6z"/>
				<polygon class="st11" points="977.8,266 875.2,293.7 870.2,279.1 968.4,238.4 				"/>
				<polygon class="st14" points="889,289.9 883.5,273.6 968.4,238.4 977.8,266 				"/>
			</g>
			<path class="st21" d="M871.6,192.2l0.1,1l39.2-5.2l-0.1-1c-0.7-5.2-5.4-8.8-10.6-8.1l-5.1,0.7l-0.7-5.2c-0.4-2.9-3-4.9-5.9-4.5
				c-2.9,0.4-4.9,3-4.5,5.9l0.7,5.2l-5.1,0.7C874.6,182.3,870.9,187,871.6,192.2z M891.4,175.3c0.2,1.4-0.6,2.7-1.7,2.9
				s-2.2-0.9-2.4-2.3c-0.2-1.4,0.6-2.7,1.7-2.9C890.2,172.8,891.2,173.9,891.4,175.3z"/>
		</g>
	</g>
	<g>
		<g>
			<ellipse class="st0" cx="156.6" cy="669" rx="115.3" ry="10.2"/>
		</g>
		<g>
			
				<ellipse transform="matrix(0.4117 -0.9113 0.9113 0.4117 -74.0993 232.8334)" class="st22" cx="143.3" cy="173.8" rx="30" ry="30"/>
			<circle class="st22" cx="149.6" cy="332.3" r="20.5"/>
			<path class="st14" d="M119.2,166.1l7.5,149.3l109.2-0.1l7.2-149.3c0.6-12-9-22-21-22l-82,0.1
				C128.1,144.1,118.6,154.2,119.2,166.1z"/>
			<path class="st23" d="M236.4,315.8l-1,20.5l0,1c-0.5,10.9-9.5,19.4-20.4,19.4h-66.3c-10.9,0-19.9-8.6-20.4-19.4l0-1l-1-20.5
				H236.4z"/>
			
				<ellipse transform="matrix(0.8133 -0.5819 0.5819 0.8133 -149.5124 164.8402)" class="st14" cx="182.1" cy="315.4" rx="54.6" ry="54.6"/>
			<g>
				<circle class="st14" cx="214.9" cy="336.2" r="20.5"/>
				
					<ellipse transform="matrix(0.7071 -0.7071 0.7071 0.7071 -401.74 337.9799)" class="st22" cx="207.1" cy="653.9" rx="12.6" ry="12.6"/>
				<path class="st14" d="M229.1,463.2l6.2-127h-40.9l0,127h0l0,190.8h25.3l9.3-188.8C229.1,464.5,229.1,463.8,229.1,463.2
					L229.1,463.2z"/>
				<path class="st3" d="M232.5,668.9h-38v-15h25.3l14.5,7.9c1.2,0.7,2,1.9,2,3.3l0,0C236.2,667.2,234.6,668.9,232.5,668.9z"/>
				<g>
					<rect x="193" y="603.1" class="st3" width="3" height="27.9"/>
				</g>
				<g>
					<rect x="193" y="484.7" class="st3" width="3" height="108.1"/>
				</g>
			</g>
			<g>
				<polygon class="st14" points="131,324.6 99.6,651.6 124.7,654.7 171.6,329.5 				"/>
				
					<ellipse transform="matrix(0.6028 -0.7979 0.7979 0.6028 -476.3298 348.8076)" class="st14" cx="112.2" cy="652.9" rx="12.6" ry="12.6"/>
				<g>
					<path class="st4" d="M128.2,353.7l-8.9,93.1L128.2,353.7z"/>
					
						<rect x="77" y="398.8" transform="matrix(9.512015e-02 -0.9955 0.9955 9.512015e-02 -286.4891 485.3519)" class="st3" width="93.5" height="3"/>
				</g>
				<g>
					<path class="st4" d="M118.7,452.6l-1,10.5L118.7,452.6z"/>
					
						<rect x="112.9" y="456.3" transform="matrix(9.512015e-02 -0.9955 0.9955 9.512015e-02 -348.7921 531.9442)" class="st3" width="10.5" height="3"/>
				</g>
				<g>
					<path class="st4" d="M102.4,622.9l-1.1,11.4L102.4,622.9z"/>
					
						<rect x="96.1" y="627.1" transform="matrix(9.512015e-02 -0.9955 0.9955 9.512015e-02 -533.561 670.1211)" class="st3" width="11.4" height="3"/>
				</g>
				<g>
					<path class="st4" d="M105.3,592.1l-2.4,24.8L105.3,592.1z"/>
					
						<rect x="91.7" y="603" transform="matrix(9.510862e-02 -0.9955 0.9955 9.510862e-02 -507.5133 650.6485)" class="st3" width="25" height="3"/>
				</g>
			</g>
			<g>
				<polygon class="st11" points="90.8,208.4 63.2,258.9 87.9,272.7 120.3,220.1 				"/>
				<polygon class="st14" points="157.5,191.8 124.6,235.6 83,209.4 106.6,160.8 				"/>
				
					<ellipse transform="matrix(0.3949 -0.9187 0.9187 0.3949 -78.8504 227.8896)" class="st14" cx="133.6" cy="173.8" rx="30" ry="30"/>
				<polygon class="st24" points="144.2,307.6 33.1,307.6 7,223.9 118.1,223.9 				"/>
				<g>
					<path class="st11" d="M58.8,303.1c1-6.5-3.6-12.6-10.1-13.6c-6.5-1-12.6,3.6-13.6,10.1c-1,6.5,3.6,12.6,10.1,13.6
						C51.8,314.2,57.8,309.7,58.8,303.1z"/>
					<path class="st11" d="M35.5,296.7c-0.7,4.9-5.3,8.3-10.2,7.6c-4.9-0.7-8.3-5.3-7.6-10.2c0.7-4.9,5.3-8.3,10.2-7.6
						C32.9,287.2,36.3,291.8,35.5,296.7z"/>
					<polygon class="st11" points="42,312.3 22.9,303.5 28,286.5 48.7,289.5 					"/>
				</g>
			</g>
			<g>
				<polygon class="st11" points="256.7,216.1 275.5,281.2 245.4,291.2 221.5,226.3 				"/>
				<circle class="st11" cx="259.9" cy="284.6" r="15.9"/>
				<g>
					<path class="st11" d="M245,399.3c7.3,1.8,14.7-2.6,16.6-9.9c1.8-7.3-2.6-14.7-9.9-16.6c-7.3-1.8-14.7,2.6-16.6,9.9
						C233.2,390,237.7,397.4,245,399.3z"/>
					<path class="st11" d="M254.9,373.6c-5.5-1.4-8.8-6.9-7.5-12.4c1.4-5.5,6.9-8.8,12.4-7.5c5.5,1.4,8.8,6.9,7.5,12.4
						S260.4,375,254.9,373.6z"/>
					<polygon class="st11" points="236.5,379.1 248.6,358.5 267.4,366.1 261.6,389.3 					"/>
				</g>
				<g>
					<polygon class="st14" points="195.9,189.2 219.3,238.7 265.3,221.5 252,169 					"/>
					
						<ellipse transform="matrix(0.8965 -0.443 0.443 0.8965 -54.778 117.0178)" class="st14" cx="223.1" cy="175.7" rx="30" ry="30"/>
				</g>
				<polygon class="st11" points="245.4,291.2 248.9,363 267.6,364.9 275.7,285.7 				"/>
			</g>
			<line class="st25" x1="253.7" y1="175.7" x2="263.3" y2="213.6"/>
			<line class="st25" x1="253.1" y1="173.2" x2="250.7" y2="163.9"/>
			<path class="st3" d="M86.1,667.8l38,1.6l0.6-15l-25.3-1.1l-14.8,7.3c-1.2,0.6-2,1.8-2.1,3.2l0,0C82.4,666,84,667.7,86.1,667.8z"
				/>
			<polygon class="st26" points="150.9,143.7 209.2,143.7 173.8,180.2 			"/>
			<g>
				<polygon class="st11" points="197.8,147.8 175.2,173.2 160.7,149.3 160.3,89.8 197.4,88.3 				"/>
				<g>
					<path class="st3" d="M196.2,98.6l-28.6,2.9c-10.9,1.1-20.7-6.8-21.8-17.7l-2.9-28c-1.1-10.9,6.8-20.7,17.7-21.8l28.6-2.9
						c10.9-1.1,20.7,6.8,21.8,17.7l2.9,28C215,87.7,207.1,97.5,196.2,98.6z"/>
					<path class="st3" d="M197.9,135.9l-23.1,2.4c-10.2,1-19.3-6.4-20.4-16.6l-6-57.9c-1.6-15.1,9.4-28.6,24.6-30.2l5.3-0.6
						c15.1-1.6,28.6,9.4,30.2,24.6l6,57.9C215.5,125.7,208.1,134.8,197.9,135.9z"/>
					<path class="st11" d="M199.8,102l-33.8,3.5c-6.2,0.6-11.7-3.9-12.4-10.1l-3.4-33.2c-1.5-14.4,9-27.2,23.3-28.7l4.2-0.4
						c14.4-1.5,27.2,9,28.7,23.3l3.4,33.2C210.5,95.8,206,101.4,199.8,102z"/>
					<path class="st4" d="M175.2,109.4c0.3,4.5,4.2,8,8.7,7.7c4.5-0.3,8-4.2,7.7-8.7L175.2,109.4z"/>
					<circle class="st11" cx="210.9" cy="87" r="9.1"/>
					<circle class="st11" cx="151.4" cy="93.1" r="9.1"/>
					<path class="st3" d="M210.3,48.6l-53.2,5.5c-7.7,0.8-14.5-4.8-15.3-12.4l-1.6-15.6l53.6-5.5c7.7-0.8,14.5,4.8,15.3,12.4
						l1.6,15.2C210.7,48.4,210.5,48.6,210.3,48.6z"/>
				</g>
			</g>
		</g>
	</g>
	<g>
		<g>
			<ellipse class="st0" cx="410.9" cy="669" rx="115.3" ry="10.2"/>
		</g>
		<g>
			<g>
				<circle class="st11" cx="344.5" cy="657.6" r="10"/>
				<circle class="st17" cx="458.9" cy="657.6" r="10"/>
				<g>
					<polygon class="st27" points="448.8,347.5 448.8,459.3 483.7,460.7 492,349.2 					"/>
				</g>
				<polygon class="st27" points="483.7,460.7 468.9,658.3 448.8,657.6 448.8,459.3 				"/>
				<polygon class="st27" points="386.7,343.9 334.6,655.9 354.3,660 429.1,352.7 				"/>
				<path class="st3" d="M334.5,657.6h20.1v13.9h-28.1c-2.4,0-4.3-1.9-4.3-4.3l0,0c0-1.5,0.8-3,2.2-3.7L334.5,657.6z"/>
				
					<rect x="332.2" y="641.5" transform="matrix(0.165 -0.9863 0.9863 0.165 -353.0628 869.0902)" class="st19" width="9" height="3.1"/>
				<rect x="447.3" y="414.2" class="st19" width="3.1" height="10"/>
				<path class="st27" d="M378,400.1l109.5-0.7l4.9-50.3c1.3-13.5-11.5-25.2-28.4-25.9l-45.5-1.8c-15.1-0.6-28.4,7.9-31,19.9
					L378,400.1z"/>
				
					<rect x="220.5" y="492.3" transform="matrix(0.165 -0.9863 0.9863 0.165 -185.0814 769.0773)" class="st19" width="282.4" height="3.1"/>
				<rect x="447.3" y="466.2" class="st19" width="3.1" height="181.4"/>
				<path class="st3" d="M468.9,657.6h-20.1v13.9H477c2.4,0,4.3-1.9,4.3-4.3l0,0c0-1.5-0.8-3-2.2-3.7L468.9,657.6z"/>
			</g>
			<path class="st28" d="M493.8,245.3c3.9,7,12.8,9.5,19.9,5.6c7-3.9,9.5-12.8,5.6-19.9c-3.9-7-12.8-9.5-19.9-5.6
				C492.4,229.4,489.9,238.3,493.8,245.3z"/>
			<polygon class="st2" points="441.6,181.8 495.3,247.4 519,230.5 474.2,158.5 			"/>
			
				<rect x="441.8" y="233.1" transform="matrix(-0.9615 0.2748 -0.2748 -0.9615 1043.0765 407.8075)" class="st29" width="102.3" height="87.7"/>
			
				<rect x="439.8" y="238.1" transform="matrix(-0.9615 0.2748 -0.2748 -0.9615 1040.5228 418.1029)" class="st24" width="102.3" height="87.7"/>
			<g>
				<path class="st11" d="M539.7,310.2c-2.4,3.5-1.6,8.3,1.9,10.7c3.5,2.4,8.3,1.6,10.7-1.9c2.4-3.5,1.6-8.3-1.9-10.7
					C547,305.8,542.2,306.7,539.7,310.2z"/>
				<path class="st11" d="M522.9,315.4c1,0.7,2.1,1.2,3.2,1.5l0,0L544,322l6.5-13.8l-15.2-10.6c-4.9-3.4-11.6-2.2-15,2.7
					C516.8,305.3,518,312,522.9,315.4z"/>
			</g>
			<path class="st15" d="M454.9,64.9l-8-25.5L454.9,64.9z"/>
			<path class="st3" d="M429.6,163.3c-30.6-0.6-53-11.3-67.3-21.2c4.6-5.5,9.2-11.1,9.9-22.7c0.2-3-0.1-5.7-0.6-8.1
				c-1.8-3.1-3.3-6.4-4.5-9.9c-0.2-0.6-0.4-1.2-0.6-1.8c-1.9-6.1-2.9-12.6-2.8-19.3c0.6-33.6,28.4-60.3,61.9-59.7
				c33.6,0.6,60.3,28.4,59.7,61.9c-0.1,6.7-1.3,13.2-3.5,19.2c-0.2,0.6-0.4,1.2-0.6,1.8c0,0,0,0,0,0c-1.3,3.4-3,6.7-4.9,9.8
				c-0.6,2.4-0.9,5-0.9,8.1c0.3,14.7,7.2,20,12.5,27.6C478.3,156.2,460.6,163.9,429.6,163.3z"/>
			
				<ellipse transform="matrix(0.7071 -0.7071 0.7071 0.7071 -72.2203 399.2718)" class="st16" cx="445.9" cy="286.8" rx="35.9" ry="35.9"/>
			
				<ellipse transform="matrix(0.6584 -0.7527 0.7527 0.6584 27.1518 404.6235)" class="st11" cx="459.3" cy="172.4" rx="20.1" ry="20.1"/>
			
				<ellipse transform="matrix(0.9755 -0.2198 0.2198 0.9755 -26.6587 105.1646)" class="st16" cx="459.3" cy="172.4" rx="20.1" ry="20.1"/>
			<path class="st16" d="M481.8,286.8L481.8,286.8H450h-40.1l-3.9,3c-13,10.1-20.7,25.7-20.7,42.2v15.4c0,11.9,9.7,21.6,21.6,21.6
				h62.4c11.9,0,21.6-9.7,21.6-21.6l0-21.2C491,312.7,487.9,299.1,481.8,286.8z"/>
			<path class="st2" d="M383.5,157.3l74.5-5c8.6-0.6,16.3,4.3,19.6,11.7l0,0l17.6,38.6l0,0c1,2.1,1.6,4.5,1.8,7
				c0.7,10.3-6.5,19.3-16.4,21.1l16.2,109.9l9.4,154.2L352,497l38.4-204.6l-17.8-118.8C370.1,165.8,375.4,157.9,383.5,157.3z"/>
			
				<rect x="481.5" y="172.7" transform="matrix(0.9096 -0.4155 0.4155 0.9096 -29.4261 216.6065)" class="st18" width="3.1" height="6.3"/>
			<path class="st18" d="M476.9,232.7c-2.9,0-5.8-0.6-8.5-1.8l1.2-2.8c2.7,1.2,5.6,1.7,8.5,1.5c10.2-0.7,17.9-9.5,17.3-19.7
				c-0.1-2.2-0.7-4.4-1.6-6.5l-0.7-1.4l0,0l-7.8-17l2.8-1.3l9.1,19.8l-0.1,0c0.7,2,1.2,4,1.3,6.1c0.8,11.9-8.2,22.2-20.1,23
				C477.9,232.6,477.4,232.7,476.9,232.7z"/>
			<path class="st11" d="M394,310.6c0.2,4.3-3.2,7.8-7.4,8c-4.3,0.2-7.8-3.2-8-7.4c-0.2-4.3,3.2-7.8,7.4-8
				C390.2,303,393.8,306.4,394,310.6z"/>
			<path class="st11" d="M405.3,324.2c-1.2,0-2.4-0.1-3.5-0.5l0,0l-17.7-5.4l2-15.1l18.5-0.7c6-0.2,11,4.5,11.2,10.4
				C415.9,318.9,411.2,323.9,405.3,324.2z"/>
			<g>
				<path class="st2" d="M326.7,240.9c6.5-4.7,7.9-13.9,3.2-20.4c-4.7-6.5-13.9-7.9-20.4-3.2c-6.5,4.7-7.9,13.9-3.2,20.4
					C311,244.2,320.2,245.6,326.7,240.9z"/>
				<polygon class="st11" points="307.5,239.2 380.7,316.2 392.5,306.4 329.9,220.5 				"/>
				<polygon class="st2" points="370.8,305.8 384,294.7 329.9,220.5 307.5,239.2 				"/>
			</g>
			<g>
				<path class="st2" d="M368.7,188.5c6.2,9.2,18.6,11.7,27.9,5.5c9.2-6.2,11.7-18.6,5.5-27.9c-6.2-9.2-18.6-11.7-27.9-5.5
					C365,166.8,362.6,179.3,368.7,188.5z"/>
				<polygon class="st2" points="372.2,162.3 308.4,218.1 326.2,241.2 396.6,194 				"/>
				
					<rect x="345.2" y="224.7" transform="matrix(0.8308 -0.5565 0.5565 0.8308 -66.9656 232.2166)" class="st18" width="6.6" height="3.1"/>
				
					<rect x="352.8" y="207.9" transform="matrix(0.8309 -0.5565 0.5565 0.8309 -53.3737 243.3115)" class="st18" width="41.5" height="3.1"/>
			</g>
			<polygon class="st17" points="458.3,152.1 464.5,178.1 467.6,301.1 423.9,168.7 397.1,156.1 			"/>
			<g>
				<g>
					
						<rect x="412.9" y="115.5" transform="matrix(-0.9911 0.1331 -0.1331 -0.9911 874.0789 214.3485)" class="st11" width="34" height="41.8"/>
				</g>
				<path class="st11" d="M406.3,100.7l7.7-1l-2.1-15.3l-7.7,1c-4.2,0.6-7.2,4.5-6.6,8.7l0,0C398.2,98.3,402.1,101.2,406.3,100.7z"
					/>
				<path class="st11" d="M459.4,48.3L401.9,56l10,74.3l35.7-4.8c14.3-1.9,24-15.5,21.2-29.7L459.4,48.3z"/>
				<path class="st3" d="M405.8,85.1l-1.5,0.2l-5.9-44.2l45.6-6.1c12-1.6,23.1,6.8,24.7,18.9l0.1,0.9l-1.5,0.2
					c-13,1.8-25.1,7.7-34.5,17l0,0C425.4,79.1,416,83.8,405.8,85.1L405.8,85.1z"/>
				<path class="st11" d="M446.8,169.5c17.2-0.4,7.4-16.9,7.4-16.9l-54.4,3.6C399.9,156.2,429.7,170,446.8,169.5z"/>
				<path class="st4" d="M457.7,102.3c0.7,4.6-2.5,9-7.1,9.7c-4.6,0.7-9-2.5-9.7-7.1L457.7,102.3z"/>
			</g>
			<g id="XMLID_41_">
				
					<ellipse id="XMLID_46_" transform="matrix(0.8194 -0.5733 0.5733 0.8194 -39.121 301.1667)" class="st30" cx="458.4" cy="212.7" rx="7.8" ry="7.8"/>
				<path id="XMLID_45_" class="st31" d="M459.5,205.8c3.8,0.7,6.4,4.3,5.7,8.1c-0.7,3.8-4.3,6.4-8.1,5.7c-3.8-0.7-6.4-4.3-5.7-8.1
					C452.1,207.7,455.7,205.1,459.5,205.8z"/>
				<path id="XMLID_44_" class="st32" d="M461.2,201.2l0.3,0.1c0.6,0.2,1,0.8,0.8,1.4l-2.8,10.9c-0.2,0.6-0.8,1-1.4,0.8l-0.3-0.1
					c-0.6-0.2-1-0.8-0.8-1.4l2.8-10.9C459.9,201.4,460.6,201,461.2,201.2z"/>
				<path id="XMLID_43_" class="st6" d="M449.3,150.2c1.5,0.2,6.5,2,9.8,7.2c10.5,16.9,4.4,43.3,3.1,48.4c-0.1,0.4-0.5,0.6-0.9,0.5
					l-1.9-0.5c-0.7-0.2-0.9-0.6-0.8-1.1c1.2-4.9,7.5-31.9-2.3-47c-1.7-2.6-5.4-4.8-7-5.3L449.3,150.2z"/>
				<path id="XMLID_42_" class="st32" d="M458.8,210c1.5,0.3,2.4,1.6,2.2,3.1c-0.3,1.5-1.6,2.4-3.1,2.2c-1.5-0.3-2.4-1.6-2.2-3.1
					C456,210.8,457.4,209.8,458.8,210z"/>
			</g>
			<g>
				<path id="XMLID_40_" class="st6" d="M406,214.2c-2.3-8.6-8.6-36.4,1.3-51.8c2-3.2,5.1-5.8,8.4-8c0,0,0-1.1-0.5-2.6
					c-3.9,1.2-8.4,5-10.9,8.9c-11.1,17.2-4.1,45.9-1.7,54.2C403.6,214.6,404.8,214.4,406,214.2z"/>
				<g id="XMLID_38_">
					<path id="XMLID_39_" class="st6" d="M402.4,266.7c2.1,0.2,3.9-1,5.5-3.5c6.7-10.1,6.7-38.5,3.5-44.4c-2.3-4.4-7.1-4.1-7.3-4.1
						l-0.1-2c0.3,0,6.3-0.4,9.2,5.1c3.4,6.4,3.5,35.6-3.6,46.4c-2,3.1-4.5,4.6-7.2,4.3c0,0-0.2,0-0.5,0c-1.4-0.1-5.3-0.5-8-3.7
						l1.5-1.3C398,266.7,402.3,266.7,402.4,266.7z"/>
				</g>
				<g id="XMLID_36_">
					<path id="XMLID_37_" class="st33" d="M402.4,266.7c2.1,0.2,3.9-1,5.5-3.5c4.7-7.1,6.1-23.3,5.4-34.3l2,0.1
						c0.7,11.4-0.8,27.7-5.7,35.2c-2,3.1-4.5,4.6-7.2,4.3c0,0-0.2,0-0.5,0c-1.4-0.1-5.3-0.5-8-3.7l1.5-1.3
						C398,266.7,402.3,266.7,402.4,266.7z"/>
				</g>
				<path id="XMLID_35_" class="st34" d="M394.5,262.9c0.4-0.3,1-0.3,1.3,0.1l1.4,1.5c0.3,0.4,0.3,1-0.1,1.3l-1,0.9
					c-0.4,0.3-1,0.3-1.3-0.1l-1.4-1.5c-0.3-0.4-0.3-1,0.1-1.3L394.5,262.9z"/>
				<g id="XMLID_33_">
					<path id="XMLID_34_" class="st6" d="M404.4,212.7l0.2,2c-0.2,0-5,0.6-6.5,5.3c-2.1,6.4,2.8,34.3,11.1,43.1c2,2.2,4,3,6,2.5
						c0.1,0,4.4-0.7,6.4-4.2l1.7,1c-2.1,3.6-5.9,4.7-7.2,5c-0.3,0.1-0.4,0.1-0.5,0.1c-2.7,0.7-5.3-0.3-7.9-3
						c-8.9-9.5-13.7-38.2-11.5-45.1C398.1,213.4,404.1,212.8,404.4,212.7z"/>
				</g>
				<g id="XMLID_31_">
					<path id="XMLID_32_" class="st33" d="M409.1,263.1c2,2.2,4,3,6,2.5c0.1,0,4.4-0.7,6.4-4.2l1.7,1c-2.1,3.6-5.9,4.7-7.2,5
						c-0.3,0.1-0.4,0.1-0.5,0.1c-2.7,0.7-5.3-0.3-7.9-3c-6.1-6.6-10.4-22.4-11.6-33.8l1.9-0.4C399.1,241.2,403.3,256.9,409.1,263.1z
						"/>
				</g>
				<path id="XMLID_30_" class="st34" d="M421,260.8c0.3-0.4,0.9-0.6,1.3-0.3l1.1,0.7c0.4,0.3,0.6,0.9,0.3,1.3l-1.1,1.7
					c-0.3,0.4-0.9,0.6-1.3,0.3l-1.1-0.7c-0.4-0.3-0.6-0.9-0.3-1.3L421,260.8z"/>
			</g>
		</g>
	</g>
	<g>
		<g>
			<g>
				<ellipse class="st0" cx="1159.7" cy="669" rx="115.3" ry="10.2"/>
			</g>
			<g>
				<g>
					<path class="st2" d="M1217,269.9c7.2-6.9,7.5-18.3,0.6-25.5c-6.9-7.2-18.3-7.5-25.5-0.6s-7.5,18.3-0.6,25.5
						C1198.3,276.4,1209.7,276.7,1217,269.9z"/>
					<path class="st2" d="M1217,269.9c7.2-6.9,7.5-18.3,0.6-25.5c-6.9-7.2-18.3-7.5-25.5-0.6s-7.5,18.3-0.6,25.5
						C1198.3,276.4,1209.7,276.7,1217,269.9z"/>
					<path class="st11" d="M1267,332.1c3.5-1,7.1,0.4,8.9,3.3l0,0l10,15.5l0,0c0.5,0.8,1,1.7,1.3,2.7c1.7,5.6-1.5,11.5-7.1,13.2
						c-5.6,1.7-11.5-1.5-13.2-7.1l-5.3-17.7C1260.4,337.8,1262.8,333.4,1267,332.1z"/>
					<g>
						<polygon class="st2" points="1275.7,334.9 1263.2,344.6 1191.4,269.2 1219.7,247.1 1268.5,323.7 1272.8,330.4 						"/>
						<polygon class="st2" points="1275.7,334.9 1263.2,344.6 1252.8,333.7 1268.5,323.7 1272.8,330.4 						"/>
						<polygon class="st35" points="1275.7,334.9 1263.2,344.6 1258.4,339.6 1272.8,330.4 						"/>
					</g>
				</g>
				<g>
					<polygon class="st29" points="1206.8,371.1 1299,335.6 1267.7,253.6 1175.6,289.2 					"/>
					<polygon class="st24" points="1204.6,376.5 1296.8,341 1265.6,259 1173.4,294.5 					"/>
				</g>
				<g>
					<g>
						
							<ellipse transform="matrix(0.9995 -3.024619e-02 3.024619e-02 0.9995 -4.6252 36.043)" class="st2" cx="1189.1" cy="170.9" rx="26.5" ry="26.5"/>
						<polygon class="st2" points="1163.6,177.9 1186.6,261.5 1222,255.4 1215.5,168.9 						"/>
						<path class="st2" d="M1186.6,250.7c-3.9,9.2,0.5,19.8,9.6,23.6c9.2,3.9,19.8-0.5,23.6-9.6c3.9-9.2-0.5-19.8-9.6-23.6
							C1201,237.1,1190.5,241.5,1186.6,250.7z"/>
					</g>
					<g>
						<path class="st4" d="M1219.3,229.8l-0.8-7.9L1219.3,229.8z"/>
						
							<rect x="1217.6" y="221.8" transform="matrix(0.995 -9.951713e-02 9.951713e-02 0.995 -16.4194 122.4251)" class="st3" width="2.6" height="8"/>
					</g>
					<g>
						<path class="st4" d="M1218.3,216.9l-2-27.5L1218.3,216.9z"/>
						
							<rect x="1215.9" y="189.4" transform="matrix(0.9973 -7.314564e-02 7.314564e-02 0.9973 -11.5978 89.5821)" class="st3" width="2.6" height="27.5"/>
					</g>
				</g>
				<g>
					<g>
						
							<ellipse transform="matrix(0.4038 -0.9148 0.9148 0.4038 500.8389 1108.7045)" class="st2" cx="1101.1" cy="170.1" rx="26.5" ry="26.5"/>
						<polygon class="st2" points="1122.1,186.2 1069.3,255 1038.8,236 1077.4,158.3 						"/>
						<path class="st2" d="M1073.4,244.9c0.1,10-7.9,18.1-17.8,18.3c-10,0.1-18.1-7.9-18.3-17.8c-0.1-10,7.9-18.1,17.8-18.3
							C1065.1,227,1073.3,234.9,1073.4,244.9z"/>
					</g>
					<g>
						<path class="st4" d="M1050.9,213.2l3.7-7L1050.9,213.2z"/>
						
							<rect x="1048.8" y="208.4" transform="matrix(0.4663 -0.8846 0.8846 0.4663 376.3285 1043.219)" class="st3" width="8" height="2.6"/>
					</g>
					<g>
						<path class="st4" d="M1056.8,201.7l12.2-24.7L1056.8,201.7z"/>
						
							<rect x="1049.1" y="188" transform="matrix(0.4428 -0.8966 0.8966 0.4428 422.4967 1058.4974)" class="st3" width="27.5" height="2.6"/>
					</g>
				</g>
				<g>
					<path class="st14" d="M1194.6,315.8l-1,20.5l0,1c-0.1,1.9-0.5,3.8-1.1,5.5l29.6,308.9l-25.1,3l-43-298h-26.8l0,106.5h0l0,190.8
						h-25.3l-9.3-188.8c-0.1-0.6-0.1-1.3-0.1-1.9l-6.2-125.8c0,0,0-0.1,0-0.1l0-1l-1-20.5H1194.6z"/>
					
						<ellipse transform="matrix(0.7979 -0.6028 0.6028 0.7979 -149.0815 861.0929)" class="st14" cx="1209.5" cy="652.9" rx="12.6" ry="12.6"/>
					<g>
						<path class="st4" d="M1193.5,353.7l8.9,93.1L1193.5,353.7z"/>
						
							<rect x="1196.5" y="353.5" transform="matrix(0.9955 -9.512015e-02 9.512015e-02 0.9955 -32.641 115.7661)" class="st3" width="3" height="93.5"/>
					</g>
					<g>
						<path class="st4" d="M1203,452.6l1,10.5L1203,452.6z"/>
						
							<rect x="1202" y="452.6" transform="matrix(0.9955 -9.512015e-02 9.512015e-02 0.9955 -38.0917 116.5525)" class="st3" width="3" height="10.5"/>
					</g>
					<g>
						<path class="st4" d="M1219.3,622.9l1.1,11.4L1219.3,622.9z"/>
						
							<rect x="1218.4" y="622.8" transform="matrix(0.9955 -9.512015e-02 9.512015e-02 0.9955 -54.2564 118.8846)" class="st3" width="3" height="11.4"/>
					</g>
					<g>
						<path class="st4" d="M1216.4,592.1l2.4,24.8L1216.4,592.1z"/>
						
							<rect x="1216.1" y="592" transform="matrix(0.9955 -9.510862e-02 9.510862e-02 0.9955 -51.972 118.5412)" class="st3" width="3" height="25"/>
					</g>
				</g>
				<path class="st2" d="M1202.5,166.1l-7.5,149.3l-109.2-0.1l-7.2-149.3c-0.6-12,9-22,21-22l82,0.1
					C1193.6,144.1,1203.1,154.2,1202.5,166.1z"/>
				<g>
					
						<ellipse transform="matrix(0.7071 -0.7071 0.7071 0.7071 -135.945 979.6659)" class="st22" cx="1114.6" cy="653.9" rx="12.6" ry="12.6"/>
					<path class="st3" d="M1089.2,668.9h38v-15h-25.3l-14.5,7.9c-1.2,0.7-2,1.9-2,3.3l0,0C1085.4,667.2,1087.1,668.9,1089.2,668.9z"
						/>
					<g>
						<path class="st4" d="M1127.2,603.1V631V603.1z"/>
						<rect x="1125.7" y="603.1" class="st3" width="3" height="27.9"/>
					</g>
					<g>
						<path class="st4" d="M1127.2,484.7v108.1V484.7z"/>
						<rect x="1125.7" y="484.7" class="st3" width="3" height="108.1"/>
					</g>
				</g>
				<polygon class="st2" points="1200,216.7 1213.5,449 1074.9,449 1082.4,218.9 				"/>
				<g>
					<path class="st2" d="M1063.8,262.4c9.1-4.1,13.1-14.8,9-23.9c-4.1-9.1-14.8-13.1-23.9-9c-9.1,4.1-13.1,14.8-9,23.9
						C1044.1,262.5,1054.7,266.5,1063.8,262.4z"/>
					<path class="st2" d="M1063.8,262.4c9.1-4.1,13.1-14.8,9-23.9c-4.1-9.1-14.8-13.1-23.9-9c-9.1,4.1-13.1,14.8-9,23.9
						C1044.1,262.5,1054.7,266.5,1063.8,262.4z"/>
					<path class="st11" d="M1090.7,337.6c3.6,0.2,6.5,2.7,7.4,6l0,0l4.4,18l0,0c0.2,1,0.3,2,0.3,3c-0.3,5.8-5.2,10.4-11,10.1
						c-5.8-0.3-10.4-5.2-10.1-11l0.8-18.5C1082.6,340.8,1086.3,337.4,1090.7,337.6z"/>
					<g>
						<polygon class="st2" points="1097.9,343.1 1083,348.2 1039.9,253.4 1073.9,241.8 1094.9,330.2 1096.7,337.9 						"/>
						<polygon class="st2" points="1097.9,343.1 1083,348.2 1076.8,334.5 1094.9,330.2 1096.7,337.9 						"/>
						<polygon class="st35" points="1097.9,343.1 1083,348.2 1080.1,341.8 1096.7,337.9 						"/>
					</g>
				</g>
				<polygon class="st35" points="1168.7,144.8 1115.6,144.8 1144.7,229.2 				"/>
				<polygon class="st36" points="1147.9,179.2 1139.5,179.2 1136.4,206.3 1144.6,228.9 1151,206.3 				"/>
				<polygon class="st13" points="1146.8,275 1144.7,449 1156.2,449 				"/>
			</g>
			<path class="st3" d="M1235.6,667.8l-38,1.6l-0.6-15l25.3-1.1l14.8,7.3c1.2,0.6,2,1.8,2.1,3.2l0,0
				C1239.3,666,1237.7,667.7,1235.6,667.8z"/>
			<polygon class="st11" points="1123.8,147.8 1143.7,172.9 1161,149.3 1161.4,89.8 1124.3,88.3 			"/>
			<g>
				<path class="st3" d="M1127.2,114.4l28.4,0.1c12.1,0,21.9-9.7,21.9-21.8l0.1-33.9c0-12.1-9.7-21.9-21.8-21.9l-28.4-0.1
					c-12.1,0-21.9,9.7-21.9,21.8l-0.1,33.9C1105.3,104.5,1115.1,114.4,1127.2,114.4z"/>
				<path class="st11" d="M1130.4,134.4l20.5,0.1c10.1,0,18.3-8.1,18.3-18.2l0.2-53.9c0-9.4-7.5-17-16.9-17l-23.2-0.1
					c-9.4,0-17,7.5-17,16.9l-0.2,53.9C1112.1,126.1,1120.3,134.3,1130.4,134.4z"/>
				<path class="st11" d="M1124.2,103.7l33,0.1c6.5,0,11.8-5.2,11.8-11.7l0.1-32.6c0-9.4-7.6-17.1-17-17.1l-22.4-0.1
					c-9.4,0-17.1,7.6-17.1,17l-0.1,32.6C1112.5,98.4,1117.7,103.7,1124.2,103.7z"/>
				<path class="st4" d="M1154.2,107.4c0.3,6.9-5.1,12.8-12.1,13c-6.9,0.3-12.8-5.1-13-12.1L1154.2,107.4z"/>
				<circle class="st11" cx="1111.2" cy="89.9" r="9.1"/>
				<circle class="st11" cx="1171" cy="90.1" r="9.1"/>
			</g>
		</g>
		<path class="st3" d="M1112.3,80.8L1112.3,80.8l-0.1-30.2h1.7v28.6C1113.9,80.1,1113.2,80.8,1112.3,80.8z"/>
		<path class="st3" d="M1169.5,81.1L1169.5,81.1l0.1-30.2h-1.7v28.6C1167.9,80.4,1168.6,81.1,1169.5,81.1z"/>
		<path class="st3" d="M1147.6,53.4h-32c-5.8,0-10.6-4.7-10.6-10.6V29.3h42.5c5.8,0,10.6,4.7,10.6,10.6v3
			C1158.2,48.7,1153.4,53.4,1147.6,53.4z"/>
		<path class="st3" d="M1175.6,61.7h-10.3c-5.6,0-10.1-4.5-10.1-10.1V34.8h10.3c5.6,0,10.1,4.5,10.1,10.1V61.7z"/>
	</g>
</g>
</svg>
