<?xml version="1.0" encoding="utf-8"?>
<!-- Generator: Adobe Illustrator 24.0.2, SVG Export Plug-In . SVG Version: 6.00 Build 0)  -->
<svg version="1.1" id="Layer_1" xmlns="http://www.w3.org/2000/svg" xmlns:xlink="http://www.w3.org/1999/xlink" x="0px" y="0px"
	 viewBox="0 0 33.1 33.1" style="enable-background:new 0 0 33.1 33.1;" xml:space="preserve">
<style type="text/css">
	.st0{fill:#3C3C3C;}
	.st1{fill-rule:evenodd;clip-rule:evenodd;fill:#3C3C3C;}
</style>
<g>
	<g>
		<path class="st0" d="M16.6,33.1c-0.4,0-0.8,0-1.2,0C6.3,32.4-0.6,24.4,0.1,15.3C0.7,6.3,8.7-0.6,17.7,0.1
			c4.4,0.3,8.4,2.3,11.3,5.7s4.3,7.6,4,12c-0.3,4.4-2.3,8.4-5.7,11.3C24.3,31.7,20.5,33.1,16.6,33.1z M16.5,1C8.5,1,1.6,7.3,1,15.4
			C0.4,24,6.9,31.4,15.4,32l0,0c4.1,0.3,8.1-1,11.3-3.7s5-6.5,5.3-10.6c0.3-4.1-1-8.1-3.7-11.3c-2.7-3.1-6.5-5-10.6-5.3
			C17.3,1,16.9,1,16.5,1z"/>
	</g>
	<g>
		<path class="st1" d="M10.1,16.2c0-0.1,0.1-0.1,0.2-0.2L20,9.5c0.2-0.2,0.6-0.1,0.8,0.1c0.1,0.1,0.1,0.2,0.1,0.3h0V23
			c0,0.3-0.2,0.5-0.5,0.5c-0.1,0-0.2,0-0.3-0.1l-9.8-6.5C10,16.8,9.9,16.4,10.1,16.2z"/>
	</g>
</g>
</svg>
