<?xml version="1.0" encoding="utf-8"?>
<!-- Generator: Adobe Illustrator 24.0.2, SVG Export Plug-In . SVG Version: 6.00 Build 0)  -->
<svg version="1.1" id="Layer_1" xmlns="http://www.w3.org/2000/svg" xmlns:xlink="http://www.w3.org/1999/xlink" x="0px" y="0px"
	 viewBox="0 0 110 115" style="enable-background:new 0 0 110 115;" xml:space="preserve">
<style type="text/css">
	.st0{fill:#FFFFFF;}
</style>
<g>
	<g>
		<path class="st0" d="M54.4,65.8c-18.1,0-32.9-14.8-32.9-32.9S36.3,0,54.4,0s32.9,14.8,32.9,32.9S72.5,65.8,54.4,65.8z M54.4,5.1
			c-15.3,0-27.8,12.5-27.8,27.8c0,15.3,12.5,27.8,27.8,27.8s27.8-12.5,27.8-27.8C82.2,17.6,69.7,5.1,54.4,5.1z"/>
	</g>
	<g>
		<path class="st0" d="M5.1,115.1v-2c0-17.5,14.3-31.8,31.8-31.8h36.2c17.5,0,31.8,14.2,31.8,31.8v2h5.1v-2
			c0-20.3-16.5-36.9-36.9-36.9H36.9C16.5,76.2,0,92.8,0,113.1v2H5.1z"/>
	</g>
</g>
</svg>
