<?xml version="1.0" encoding="utf-8"?>
<!-- Generator: Adobe Illustrator 24.0.2, SVG Export Plug-In . SVG Version: 6.00 Build 0)  -->
<svg version="1.1" id="Layer_1" xmlns="http://www.w3.org/2000/svg" xmlns:xlink="http://www.w3.org/1999/xlink" x="0px" y="0px"
	 viewBox="0 0 91.1 91.1" style="enable-background:new 0 0 91.1 91.1;" xml:space="preserve">
<style type="text/css">
	.st0{clip-path:url(#SVGID_2_);fill:#FF0074;}
	.st1{clip-path:url(#SVGID_2_);fill:#FFFFFF;}
</style>
<g>
	<defs>
		<rect id="SVGID_1_" x="0" y="0" width="91.1" height="91.1"/>
	</defs>
	<clipPath id="SVGID_2_">
		<use xlink:href="#SVGID_1_"  style="overflow:visible;"/>
	</clipPath>
	<path class="st0" d="M81.4,81.4c-12.9,12.9-58.9,12.9-71.8,0s-12.9-58.9,0-71.8s58.9-12.9,71.8,0S94.3,68.5,81.4,81.4"/>
	<path class="st1" d="M55.7,53.6l-1.1-5.3c1.9-2.2,2.9-5,2.8-7.9c-0.1-3.2-1.3-6.1-3.6-8.3c-2.3-2.2-5.3-3.4-8.4-3.3
		c-6.5,0.1-11.7,5.5-11.6,12c0,2.9,1.1,5.6,3.1,7.8l-0.9,5.3c-4.1-3-6.7-7.8-6.8-13C29,33.4,33.9,26.8,41,24.8
		c0.8,1.5,2.4,2.6,4.3,2.5c1.8,0,3.4-1.1,4.2-2.7c7.2,1.8,12.4,8.1,12.5,15.7C62.1,45.5,59.7,50.4,55.7,53.6 M37,66.6l1.7-9.8
		c0,0,0,0,0,0l1.3-7.4l11.5-0.2L55,66.3L37,66.6z M52.3,46L39,46.2c-1.3-1.5-2-3.4-2.1-5.4c0-2.3,0.8-4.5,2.4-6.1
		c1.6-1.7,3.7-2.6,6-2.6c2.3,0,4.5,0.8,6.1,2.4c1.6,1.6,2.6,3.7,2.6,6C54.2,42.5,53.5,44.4,52.3,46 M65.2,40.3
		c-0.2-9.6-7.2-17.6-16.6-19.1c-0.5-0.1-0.9,0.1-1.3,0.3c-0.4,0.3-0.6,0.7-0.6,1.2c-0.1,0.8-0.7,1.4-1.5,1.4h0
		c-0.8,0-1.4-0.6-1.5-1.4c0-0.5-0.3-0.9-0.6-1.1c-0.4-0.3-0.8-0.4-1.3-0.3c-9.4,1.8-16.1,10.1-16,19.7c0.1,6.8,3.7,13,9.4,16.5
		L33.4,68c-0.1,0.5,0.1,1,0.4,1.3c0.3,0.4,0.8,0.6,1.2,0.6c0,0,0,0,0,0l22-0.4c0.5,0,0.9-0.2,1.2-0.6c0.3-0.4,0.4-0.9,0.3-1.3
		l-2.2-10.5C62,53.4,65.3,47,65.2,40.3"/>
</g>
</svg>
