<?xml version="1.0" encoding="utf-8"?>
<!-- Generator: Adobe Illustrator 24.0.2, SVG Export Plug-In . SVG Version: 6.00 Build 0)  -->
<svg version="1.1" id="Layer_1" xmlns="http://www.w3.org/2000/svg" xmlns:xlink="http://www.w3.org/1999/xlink" x="0px" y="0px"
	 viewBox="0 0 91.1 91.1" style="enable-background:new 0 0 91.1 91.1;" xml:space="preserve">
<style type="text/css">
	.st0{clip-path:url(#SVGID_2_);}
	.st1{fill:#FF6900;}
	.st2{fill:#FFFFFF;}
</style>
<g>
	<g>
		<defs>
			<rect id="SVGID_1_" y="0" width="91" height="91"/>
		</defs>
		<clipPath id="SVGID_2_">
			<use xlink:href="#SVGID_1_"  style="overflow:visible;"/>
		</clipPath>
		<g class="st0">
			<path class="st1" d="M81.4,81.4c-12.9,12.9-58.9,12.9-71.7,0s-12.9-58.9,0-71.7s58.9-12.9,71.7,0S94.3,68.5,81.4,81.4"/>
		</g>
	</g>
	<g>
		<g>
			<path class="st2" d="M29.2,75.9c-0.9,0-1.7-0.2-2.5-0.6c-1.3-0.7-2-2-2-3.5l0.3-9.5l-2.4-0.5c-0.3-0.1-0.6-0.2-0.7-0.5
				c-0.2-0.3-0.2-0.6-0.1-0.9l3.2-13.4l-3,4c-1.3,1.7-2.9,2.4-4.5,1.8c-1.8-0.7-2.8-2.8-2.1-4.6c0-0.1,0.1-0.1,0.1-0.2L23,35.7
				c1.1-2.6,5.6-3.5,9.5-3.5h0c4,0,8.6,0.9,9.7,3.6l0.5,0.9c0.9-0.5,2-0.8,3.1-0.7l0.4-2.3c0.6-3.4,8.5-3.9,11.8-4
				c2.2-0.1,13.3-0.1,14.3,4L75.7,48c0.6,1.8-0.4,3.9-2.2,4.6c-1.6,0.6-3.7,0-5-3.3L67.7,47L68,71.6c0,1.5-0.7,2.7-2,3.4
				c-1.7,1-4,1-5.7,0c-0.3-0.2-0.7-0.4-0.9-0.7c-0.3,0.3-0.6,0.5-1,0.7c-1.8,1-4.3,1-5.9,0c-0.3-0.1-0.5-0.3-0.7-0.5
				c-0.2,0.2-0.4,0.4-0.7,0.5c-1.5,0.9-3.7,0.9-5.1,0.1c-0.2-0.1-0.4-0.3-0.6-0.4c-0.2,0.2-0.4,0.3-0.6,0.4c-1.4,0.8-3.5,0.8-5,0
				c-0.3-0.2-0.5-0.3-0.7-0.5c-0.2,0.2-0.4,0.3-0.6,0.5c-1.5,0.9-3.6,0.9-5.1,0.1c-0.3-0.2-0.6-0.4-0.9-0.7
				c-0.3,0.3-0.6,0.5-0.9,0.7C30.9,75.7,30,75.9,29.2,75.9z M40.4,72.5c0,0.2,0.1,0.5,0.6,0.8c0.7,0.4,2,0.4,2.7,0
				c0.5-0.3,0.6-0.7,0.6-1v-5.7c0-0.6,0.5-1.1,1.1-1.1c0.6,0,1.1,0.5,1.1,1.1v5.7c0,0.3,0.1,0.6,0.6,0.9c0.8,0.4,2.1,0.4,2.9,0
				c0.5-0.3,0.6-0.7,0.6-0.9l0-0.3c0-0.1,0-0.3,0-0.4l-0.2-4.9c0-0.6,0.4-1.1,0.9-1.1l2-0.3l-4-9.3c-0.2-0.6,0-1.2,0.6-1.5
				c0.6-0.2,1.2,0,1.5,0.6l2.1,4.9c0.1,0.1,0.1,0.1,0.2,0.2c0.6,0.9,0.7,0.8,1.1,0.7c0.3-0.1,0.5-0.3,0.6-0.5c0.1-0.2,0.1-0.3,0-0.4
				l-3-7.4c-0.3-0.6-2.9-1.6-7-1.6c-4.2,0-6.5,1-6.8,1.6l-2.6,6.8c0,0,0,0,0,0c0,0,0,0,0,0c-0.1,0.1-0.1,0.3,0,0.4
				c0.1,0.2,0.3,0.4,0.6,0.5c0,0,0,0,0,0c0.4,0.1,0.6,0.1,0.6,0.1c0,0,0.1-0.1,0.2-0.3c0.1-0.1,0.2-0.2,0.3-0.3l1.9-4.8
				c0.2-0.6,0.9-0.9,1.5-0.6c0.6,0.2,0.9,0.9,0.6,1.5L38,65.3l1.7,0.3c0.6,0.1,1,0.6,0.9,1.2l-0.2,4.7c0,0.1,0,0.2,0,0.3
				C40.4,72,40.4,72.2,40.4,72.5z M24.2,59.7l2.2,0.4c0.5,0.1,0.9,0.6,0.9,1.1L27,71.8c0,0.7,0.3,1.2,0.8,1.5c0.8,0.4,1.9,0.4,2.6,0
				c0.6-0.3,0.9-0.9,0.9-1.6v-9.5c0-0.6,0.5-1.1,1.1-1.1c0.6,0,1.1,0.5,1.1,1.1v9.5c0,0.7,0.3,1.3,0.9,1.6c0.8,0.5,2,0.4,2.8,0
				c0.4-0.2,0.7-0.6,0.8-1l0.2-4.6l-2.1-0.4c-0.3-0.1-0.6-0.3-0.8-0.6c-0.2-0.3-0.2-0.6-0.1-1l1.2-3.1c-0.2,0-0.5-0.1-0.7-0.2
				c0,0,0,0,0,0c-0.9-0.3-1.6-0.9-2-1.7c-0.3-0.7-0.3-1.5,0-2.2l2.6-6.9c1.2-2.8,7.1-3,8.9-3c1.8,0,7.8,0.2,9,3l3,7.4
				c0.3,0.7,0.3,1.5,0,2.2c-0.4,0.8-1.1,1.4-2,1.7c-0.2,0.1-0.4,0.1-0.6,0.1l1.1,2.6c0.1,0.3,0.1,0.7-0.1,1
				c-0.2,0.3-0.5,0.5-0.8,0.6l-2.4,0.4l0.2,4.3c0.1,0.6,0.3,1,0.9,1.3c1,0.6,2.6,0.6,3.7-0.1c0.6-0.4,1-0.8,1-1.4c0,0,0,0,0-0.1
				l0-17.1c0-0.6,0.5-1.1,1.1-1.1h0c0.6,0,1.1,0.5,1.1,1.1l0,16.9c0,0,0,0.1,0,0.1c0,0.1,0,0.1,0,0.2c0,0.6,0.3,1,0.9,1.4
				c1,0.6,2.5,0.5,3.4,0c0.6-0.4,0.9-0.8,0.9-1.5l-0.3-31.7c0-0.6,0.4-1,0.9-1.1c0.5-0.1,1.1,0.2,1.2,0.7l3,8.9c0.2,0.5,1,2.4,2.1,2
				c0.6-0.2,1.2-1.1,0.9-1.8c0,0,0-0.1,0-0.1l-3.4-14.4c-0.3-1.1-5-2.5-12-2.3c-6.5,0.2-9.5,1.5-9.7,2.2l-0.4,2.3
				c2.3,0.9,3.9,3.2,3.9,5.8c0,3.4-2.8,6.2-6.2,6.2c-3.4,0-6.2-2.8-6.2-6.2c0-1.6,0.6-3,1.5-4.1l-0.7-1.3c0,0,0-0.1-0.1-0.1
				c-0.4-1.1-3.4-2.2-7.6-2.2c-4.3,0-7,1.1-7.4,2.2c0,0.1-0.1,0.1-0.1,0.2l-7.5,12.3c-0.2,0.7,0.1,1.4,0.8,1.7
				c0.7,0.3,1.4-0.4,1.9-1l6.3-8.5c0.3-0.4,0.9-0.6,1.4-0.4c0.5,0.2,0.7,0.8,0.6,1.3L24.2,59.7z M45.6,38.2c-2.2,0-4,1.8-4,4
				c0,2.2,1.8,4,4,4c2.2,0,4-1.8,4-4C49.6,40,47.8,38.2,45.6,38.2z M32.3,31.1c-3.7,0-6.7-3-6.7-6.7c0-2.4,1.3-4.7,3.4-5.9
				c1-0.6,2.2-0.9,3.4-0.9c3.7,0,6.7,3,6.7,6.7c0,2.4-1.3,4.7-3.4,5.9C34.7,30.8,33.5,31.1,32.3,31.1z M32.4,19.8
				c-0.8,0-1.6,0.2-2.3,0.6c-1.4,0.8-2.3,2.3-2.3,3.9c0,2.5,2,4.5,4.5,4.5c0.8,0,1.6-0.2,2.3-0.6c1.4-0.8,2.3-2.3,2.3-3.9
				C36.9,21.8,34.9,19.8,32.4,19.8z M58.9,28.7c-3.7,0-6.7-3-6.7-6.7c0-2.4,1.3-4.7,3.4-5.9c1-0.6,2.2-0.9,3.4-0.9
				c3.7,0,6.7,3,6.7,6.7c0,2.4-1.3,4.7-3.4,5.9C61.3,28.4,60.1,28.7,58.9,28.7z M59,17.4c-0.8,0-1.6,0.2-2.3,0.6
				c-1.4,0.8-2.3,2.3-2.3,3.9c0,2.5,2,4.5,4.5,4.5c0.8,0,1.6-0.2,2.3-0.6c1.4-0.8,2.3-2.3,2.3-3.9C63.5,19.4,61.5,17.4,59,17.4z"/>
		</g>
	</g>
</g>
</svg>
