<?xml version="1.0" encoding="utf-8"?>
<!-- Generator: Adobe Illustrator 24.0.2, SVG Export Plug-In . SVG Version: 6.00 Build 0)  -->
<svg version="1.1" id="Layer_1" xmlns="http://www.w3.org/2000/svg" xmlns:xlink="http://www.w3.org/1999/xlink" x="0px" y="0px"
	 viewBox="0 0 91.1 91.1" style="enable-background:new 0 0 91.1 91.1;" xml:space="preserve">
<style type="text/css">
	.st0{clip-path:url(#SVGID_2_);fill:#3BE900;}
	.st1{clip-path:url(#SVGID_2_);fill:#FFFFFF;}
</style>
<g>
	<defs>
		<rect id="SVGID_1_" width="91" height="91"/>
	</defs>
	<clipPath id="SVGID_2_">
		<use xlink:href="#SVGID_1_"  style="overflow:visible;"/>
	</clipPath>
	<path class="st0" d="M81.4,81.4c-12.9,12.9-58.9,12.9-71.7,0s-12.9-58.9,0-71.7s58.9-12.9,71.7,0S94.3,68.5,81.4,81.4"/>
	<path class="st1" d="M38.2,42.4 M37.1,42.4c0.3,0.3,0.6,0.4,1,0.4l0.1,0c0.4,0,0.8-0.2,1-0.5l3.5-4.5c0.1-0.1,0.1-0.2,0.1-0.3
		c0-0.1-0.1-0.2-0.2-0.3L41.1,36c-0.2-0.1-0.4-0.1-0.6,0.1L38,39.2l-0.9-0.9c-0.2-0.2-0.4-0.2-0.6,0l-1.5,1.5
		c-0.2,0.2-0.2,0.4,0,0.6L37.1,42.4z"/>
	<path class="st1" d="M45.4,38.3v2.1c0,0.2,0.2,0.4,0.4,0.4h9.6c0.2,0,0.4-0.2,0.4-0.4v-2.1c0-0.2-0.2-0.4-0.4-0.4h-9.6
		C45.6,37.9,45.4,38.1,45.4,38.3"/>
	<path class="st1" d="M55.8,47.2c0-0.2-0.2-0.4-0.4-0.4h-9.6c-0.2,0-0.4,0.2-0.4,0.4v2.1c0,0.2,0.2,0.4,0.4,0.4h9.6
		c0.2,0,0.4-0.2,0.4-0.4V47.2z"/>
	<path class="st1" d="M55.4,55.8h-9.6c-0.2,0-0.4,0.2-0.4,0.4v2.1c0,0.2,0.2,0.4,0.4,0.4h9.6c0.2,0,0.4-0.2,0.4-0.4v-2.1
		C55.8,56,55.6,55.8,55.4,55.8"/>
	<path class="st1" d="M62.1,24.2h-4.7c-0.2,0-0.4,0.2-0.4,0.4v2.1c0,0.2,0.2,0.4,0.4,0.4h3.3v39.1H30.4V27h3.2
		c0.2,0,0.4-0.2,0.4-0.4v-2.1c0-0.2-0.2-0.4-0.4-0.4h-4.7c-0.8,0-1.4,0.6-1.4,1.4v41.9c0,0.8,0.6,1.4,1.4,1.4h33.2
		c0.8,0,1.4-0.6,1.4-1.4V25.6C63.5,24.8,62.9,24.2,62.1,24.2"/>
	<path class="st1" d="M37.1,51.3c0.3,0.3,0.6,0.4,1,0.4c0,0,0,0,0.1,0c0.4,0,0.8-0.2,1-0.5l3.5-4.5c0.1-0.1,0.1-0.2,0.1-0.3
		c0-0.1-0.1-0.2-0.2-0.3l-1.6-1.3c-0.1-0.1-0.2-0.1-0.3-0.1c-0.1,0-0.2,0.1-0.3,0.2L38,48.1l-0.9-0.9c-0.2-0.2-0.4-0.2-0.6,0
		l-1.5,1.5c-0.2,0.2-0.2,0.4,0,0.6L37.1,51.3z"/>
	<path class="st1" d="M37.1,60.3c0.3,0.3,0.6,0.4,1,0.4h0.1c0.4,0,0.8-0.2,1-0.5l3.5-4.5c0.1-0.2,0.1-0.4-0.1-0.6l-1.6-1.3
		c-0.1-0.1-0.2-0.1-0.3-0.1c-0.1,0-0.2,0.1-0.3,0.2L38,57.1l-0.9-0.9c-0.2-0.2-0.4-0.2-0.6,0l-1.5,1.5C35.1,57.8,35,57.9,35,58
		c0,0.1,0,0.2,0.1,0.3L37.1,60.3z"/>
	<path class="st1" d="M38.9,27.1V25h13.2v2.1c0,1-0.8,1.9-1.9,1.9h-9.5C39.8,29,38.9,28.1,38.9,27.1 M40.8,31.8h9.5
		c2.6,0,4.8-2.1,4.8-4.8v-3.6c0-0.8-0.6-1.4-1.4-1.4H37.5c-0.8,0-1.4,0.6-1.4,1.4v3.6C36,29.7,38.2,31.8,40.8,31.8"/>
</g>
</svg>
