<?xml version="1.0" encoding="utf-8"?>
<!-- Generator: Adobe Illustrator 24.0.2, SVG Export Plug-In . SVG Version: 6.00 Build 0)  -->
<svg version="1.1" id="Layer_1" xmlns="http://www.w3.org/2000/svg" xmlns:xlink="http://www.w3.org/1999/xlink" x="0px" y="0px"
	 viewBox="0 0 33.1 33.1" style="enable-background:new 0 0 33.1 33.1;" xml:space="preserve">
<style type="text/css">
	.st0{fill:#3C3C3C;}
	.st1{fill-rule:evenodd;clip-rule:evenodd;fill:#3C3C3C;}
</style>
<g>
	<g>
		<path class="st0" d="M5.8,29c-3.3-2.9-5.4-6.9-5.7-11.3c-0.3-4.4,1.1-8.6,4-12S11,0.4,15.3,0.1c9.1-0.7,17,6.2,17.7,15.3
			c0.7,9.1-6.2,17-15.3,17.7c-0.4,0-0.8,0-1.2,0C12.6,33.1,8.8,31.7,5.8,29z M15.4,1C11.3,1.3,7.5,3.2,4.8,6.4
			c-2.7,3.1-4,7.2-3.7,11.3c0.3,4.1,2.2,7.9,5.3,10.6s7.2,4,11.3,3.7l0,0c8.5-0.6,15-8.1,14.4-16.6C31.4,7.3,24.6,1,16.6,1
			C16.2,1,15.8,1,15.4,1z"/>
	</g>
	<g>
		<path class="st1" d="M23,16.2c0-0.1-0.1-0.1-0.2-0.2l-9.8-6.5c-0.2-0.2-0.6-0.1-0.8,0.1c-0.1,0.1-0.1,0.2-0.1,0.3h0l0,13.1
			c0,0.3,0.2,0.5,0.5,0.5c0.1,0,0.2,0,0.3-0.1l9.8-6.5C23.1,16.8,23.2,16.4,23,16.2z"/>
	</g>
</g>
</svg>
