<?xml version="1.0" encoding="utf-8"?>
<!-- Generator: Adobe Illustrator 24.0.2, SVG Export Plug-In . SVG Version: 6.00 Build 0)  -->
<svg version="1.1" id="Layer_1" xmlns="http://www.w3.org/2000/svg" xmlns:xlink="http://www.w3.org/1999/xlink" x="0px" y="0px"
	 viewBox="0 0 293 258" style="enable-background:new 0 0 293 258;" xml:space="preserve">
<style type="text/css">
	.st0{fill:#E3E0FF;}
	.st1{fill:#C7C2ED;}
	.st2{fill:#FF96A8;}
	.st3{fill:#ED7D94;}
	.st4{fill:#332666;}
	.st5{fill:#40337A;}
	.st6{fill:#FFCC45;}
	.st7{fill:#FFDE85;}
	.st8{fill:#F5B8AD;}
	.st9{fill:#FFFFFF;}
	.st10{fill:#634AC9;}
	.st11{fill:#4F36BD;}
	.st12{fill:#FF5C40;}
	.st13{fill:#E83D24;}
	.st14{fill:#F0B51C;}
	.st15{fill:#FFA32E;}
</style>
<g>
	<g>
		<path class="st0" d="M254.9,257.5c0,0,44.3-11.4,32.1-37.5c-5.1-11-17.2-8.8-17.2-8.8s48.7-41.9,2.3-60.8
			c-17.1-7-13.5,32.7-13.5,32.7s-9-14.4-15.8-8.1c-6.8,6.4-1.8,27.5-1.8,27.5s-17.3-17-34.3-1.9c-17,15.1-34.4,56.8-34.4,56.8
			L254.9,257.5z"/>
		<path class="st1" d="M221.5,252.2C221.6,252.2,221.6,252.2,221.5,252.2c21.7-14.1,35.1-37.1,42.5-53.9c8-18.2,11-33.3,11-33.5
			c0-0.1,0-0.2-0.1-0.2c-0.1,0-0.2,0-0.2,0.1c0,0.1-3,15.2-11,33.4c-7.4,16.8-20.7,39.7-42.3,53.7c-0.1,0-0.1,0.2,0,0.2
			C221.4,252.2,221.5,252.2,221.5,252.2"/>
		<path class="st1" d="M232.9,244.7c5.3,0,23.8-0.7,37.6-10.2c0.1-0.1,0.1-0.2,0-0.2c-0.1-0.1-0.2-0.1-0.2,0
			c-16,11.1-38.6,10.2-38.8,10.2c-0.1,0-0.2,0.1-0.2,0.2c0,0.1,0.1,0.2,0.2,0.2C231.5,244.7,232,244.7,232.9,244.7"/>
		<path class="st1" d="M267.6,189.3C267.6,189.3,267.6,189.3,267.6,189.3c0.1,0,0.2-0.1,0.2-0.2c0-0.1-4.9-11.9-3-22.2
			c0-0.1,0-0.2-0.1-0.2c-0.1,0-0.2,0-0.2,0.1c-2,10.5,2.9,22.3,3,22.4C267.4,189.3,267.5,189.3,267.6,189.3"/>
		<path class="st1" d="M239.4,235.7C239.4,235.7,239.4,235.7,239.4,235.7c0.1,0,0.2-0.1,0.2-0.2c0-0.1-2.9-7.2-1.2-15.7
			c0-0.1,0-0.2-0.1-0.2c-0.1,0-0.2,0-0.2,0.1c-1.7,8.6,1.2,15.8,1.3,15.9C239.3,235.7,239.3,235.7,239.4,235.7"/>
		<path class="st1" d="M25.6,257.4c0,0-34.9-42.2-21.6-55c13.3-12.8,23.5,7.4,23.5,7.4s-9.5-63.1,27.8-62.3
			c37.3,0.8-3.5,45.8-3.5,45.8s13.6-13,19.3-6.1c5.7,6.9-2.3,21.2-12.5,21.8c0,0,47.6-9.6,51.1,9.7c3.5,19.3-7.8,38.6-7.8,38.6
			L25.6,257.4z"/>
		<path class="st0" d="M57.2,254.1c0,0-0.1,0-0.1-0.1c-7.1-7.4-11.9-16.7-14.1-27.8c-1.8-8.9-1.9-18.9-0.4-29.7
			c2.5-18.4,8.9-33.1,8.9-33.3c0-0.1,0.1-0.1,0.2-0.1c0.1,0,0.1,0.1,0.1,0.2c-0.1,0.1-6.4,14.8-8.9,33.2c-2.3,17-1.6,40.6,14.4,57.2
			c0.1,0.1,0.1,0.2,0,0.2C57.3,254.1,57.2,254.1,57.2,254.1"/>
		<path class="st0" d="M43.7,240.3c-2.1,0-4.8-0.2-7.8-0.8c-6-1.3-14.3-4.8-19.9-14.1c0-0.1,0-0.2,0.1-0.2c0.1,0,0.2,0,0.2,0.1
			c5.6,9.2,13.8,12.6,19.7,13.9c6.4,1.4,11.6,0.6,11.6,0.6c0.1,0,0.2,0,0.2,0.1c0,0.1,0,0.2-0.1,0.2
			C47.6,240.1,46.1,240.3,43.7,240.3"/>
		<path class="st0" d="M41.7,212C41.7,212,41.7,212,41.7,212c-0.2-0.1-0.2-0.2-0.1-0.3c0.1-0.1,6.1-9.6,20-15.8c0.1,0,0.2,0,0.2,0.1
			c0,0.1,0,0.2-0.1,0.2c-13.8,6.1-19.8,15.6-19.8,15.7C41.8,212,41.8,212,41.7,212"/>
		<path class="st1" d="M287.5,258.3H9.9c-0.3,0-0.5-0.3-0.5-0.7c0-0.4,0.2-0.7,0.5-0.7h277.5c0.3,0,0.5,0.3,0.5,0.7
			C288,257.9,287.8,258.3,287.5,258.3"/>
		<path class="st2" d="M141.7,46.3c0,0-0.1-0.1-0.1-0.1l-26.2,8.6l-0.6,7.5c10.3-1.3,20-4.8,29.5-8.7
			C143.7,51.2,142.9,48.7,141.7,46.3"/>
		<path class="st3" d="M114.8,62.3l-0.2,3.1l30.8-5.7c-0.2-2.1-0.5-4.1-1-6.1C134.8,57.6,125.1,61.1,114.8,62.3"/>
		<path class="st3" d="M141.7,46.3c2.2,4.2,3.2,8.8,3.6,13.4l1.3-0.2C146.2,54.7,144.7,50.1,141.7,46.3"/>
		<path class="st3" d="M178.3,30.1l-11.6-5.7c0,0,1.8,3.5,2.2,8.4c3.2-0.1,6.3-0.9,9.3-2.2L178.3,30.1z"/>
		<path class="st2" d="M169,32.8c0.3,3.3-0.2,7.2-2.2,11c-5.1,9.6,9.9-1.4,9.9-1.4l1.6-11.8C175.3,31.8,172.2,32.6,169,32.8"/>
		<path class="st2" d="M173.9,24.8c1-1.8,0.3-4.1-1.3-5.4c-2.4-2-5-3-7.3-4.7c-2.2,3.3-6.5,10.3-5.2,12.7c0.7,1.3,3.8,2.1,7.4,2.5
			C170.3,28.9,172.7,27.2,173.9,24.8"/>
		<path class="st3" d="M166.6,12.9c0,0-0.5,0.7-1.2,1.8c2.3,1.7,4.9,2.7,7.3,4.7c1.5,1.3,2.3,3.6,1.3,5.4c-1.2,2.4-3.6,4.1-6.3,5.1
			c5.7,0.7,12.8,0.4,14.7-0.7C185.6,27.4,194.4,2.7,166.6,12.9"/>
		<path class="st4" d="M181.2,17.3c0,0-8.2,3.4-18.6-5.3c-10.4-8.7,6.6-17.2,20.2-8c13.7,9.2,5.1,21.5,5.1,21.5s10.8,3.7,10.8,15.9
			c0,12.2-17.7,17-17.7,17s-10.4-20.4-0.2-38.2c0,0,5.6-1.4,3.4-4S181.2,17.3,181.2,17.3"/>
		<path class="st5" d="M153.1,111.5l-6-2.8c0,0-16.6,40.8-30.5,88c2.3,2,5.6,3.2,8.6,3.9c2.1,0.4,4.2,0.5,6.2,0.3
			c1.9-4.8,3.7-9.7,5.3-14.7C144.4,161.5,150.7,136.8,153.1,111.5"/>
		<path class="st4" d="M167.7,118.4l-14.6-6.9c-2.3,25.3-8.7,50-16.3,74.7c-1.6,5-3.4,9.9-5.3,14.7c1.4-0.1,2.8-0.3,4.1-0.7
			C149.3,174.3,163.1,143.7,167.7,118.4"/>
		<path class="st4" d="M102.6,253.9c-0.1,0.8-0.3,1.5-0.4,2.3c0,0,5.2-7.7,12.7-19.9c-0.4,0-0.8-0.1-1.2-0.2c-0.9,1.5-1.8,3-2.6,4.5
			C108.3,245.2,105.4,249.6,102.6,253.9"/>
		<path class="st5" d="M102.6,253.9c2.8-4.3,5.6-8.7,8.5-13.3c0.9-1.5,1.8-3,2.6-4.5c-2.5-0.4-4.9-1.5-6.7-3.2
			C105.3,240,103.9,247,102.6,253.9"/>
		<path class="st3" d="M114.9,236.3c5.9-9.7,13.3-22.2,20.6-36c-1.3,0.3-2.7,0.6-4.1,0.7c-4.9,12.1-11,23.6-17.7,35.2
			C114.1,236.2,114.5,236.2,114.9,236.3"/>
		<path class="st2" d="M125.2,200.6c-3-0.7-6.3-1.9-8.6-3.9c-3.5,11.9-6.8,24.1-9.6,36.2c1.8,1.7,4.2,2.7,6.7,3.2
			c6.7-11.6,12.7-23,17.7-35.2C129.4,201.1,127.3,201,125.2,200.6"/>
		<path class="st2" d="M197.4,200.1c-5,2.2-10.4,2.9-15.4,0.9c5.2,13.5,10.6,25.7,14.9,35.1c2,0.1,3.9-0.2,5.8-0.8
			C200.9,223.6,199.2,211.8,197.4,200.1"/>
		<path class="st3" d="M205.3,234.3c-1.1-12.1-2.6-24.3-4.4-36.1c-1.1,0.7-2.3,1.3-3.5,1.8c1.8,11.7,3.5,23.5,5.4,35.2
			C203.6,235,204.5,234.7,205.3,234.3"/>
		<path class="st4" d="M206.7,256.2c-0.3-7.2-0.7-14.5-1.4-21.8c-0.8,0.4-1.7,0.7-2.5,0.9c1,6.6,2.1,13.2,3.3,19.8
			C206.5,255.8,206.7,256.2,206.7,256.2"/>
		<path class="st5" d="M196.9,236.1c4.4,9.6,7.9,16.4,9.2,19c-1.2-6.6-2.3-13.2-3.3-19.8C200.9,235.9,198.9,236.2,196.9,236.1"/>
		<path class="st4" d="M200.9,198.3c-5.1-34.3-12.3-65.1-16.1-80.6c-2.1,0.6-4.3,1.1-6.5,1.4c9.7,26.3,14.8,53.5,19.1,80.9
			C198.6,199.5,199.8,198.9,200.9,198.3"/>
		<path class="st5" d="M178.3,119.1c-10.5,1.7-21.4,0.4-30.9-4.6c2.3,7.5,14,14.5,15.5,22.7c4,21.4,11.5,44,19.1,63.7
			c4.9,2,10.3,1.3,15.4-0.9C193.1,172.7,188,145.5,178.3,119.1"/>
		<path class="st4" d="M184.8,117.7c-1.7-6.7-2.7-10.5-2.7-10.5l-35,5.1c0,0.7,0.2,1.5,0.4,2.2C158.9,120.6,172.4,121.2,184.8,117.7
			"/>
		<path class="st2" d="M177.2,45.4c0.1,0,0.2-0.1,0.3-0.1c3.4-1.2,6.7-2.7,9.6-4.8c-6.2-2.8-12.7-4.5-12.7-4.5l-14.7,4.3
			C163.7,46,170.5,46.6,177.2,45.4"/>
		<path class="st3" d="M159.8,40.3l-0.8,0.2c3,6.7,11.9,6.7,18.2,4.9C170.5,46.6,163.7,46,159.8,40.3"/>
		<path class="st6" d="M149.3,73.4c0,0-0.1,1.6,0,4.1c3.9-1.9,7.4-5,10.3-8c-7.2,2.8-16.9,0.8-19.8-7.2c-0.4-1.3-0.6-2.6-0.6-4
			c0,0-0.1,0.1-0.1,0.1C137.3,61.3,139.3,71.3,149.3,73.4"/>
		<path class="st7" d="M159.8,63.6c1.3,2.3,4.1,2.8,6.4,3.1c3.3,0.5,7.7-0.5,8.5-4.1c1.3-5.1-5.1-7.2-9.5-7.2
			c7.8-1.9,17.5-2,23.4,3.9c1.3-3,2.7-6,4.3-8.8l-36.7-2.7l-3.5,6.8c0,0-11.3,1-13.4,3.7c0,1.3,0.2,2.7,0.6,4
			c2.8,8,12.6,10,19.8,7.2c-3,3-6.4,6.1-10.3,8c0.2,3.8,0.9,9.3,3.6,13.5c4.4,6.7-10.3,20.4-10.3,20.4s0.9,0.8,2.7,1.8
			c8.9,3.9,20.6-1.5,26.1-9.5c7.3-10.2,9.9-21.5,13.3-32.8C175.9,74.6,164.1,72.7,159.8,63.6"/>
		<path class="st6" d="M196.8,50.7l-3.9-0.3c-1.6,2.8-3.1,5.8-4.3,8.8c0.5,0.5,1,1.1,1.5,1.7c-0.5-0.6-1-1.2-1.5-1.7
			c-1,2.3-1.8,4.7-2.6,7.1c-0.5,1.5-0.9,2.9-1.3,4.4c1.8-0.8,3.4-1.8,4.9-3C193.4,58.6,196.8,50.7,196.8,50.7"/>
		<path class="st6" d="M180,91.2c1.8-5,5.9-14.8,9.6-23.5c-1.4,1.2-3.1,2.3-4.9,3c-3.4,11.3-6,22.6-13.3,32.8
			c-5.6,8-17.2,13.4-26.1,9.5c6.3,3.7,23.2,10.9,45-1.8C190.2,111.3,176.3,101.5,180,91.2"/>
		<path class="st6" d="M188.6,59.2c-5.9-5.9-15.6-5.8-23.4-3.9c4.4,0,10.8,2.1,9.5,7.2c-0.8,3.6-5.1,4.6-8.5,4.1
			c-2.3-0.3-5.1-0.8-6.4-3.1c5,11.7,14.4,13.5,24.8,7.2c0.4-1.5,0.9-2.9,1.3-4.4C186.8,63.9,187.6,61.6,188.6,59.2"/>
		<path class="st7" d="M197.9,48.8c-1.3-3.2-5.9-6-10.8-8.2c-2.9,2.1-6.3,3.5-9.6,4.8c-6.3,2-15.5,2-18.6-4.8l-1.2,0.3l-16.2,5.3
			c3.1,3.8,4.6,8.4,5.1,13.3l5.8-1.1l31-2.7l-7,8.3c4.7,0.4,8.4,3.4,10.9,7.3c4.9-6.4,9-13.4,10.8-21.2
			C198.2,49.6,198.1,49.2,197.9,48.8"/>
		<path class="st6" d="M187.4,71.3c0.4,0.6,0.7,1.2,1,1.8c6.3-9.2,10.2-18.4,9.8-23C196.4,57.9,192.3,64.8,187.4,71.3"/>
	</g>
	<rect x="57.3" y="16.4" class="st8" width="74.4" height="110.8"/>
	<rect x="63.6" y="22.3" class="st9" width="61" height="99.1"/>
	<g>
		<path class="st3" d="M187.4,74.5c0.3-0.5,0.7-0.9,1-1.4c-2.4-4.8-6.6-8.6-12-9.1l-0.2,0.2C181.4,65.6,185,69.8,187.4,74.5"/>
		<path class="st2" d="M114.2,103.1c1.8,4.4,4.4,10,10,9c4.1-0.8,5.4-5.4,4.4-9c17.7-4.9,36.9-7.4,50.3-21.8
			c2.6-2.8,5.2-5.7,7.6-8.7c-2.4-3.9-5.6-7.2-10.1-8.4l-16.9,20.1l-30.8,7.4c0,0-7.4,0-11.1,1.3c-6.5,2.3-18.6,8.9-21.1,12.5
			C101.6,107.5,108.7,104.4,114.2,103.1"/>
		<path class="st3" d="M178.8,81.3c-13.3,14.4-32.6,16.9-50.3,21.8c1,3.6-0.3,8.2-4.4,9c-5.6,1-8.2-4.6-10-9
			c-5.4,1.3-12.5,4.4-17.8,2.4c-0.5,0.7-0.6,1.3-0.2,1.7c2.2,2.5,14.9-1.5,14.9-1.5s3.1,10.8,12.7,10.1c9.6-0.7,7.6-9.7,7.6-9.7
			l34.4-11.1c8.2-4.3,15.9-12.2,21.7-20.4c-0.3-0.7-0.7-1.3-1.1-1.9C184,75.6,181.4,78.5,178.8,81.3"/>
		<path class="st9" d="M161.6,23.1l5.6,1.5c0,0-2.3,2.7-4.1,2.4C161.2,26.6,161.6,23.1,161.6,23.1"/>
	</g>
	<polygon class="st6" points="146,55.5 152.6,54.6 156.7,47.1 145.3,53.2 	"/>
	<g>
		<path class="st5" d="M104.8,28H81.6c-0.6,0-1-0.5-1-1c0-0.6,0.5-1,1-1h23.3c0.6,0,1,0.5,1,1C105.9,27.5,105.4,28,104.8,28"/>
		<path class="st5" d="M96.3,34H67.7c-0.1,0-0.3-0.1-0.3-0.3s0.1-0.3,0.3-0.3h28.6c0.1,0,0.3,0.1,0.3,0.3S96.5,34,96.3,34"/>
		<path class="st5" d="M117.5,34h-16.8c-0.1,0-0.3-0.1-0.3-0.3s0.1-0.3,0.3-0.3h16.8c0.1,0,0.3,0.1,0.3,0.3S117.6,34,117.5,34"/>
		<path class="st5" d="M78.1,38.3H67.7c-0.1,0-0.3-0.1-0.3-0.3s0.1-0.3,0.3-0.3h10.4c0.1,0,0.3,0.1,0.3,0.3S78.3,38.3,78.1,38.3"/>
		<path class="st5" d="M117.5,38.3H83c-0.1,0-0.3-0.1-0.3-0.3s0.1-0.3,0.3-0.3h34.5c0.1,0,0.3,0.1,0.3,0.3S117.6,38.3,117.5,38.3"/>
		<path class="st5" d="M109.1,42.6H67.7c-0.1,0-0.3-0.1-0.3-0.3s0.1-0.3,0.3-0.3h41.4c0.1,0,0.3,0.1,0.3,0.3S109.2,42.6,109.1,42.6"
			/>
		<path class="st5" d="M117.5,46.7H76.3c-0.1,0-0.3-0.1-0.3-0.3c0-0.1,0.1-0.3,0.3-0.3h41.2c0.1,0,0.3,0.1,0.3,0.3
			C117.7,46.6,117.6,46.7,117.5,46.7"/>
		<path class="st5" d="M117.5,50.7H83c-0.1,0-0.3-0.1-0.3-0.3c0-0.1,0.1-0.3,0.3-0.3h34.5c0.1,0,0.3,0.1,0.3,0.3
			C117.7,50.6,117.6,50.7,117.5,50.7"/>
		<path class="st5" d="M96.9,54.8H83.8c-0.1,0-0.3-0.1-0.3-0.3c0-0.1,0.1-0.3,0.3-0.3h13.1c0.1,0,0.3,0.1,0.3,0.3
			C97.1,54.7,97,54.8,96.9,54.8"/>
		<path class="st5" d="M117.5,54.8h-15.2c-0.1,0-0.3-0.1-0.3-0.3c0-0.1,0.1-0.3,0.3-0.3h15.2c0.1,0,0.3,0.1,0.3,0.3
			C117.7,54.7,117.6,54.8,117.5,54.8"/>
		<path class="st5" d="M117.5,58.7H84.6c-0.1,0-0.3-0.1-0.3-0.3c0-0.1,0.1-0.3,0.3-0.3h32.8c0.1,0,0.3,0.1,0.3,0.3
			C117.7,58.6,117.6,58.7,117.5,58.7"/>
		<path class="st5" d="M117.5,63H70.6c-0.1,0-0.3-0.1-0.3-0.3s0.1-0.3,0.3-0.3h46.9c0.1,0,0.3,0.1,0.3,0.3S117.6,63,117.5,63"/>
		<path class="st5" d="M88.4,66.7H69.1c-0.1,0-0.3-0.1-0.3-0.3s0.1-0.3,0.3-0.3h19.3c0.1,0,0.3,0.1,0.3,0.3S88.5,66.7,88.4,66.7"/>
		<path class="st5" d="M104.3,71.5H69.1c-0.1,0-0.3-0.1-0.3-0.3c0-0.1,0.1-0.3,0.3-0.3h35.2c0.1,0,0.3,0.1,0.3,0.3
			C104.6,71.4,104.5,71.5,104.3,71.5"/>
		<path class="st5" d="M117.5,76.3H69.1c-0.1,0-0.3-0.1-0.3-0.3s0.1-0.3,0.3-0.3h48.4c0.1,0,0.3,0.1,0.3,0.3S117.6,76.3,117.5,76.3"
			/>
		<path class="st10" d="M73.9,110.8c0.5,2.3,0.5,5.3,2.2,6.7l0.6-0.7v-8.3h-4.1v0.1C73.3,109.1,73.7,109.8,73.9,110.8"/>
		<path class="st11" d="M73.9,110.8c-0.2-0.9-0.7-1.7-1.3-2.2v8.3l2.1,2.5l1.5-1.8C74.4,116,74.4,113,73.9,110.8"/>
		<path class="st10" d="M82.9,114.9c0.3,1,1,1.8,1.8,2.3l0.4-0.4v-8.3h-4.4v0.2C82.4,110,82.3,112.9,82.9,114.9"/>
		<path class="st11" d="M82.9,114.9c-0.6-2-0.5-4.9-2.2-6.2v8.1l2.2,2.5l1.8-2.1C83.9,116.6,83.3,115.8,82.9,114.9"/>
		<path class="st12" d="M81.5,117.8v-9.3H76v0.2c1.4,1.4,1.6,4,2.2,5.9C78.8,116.1,80,117.2,81.5,117.8"/>
		<path class="st13" d="M78.2,114.5c-0.6-1.9-0.8-4.4-2.2-5.9v9.5l2.7,2.6l2.8-2.6v-0.3C80,117.2,78.8,116.1,78.2,114.5"/>
		<path class="st6" d="M86.2,104.4c0,4.1-3.4,7.5-7.5,7.5c-4.1,0-7.5-3.4-7.5-7.5c0-4.1,3.4-7.5,7.5-7.5
			C82.9,96.9,86.2,100.3,86.2,104.4"/>
		<path class="st14" d="M78.7,96.9c-0.3,0-0.6,0-0.9,0.1c0,0,0,0,0,0c4.1,0,7.5,3.4,7.5,7.5c0,3.8-2.9,7-6.6,7.5
			c4.1,0,7.5-3.4,7.5-7.5C86.2,100.3,82.9,96.9,78.7,96.9"/>
		<path class="st7" d="M83.6,104.4c0,2.7-2.2,4.8-4.8,4.8c-2.7,0-4.8-2.2-4.8-4.8c0-2.7,2.2-4.8,4.8-4.8
			C81.4,99.6,83.6,101.8,83.6,104.4"/>
		<path class="st15" d="M80.2,104.4c0,0.8-0.6,1.4-1.4,1.4c-0.8,0-1.4-0.6-1.4-1.4c0-0.8,0.6-1.4,1.4-1.4
			C79.5,103,80.2,103.6,80.2,104.4"/>
		<path class="st14" d="M79.3,108.7c-2.7,0-4.8-2.2-4.8-4.8c0-1.2,0.4-2.3,1.1-3.1c-1,0.9-1.7,2.2-1.7,3.7c0,2.7,2.2,4.8,4.8,4.8
			c1.5,0,2.8-0.7,3.7-1.7C81.6,108.2,80.5,108.7,79.3,108.7"/>
		<path class="st5" d="M102.4,111.5H87.5c-0.5,0-0.8-0.4-0.8-0.8s0.4-0.8,0.8-0.8h14.9c0.5,0,0.8,0.4,0.8,0.8
			S102.9,111.5,102.4,111.5"/>
	</g>
</g>
</svg>
