<?xml version="1.0" encoding="utf-8"?>
<!-- Generator: Adobe Illustrator 24.0.2, SVG Export Plug-In . SVG Version: 6.00 Build 0)  -->
<svg version="1.1" id="Layer_1" xmlns="http://www.w3.org/2000/svg" xmlns:xlink="http://www.w3.org/1999/xlink" x="0px" y="0px"
	 viewBox="0 0 720 465" style="enable-background:new 0 0 720 465;" xml:space="preserve">
<style type="text/css">
	.st0{opacity:0.8;}
	.st1{opacity:0.4;fill:url(#SVGID_1_);}
	.st2{opacity:0.8;fill:url(#SVGID_2_);}
	.st3{fill:url(#SVGID_3_);}
	.st4{fill:url(#SVGID_4_);}
	.st5{fill:#FFFFFF;}
	.st6{opacity:0.37;fill:#FFFFFF;}
	.st7{fill:url(#SVGID_5_);}
	.st8{fill:url(#SVGID_6_);}
	.st9{fill:url(#SVGID_7_);}
	.st10{fill:url(#SVGID_8_);}
	.st11{fill:url(#SVGID_9_);}
	.st12{fill:url(#SVGID_10_);}
	.st13{fill:url(#SVGID_11_);}
	.st14{fill:url(#SVGID_12_);}
	.st15{fill:url(#SVGID_13_);}
	.st16{fill:url(#SVGID_14_);}
	.st17{fill:#F8A570;}
	.st18{fill:url(#SVGID_15_);}
	.st19{fill:url(#SVGID_16_);}
	.st20{fill:url(#SVGID_17_);}
	.st21{fill:url(#SVGID_18_);}
	.st22{fill:url(#SVGID_19_);}
	.st23{fill:url(#SVGID_20_);}
	.st24{fill:url(#SVGID_21_);}
	.st25{fill:url(#SVGID_22_);}
	.st26{fill:url(#SVGID_23_);}
	.st27{fill:url(#SVGID_24_);}
	.st28{opacity:0.6;fill:#FFFFFF;}
	.st29{opacity:0.53;fill:url(#SVGID_25_);}
	.st30{opacity:0.53;fill:url(#SVGID_26_);}
	.st31{fill:url(#SVGID_27_);}
	.st32{fill:url(#SVGID_28_);}
	.st33{fill:url(#SVGID_29_);}
	.st34{fill:url(#SVGID_30_);}
	.st35{fill:url(#SVGID_31_);}
	.st36{fill:url(#SVGID_32_);}
	.st37{fill:url(#SVGID_33_);}
	.st38{fill:url(#SVGID_34_);}
	.st39{fill:url(#SVGID_35_);}
	.st40{fill:url(#SVGID_36_);}
	.st41{fill:url(#SVGID_37_);}
	.st42{fill:url(#SVGID_38_);}
	.st43{fill:url(#SVGID_39_);}
	.st44{fill:url(#SVGID_40_);}
	.st45{fill:url(#SVGID_41_);}
	.st46{fill:url(#SVGID_42_);}
	.st47{fill:url(#SVGID_43_);}
	.st48{fill:url(#SVGID_44_);}
	.st49{fill:url(#SVGID_45_);}
	.st50{fill:url(#SVGID_46_);}
	.st51{fill:url(#SVGID_47_);}
	.st52{fill:url(#SVGID_48_);}
	.st53{fill:url(#SVGID_49_);}
	.st54{fill:url(#SVGID_50_);}
</style>
<g>
	<g class="st0">
		<linearGradient id="SVGID_1_" gradientUnits="userSpaceOnUse" x1="-28.0304" y1="540.3787" x2="695.7957" y2="14.7429">
			<stop  offset="0" style="stop-color:#A737D5"/>
			<stop  offset="1" style="stop-color:#EF497A"/>
		</linearGradient>
		<path class="st1" d="M703.1,199.3c-18.9-26.8-58.9-41.2-59.9-81.3c-0.7-26.1,11-40.2-7.7-62.5c-45-53.8-114.4-60.2-173.7-37.7
			c-59.2,22.5-106.6,67.6-172.4,64.8c-35.9-1.5-69.2-18.8-104.7-22c-10.9-1-21.2-0.1-30.7,2.3c-35.8,9.3-67.5,44.4-79.4,83.3
			c-9.7,31.6,2.7,62.7-12.5,93.7c-16.2,33-48,55.8-56,93.9c-9.6,45.7,27.1,85.4,66.6,86.6c25.1,0.8,71.7-3.3,93.1-19.1
			c26-19.2,59.2,6.8,89.5,7.5c57.7,1.4,105.7-4.2,162.7,5.2c48.8,8.1,101.8,1.4,151.3,3c36.3,1.1,64.2,11.7,83.9-28.5
			C676.7,340.7,742.6,255.5,703.1,199.3z"/>
		<linearGradient id="SVGID_2_" gradientUnits="userSpaceOnUse" x1="181.2824" y1="247.8408" x2="758.0137" y2="197.6903">
			<stop  offset="0" style="stop-color:#A737D5"/>
			<stop  offset="1" style="stop-color:#EF497A"/>
		</linearGradient>
		<path class="st2" d="M681.6,200.6c-17.8-24.6-55.4-37.8-56.4-74.6c-0.6-24,10.3-36.9-7.2-57.4C575.7,19.2,510.4,13.4,454.6,34
			c-55.7,20.6-100.3,62-162.3,59.5c-33.8-1.4-65.1-17.3-98.5-20.2c-10.3-0.9-19.9-0.1-28.9,2.2c-33.7,8.6-63.5,40.7-74.7,76.5
			c-9.1,29,2.5,57.6-11.7,86c-15.2,30.2-45.2,51.3-52.7,86.2c-9.1,41.9,25.5,78.4,62.7,79.5c23.7,0.7,67.5-3,87.6-17.5
			c24.5-17.6,67.1,9.5,95.7,10.1c54.3,1.3,88.9-5.5,142.5,3.1c45.9,7.4,92.3,9,138.8,10.4c34.2,1,63.2,1.5,81.7-35.4
			C656.8,330.4,718.9,252.2,681.6,200.6z"/>
	</g>
	<g>
		<g>
			<linearGradient id="SVGID_3_" gradientUnits="userSpaceOnUse" x1="313.838" y1="390.1234" x2="421.2769" y2="67.8059">
				<stop  offset="0" style="stop-color:#2B3582"/>
				<stop  offset="1" style="stop-color:#150E42"/>
			</linearGradient>
			<path class="st3" d="M591.3,401.8c0,4.6-3.8,8.4-8.4,8.4H127.9c-4.6,0-8.4-3.8-8.4-8.4l-3.8-261.4c0-4.6,5.4-13.6,15.4-13
				l444.6-11.5c5.8-0.2,11.4,2.1,15.5,6.2c4.1,4.1,6.4,9.7,6.2,15.5L591.3,401.8z"/>
			<linearGradient id="SVGID_4_" gradientUnits="userSpaceOnUse" x1="-77.3732" y1="443.4213" x2="648.0632" y2="154.9609">
				<stop  offset="0" style="stop-color:#53D8FF"/>
				<stop  offset="1" style="stop-color:#3840F7"/>
			</linearGradient>
			<path class="st4" d="M582.9,393.8c0,4.4-3.6,8-8,8H138.9c-4.4,0-8-3.6-8-8l-3.6-237.3c0.4-14.3,12.9-19.4,20.5-19.1L574,125.9
				c4.1-0.1,8,1.5,10.9,4.3c2.9,2.9,4.5,6.8,4.4,10.9L582.9,393.8z"/>
			<g>
				<path class="st5" d="M135.7,280.6c-0.4,0-0.7-0.3-0.7-0.7l-0.3-19.2c0-0.4,0.3-0.7,0.7-0.7c0,0,0,0,0,0c0.4,0,0.7,0.3,0.7,0.7
					l0.3,19.2C136.4,280.2,136.1,280.6,135.7,280.6C135.7,280.6,135.7,280.6,135.7,280.6z"/>
				<path class="st5" d="M135,233.4c-0.4,0-0.7-0.3-0.7-0.7l-1.1-73.7c0-4.9,1.5-8.9,4.5-11.8c5.4-5.2,13.9-4.9,14.3-4.9l136.1-3.7
					c0,0,0,0,0,0c0.4,0,0.7,0.3,0.7,0.7c0,0.4-0.3,0.7-0.7,0.7L152,143.7c-0.4,0-8.3-0.3-13.3,4.5c-2.7,2.6-4.1,6.2-4.1,10.7
					l1.1,73.7C135.7,233.1,135.4,233.4,135,233.4C135,233.4,135,233.4,135,233.4z"/>
			</g>
			<path class="st6" d="M150.2,380.6c0.5-19.6,0.3-193.3-0.8-208.3c-1.1-15,22.2-17.8,58.1-19.5c35.9-1.7,338.5-8.4,346.3-9
				c17.5-1.4,21.1,24.8,19.4,81.6c-1.3,42.7-3.5,113-4.5,145.4c-0.3,9.6-8.2,17.3-17.8,17.3c-72.8,0.2-352,1-370.5,1.6
				C158.9,390.2,150,388.4,150.2,380.6z"/>
		</g>
		<linearGradient id="SVGID_5_" gradientUnits="userSpaceOnUse" x1="562.5901" y1="371.1584" x2="87.0804" y2="486.8228">
			<stop  offset="0" style="stop-color:#2B3582"/>
			<stop  offset="1" style="stop-color:#150E42"/>
		</linearGradient>
		<path class="st7" d="M618.9,431.9H101.1c-5.1,0-9.3-4.2-9.3-9.3v-4.4c0-5.1,4.2-9.3,9.3-9.3h517.7c5.1,0,9.3,4.2,9.3,9.3v4.4
			C628.2,427.7,624,431.9,618.9,431.9z"/>
	</g>
	<g>
		<linearGradient id="SVGID_6_" gradientUnits="userSpaceOnUse" x1="157.4892" y1="548.7108" x2="301.0199" y2="302.3517">
			<stop  offset="0" style="stop-color:#FDF53F"/>
			<stop  offset="1" style="stop-color:#D93C65"/>
		</linearGradient>
		<path class="st8" d="M277.2,401.7c3.7-23,6.3-39.4,6.3-39.4l-49.2-3.7c-4,5.8-11.1,22.4-19.2,43.1H277.2z"/>
		<g>
			<linearGradient id="SVGID_7_" gradientUnits="userSpaceOnUse" x1="219.7114" y1="464.4954" x2="274.3309" y2="371.3209">
				<stop  offset="0" style="stop-color:#FDF53F"/>
				<stop  offset="1" style="stop-color:#D93C65"/>
			</linearGradient>
			<path class="st9" d="M253.7,401.7l5.8-9.2l7.7-1.5c0.4-0.1,0.6-0.5,0.6-0.8c-0.1-0.4-0.5-0.6-0.8-0.6l-8,1.6
				c-0.2,0-0.4,0.2-0.5,0.3l-6.4,10.2H253.7z"/>
		</g>
		<linearGradient id="SVGID_8_" gradientUnits="userSpaceOnUse" x1="383.4312" y1="208.5401" x2="320.7913" y2="290.0328">
			<stop  offset="0" style="stop-color:#F9B776"/>
			<stop  offset="1" style="stop-color:#F47960"/>
		</linearGradient>
		<path class="st10" d="M416.7,184.5c0,0-19.6,4.3-31.5,9.8c-2.4,1.1-4.3,3-5.3,5.4c-3.6,7.8-14.2,27.4-34.9,36.7
			c3,4,7.8,12.2,9.9,26c12.4-9.2,23.1-24.7,28.3-50c0,0,3.9,2.1,8.8-0.2c2.6-1.3,5.6-3,7.8-4.4c2.2-1.4,3.9-3.6,4.5-6.1
			c0.9-3.3,0.4-6.3,0.4-9.4l10.1-3.1C414.7,189.1,417.7,188,416.7,184.5z"/>
		<linearGradient id="SVGID_9_" gradientUnits="userSpaceOnUse" x1="309.1221" y1="227.6296" x2="99.991" y2="475.4888">
			<stop  offset="0" style="stop-color:#A737D5"/>
			<stop  offset="1" style="stop-color:#EF497A"/>
		</linearGradient>
		<path class="st11" d="M354.9,262.4c-2.1-13.8-6.9-22-9.9-26c-12.8,5.8-29.6,7.7-50.8,0.3c-2-0.7-4-1.1-6.1-1.2
			c-11.3-0.7-48.6-1.9-79.5,8.3c-6.5,2.1-11.8,7-14.5,13.2c-8.4,19.2-21.9,62.8,15.7,84.9c2.9-7.2,6.2-12.9,9.1-17.1
			c-6-10.2-7.8-24.1,2.9-42.3c7.8,21.1,11.5,52,12.3,65.6c0.3,4.5-0.5,9-2.3,13.1l-0.2,0.5c-0.4,0.9,0.1,1.9,1.1,2.1
			c21.1,4.7,43.1,3.5,49.7,2.9c1.2-0.1,2.1-0.9,2.4-2.1c10.3-43.3,10.3-72.9,7.8-91.5C302.1,275.2,331.5,279.8,354.9,262.4z"/>
		<g>
			<g>
				<linearGradient id="SVGID_10_" gradientUnits="userSpaceOnUse" x1="284.2888" y1="260.0953" x2="293.2213" y2="260.0953">
					<stop  offset="0" style="stop-color:#CE1567"/>
					<stop  offset="1" style="stop-color:#7A1DBC"/>
				</linearGradient>
				<path class="st12" d="M292.5,274.1c-0.4,0-0.7-0.3-0.7-0.6c-2.4-18.3-7.3-26.3-7.4-26.3c-0.2-0.3-0.1-0.8,0.2-1
					c0.3-0.2,0.8-0.1,1,0.2c0.2,0.3,5.1,8.3,7.6,26.9C293.3,273.7,293,274.1,292.5,274.1C292.6,274.1,292.5,274.1,292.5,274.1z"/>
			</g>
		</g>
		<linearGradient id="SVGID_11_" gradientUnits="userSpaceOnUse" x1="243.8083" y1="261.21" x2="250.6612" y2="225.2324">
			<stop  offset="0" style="stop-color:#F9B776"/>
			<stop  offset="1" style="stop-color:#F47960"/>
		</linearGradient>
		<path class="st13" d="M240.3,210.3c0,0-2.1,22.6-4,29.3c-0.3,1,0.2,2.1,1.1,2.6c3.2,1.8,10.9,4.8,21.3-0.3
			c1.7-0.8,2.7-2.6,2.6-4.5l-0.9-21.8L240.3,210.3z"/>
		<g>
			<linearGradient id="SVGID_12_" gradientUnits="userSpaceOnUse" x1="262.3512" y1="195.2023" x2="223.2512" y2="225.1198">
				<stop  offset="0" style="stop-color:#F9B776"/>
				<stop  offset="1" style="stop-color:#F47960"/>
			</linearGradient>
			<path class="st14" d="M260.9,181.4c0,0,6.8,15.7,7.3,24c0.5,8.2,2.2,13.6-7.3,15.3c-9.5,1.7-17.6-3.1-21.9-11.3
				c0,0-6.8-12.7-5.3-17.8C235.2,186.3,260.9,181.4,260.9,181.4z"/>
			<linearGradient id="SVGID_13_" gradientUnits="userSpaceOnUse" x1="234.8266" y1="171.5142" x2="271.242" y2="218.399">
				<stop  offset="0" style="stop-color:#2B3582"/>
				<stop  offset="1" style="stop-color:#150E42"/>
			</linearGradient>
			<path class="st15" d="M242.3,203.4l0.5-0.2c0.7-0.3,1-1.1,0.6-1.8c-1.3-2.6-4-8.6-0.6-9.9c4.4-1.8,21.7-5.3,25.4-11.4
				c3.6-5.9,0.4-13.5-4.4-15.7c-0.3-0.1-0.7,0-0.9,0.3l-0.4,0.8c-0.3,0.5-1,0.4-1.2-0.1c-0.2-0.5-0.9-0.6-1.2-0.2
				c-1.1,1.8-4.2,4.8-12.5,6.3c-11.8,2.2-19.5,6.9-19.7,15.1c0,0.5-0.6,0.8-1,0.5c-0.9-0.5-2.3-0.8-4.1,0.8
				c-3.2,2.7-1.9,9.8,5.2,15.6c0.3,0.3,0.3,0.8,0,1c-1.3,0.8-3.2,2.8,1.8,5.5c5.1,2.7,9,2.5,10.4,2.3c0.4-0.1,0.6-0.4,0.5-0.8
				l-1.6-7.1c-0.1-0.4,0.2-0.8,0.6-0.8H242.3z"/>
			<linearGradient id="SVGID_14_" gradientUnits="userSpaceOnUse" x1="257.5014" y1="188.8638" x2="218.4013" y2="218.7813">
				<stop  offset="0" style="stop-color:#F9B776"/>
				<stop  offset="1" style="stop-color:#F47960"/>
			</linearGradient>
			<path class="st16" d="M242.6,204.9c0,0-2.6-10-7.1-7.2c-4.5,2.8,2.3,11.2,6,11.6L242.6,204.9z"/>
		</g>
		<path class="st17" d="M388.4,210c-0.2,0-0.3-0.1-0.5-0.2c-0.3-0.2-0.4-0.7-0.1-1c0.3-0.4,7.3-8.9,9.8-10.3c1-0.5,1.5-1.1,1.7-1.6
			c0.1-0.3,0-0.6-0.2-1l-7.9,1.6l-4.4,3.8c-0.3,0.3-0.7,0.2-1-0.1c-0.3-0.3-0.2-0.8,0.1-1l4.5-3.9c0.1-0.1,0.2-0.1,0.3-0.2l8.6-1.7
			c0.3-0.1,0.6,0.1,0.7,0.3c0.6,0.9,0.8,1.7,0.6,2.5c-0.2,1-1,1.8-2.3,2.6c-1.9,1.1-7.4,7.6-9.4,10C388.8,209.9,388.6,210,388.4,210
			z"/>
		<linearGradient id="SVGID_15_" gradientUnits="userSpaceOnUse" x1="278.8588" y1="315.0766" x2="262.0942" y2="340.2234">
			<stop  offset="0" style="stop-color:#F9B776"/>
			<stop  offset="1" style="stop-color:#F47960"/>
		</linearGradient>
		<path class="st18" d="M268.8,350.4c0,0,0.5,9.4-11.8,8c-6.7-0.7-17.5-7-17.5-7S267.6,351.4,268.8,350.4z"/>
		<g>
			
				<linearGradient id="SVGID_16_" gradientUnits="userSpaceOnUse" x1="-4486.7388" y1="214.7192" x2="-4548.5649" y2="231.6641" gradientTransform="matrix(-0.9988 -4.940000e-02 -4.940000e-02 0.9988 -4235.1538 -100.8238)">
				<stop  offset="0" style="stop-color:#2B3582"/>
				<stop  offset="1" style="stop-color:#150E42"/>
			</linearGradient>
			<path class="st19" d="M248.6,355.6c0.1,0,0.1,0,0.2,0l76.7-0.1c1.9,0,3.4-1.5,3.4-3.4c0-1.9-1.5-3.4-3.4-3.4l-76.7,0.1
				c-1.9,0-3.4,1.5-3.4,3.4C245.3,354.1,246.8,355.5,248.6,355.6z"/>
			
				<linearGradient id="SVGID_17_" gradientUnits="userSpaceOnUse" x1="-4532.1714" y1="295.8305" x2="-4575.7817" y2="341.924" gradientTransform="matrix(-1 0 0 1 -4212.7358 0)">
				<stop  offset="0" style="stop-color:#2B3582"/>
				<stop  offset="1" style="stop-color:#150E42"/>
			</linearGradient>
			<path class="st20" d="M394.5,286.7h-63.9c-4.7,0-9,2.7-11,6.9l-29.5,62h79.4c3,0,5.8-1.8,6.9-4.6l22.9-57.4
				C400.6,290.3,398.1,286.7,394.5,286.7z"/>
			
				<linearGradient id="SVGID_18_" gradientUnits="userSpaceOnUse" x1="-4558.6157" y1="307.3511" x2="-4578.3291" y2="337.037" gradientTransform="matrix(-1 0 0 1 -4212.7358 0)">
				<stop  offset="0" style="stop-color:#FDF53F"/>
				<stop  offset="1" style="stop-color:#D93C65"/>
			</linearGradient>
			<path class="st21" d="M349.5,318.5c-1.4,4.3-0.4,8.4,2.3,9.2c2.6,0.8,5.9-1.9,7.3-6.2c1.4-4.3,0.4-8.4-2.3-9.2
				C354.1,311.5,350.9,314.2,349.5,318.5z"/>
		</g>
		<linearGradient id="SVGID_19_" gradientUnits="userSpaceOnUse" x1="283.449" y1="316.9388" x2="266.4411" y2="342.4507">
			<stop  offset="0" style="stop-color:#F9B776"/>
			<stop  offset="1" style="stop-color:#F47960"/>
		</linearGradient>
		<path class="st22" d="M245.5,350.1c0,0,10.1-1.2,13.7-2.9s4.8,0.5,1.7,2.6c-3.1,2.1-3.7,2.1-3.7,2.1s10.6,2.8,12.9,2.8
			c2.3,0,8.9,0.4,7,1.5c-1.9,1.1-9.5,1.8-14.3,1.7c-4.8-0.1-9.5,2-22.5-6.1C242.2,349.4,245.5,350.1,245.5,350.1z"/>
		<linearGradient id="SVGID_20_" gradientUnits="userSpaceOnUse" x1="260.0025" y1="303.7625" x2="240.8275" y2="332.5249">
			<stop  offset="0" style="stop-color:#F9B776"/>
			<stop  offset="1" style="stop-color:#F47960"/>
		</linearGradient>
		<path class="st23" d="M242.2,352.8l14.4-3.2c0,0-28.7-9.4-37.8-24.9c-2.8,4.2-6.2,10-9.1,17.1
			C217.9,346.7,228.6,350.5,242.2,352.8z"/>
	</g>
	<g>
		
			<linearGradient id="SVGID_21_" gradientUnits="userSpaceOnUse" x1="506.1337" y1="-1118.3906" x2="556.9127" y2="-1118.3906" gradientTransform="matrix(0.7827 0.6224 -0.6224 0.7827 -587.695 620.5822)">
			<stop  offset="0" style="stop-color:#52F0C0"/>
			<stop  offset="1" style="stop-color:#9F71FB"/>
		</linearGradient>
		<path class="st24" d="M513.1,49.6c0,0-17.9,21.6-17.2,23.7c0.6,2.1,35.1,30.1,37.9,27.7c2.8-2.4,19-19.8,19-19.8
			C537.4,62.8,515.1,47.7,513.1,49.6z"/>
		<g>
			<path class="st5" d="M532.6,123c-7.4,0-38.3-22.4-50.1-34.4c-6.1-6.2-6.3-8.5-5.9-9.7c2.5-7.1,32.3-52.5,43.5-53.8l0.3,0l0.2,0.2
				c5.7,4.1,55.6,40.5,55.9,46.9c0.4,6.9-36.9,48.6-43.2,50.7C533.2,123,532.9,123,532.6,123z M520.1,26.6
				c-10.1,1.9-39.4,45.5-42,52.8c-0.2,0.4-0.2,2.3,5.6,8.2c12.9,13.1,43.1,34,48.9,34c0.2,0,0.4,0,0.5-0.1
				c2.7-0.9,12.8-10.9,23.5-23.3c11.2-12.9,18.8-23.6,18.7-26C574.9,68,542.2,42.7,520.1,26.6z"/>
			<path class="st5" d="M533.3,101.8c-0.4,0-0.7-0.1-1-0.2c-6.5-1.9-36.2-25.4-37-28.1c-0.7-2.2,10.6-16.2,17.4-24.4
				c0.3-0.3,0.7-0.3,1-0.1c0.3,0.3,0.3,0.7,0.1,1c-8.3,10-16.9,21.3-17.1,23.1c1.7,2.9,33.6,28.3,36.8,27.3
				c2.7-2.3,18.3-19,18.5-19.2c0.3-0.3,0.7-0.3,1,0c0.3,0.3,0.3,0.7,0,1c-0.6,0.7-15.8,16.9-18.6,19.3
				C534,101.7,533.6,101.8,533.3,101.8z"/>
			<path class="st5" d="M548.3,83c-8.3,0-24.5-3.3-27-4.9c-3.3-2.1-10.3-25.2-8.8-28.8c0.2-0.5,0.8-1,2.3-0.5
				c6.9,2.2,39.6,28.5,38.7,32.5c-0.1,0.5-0.5,1-1.2,1.3C551.5,82.9,550.1,83,548.3,83z M513.7,50c-1,3.4,5.7,25.3,8.3,26.9
				c2.6,1.6,25.4,6.1,29.7,4.3c0.3-0.1,0.4-0.2,0.4-0.2c-0.1-1.8-12.7-13.5-26-23.4C518,51.5,514.5,50,513.7,50z M513.1,49.6
				L513.1,49.6L513.1,49.6z"/>
			<path class="st5" d="M508.5,64.5c-0.2,0-0.3-0.1-0.4-0.2c-0.3-0.2-0.4-0.7-0.1-1l1.7-2.1c0.2-0.3,0.7-0.4,1-0.1
				c0.3,0.2,0.4,0.7,0.1,1l-1.7,2.1C508.9,64.4,508.7,64.5,508.5,64.5z"/>
			<path class="st5" d="M541.7,76.1c-0.2,0-0.4-0.1-0.6-0.3c-4.1-5.1-20.9-16.9-21.1-17c-0.3-0.2-0.4-0.7-0.2-1
				c0.2-0.3,0.7-0.4,1-0.2c0.7,0.5,17.1,12,21.4,17.3c0.2,0.3,0.2,0.8-0.1,1C542,76,541.8,76.1,541.7,76.1z"/>
		</g>
	</g>
	<g>
		<linearGradient id="SVGID_22_" gradientUnits="userSpaceOnUse" x1="422.9243" y1="272.8771" x2="486.8764" y2="186.3024">
			<stop  offset="0" style="stop-color:#A737D5"/>
			<stop  offset="1" style="stop-color:#EF497A"/>
		</linearGradient>
		<path class="st25" d="M478.3,158.2c0.1-2.3-1.7-4.2-4-4.3c-7.6-0.2-24.3,1.9-39.9,22.4c-21,27.6-3.9,65.7,40.5,66.4
			c40.8,0.7,54.7-30.1,54.1-48.7c-0.1-2.4-2.5-4-4.7-3.2l-43.5,14.3c-2.2,0.7-4.5-1-4.4-3.3L478.3,158.2z"/>
		<linearGradient id="SVGID_23_" gradientUnits="userSpaceOnUse" x1="501.1704" y1="173.8387" x2="551.201" y2="101.1858">
			<stop  offset="0" style="stop-color:#A737D5"/>
			<stop  offset="1" style="stop-color:#EF497A"/>
		</linearGradient>
		<path class="st26" d="M489.1,153l-6.9,40.8c-0.4,2.2,1.8,3.8,3.8,2.9l37.4-17.3c2.5-1.1,3.7-4,2.9-6.6c-2.4-7.3-9.8-20.8-32-23.8
			C491.8,148.7,489.5,150.4,489.1,153z"/>
	</g>
	<g>
		<linearGradient id="SVGID_24_" gradientUnits="userSpaceOnUse" x1="232.4439" y1="47.4718" x2="277.9527" y2="47.4718">
			<stop  offset="0" style="stop-color:#53D8FF"/>
			<stop  offset="1" style="stop-color:#3840F7"/>
		</linearGradient>
		<path class="st27" d="M273.4,52H237c-2.5,0-4.5-2-4.5-4.5c0-2.5,2-4.5,4.5-4.5h36.4c2.5,0,4.5,2,4.5,4.5C278,50,275.9,52,273.4,52
			z"/>
		<path class="st28" d="M411.8,52H294.7c-2.5,0-4.5-2-4.5-4.5c0-2.5,2-4.5,4.5-4.5h117.1c2.5,0,4.5,2,4.5,4.5
			C416.4,50,414.3,52,411.8,52z"/>
		<linearGradient id="SVGID_25_" gradientUnits="userSpaceOnUse" x1="348.9302" y1="38.8364" x2="479.5884" y2="226.2561">
			<stop  offset="0" style="stop-color:#53D8FF"/>
			<stop  offset="1" style="stop-color:#3840F7"/>
		</linearGradient>
		<path class="st29" d="M425.9,69.8H308.8c-2.5,0-4.5-2-4.5-4.5s2-4.5,4.5-4.5h117.1c2.5,0,4.5,2,4.5,4.5S428.4,69.8,425.9,69.8z"/>
		<linearGradient id="SVGID_26_" gradientUnits="userSpaceOnUse" x1="311.574" y1="126.002" x2="404.3961" y2="66.0246">
			<stop  offset="0" style="stop-color:#53D8FF"/>
			<stop  offset="1" style="stop-color:#3840F7"/>
		</linearGradient>
		<path class="st30" d="M392.6,105.3h-83.8c-2.5,0-4.5-2-4.5-4.5c0-2.5,2-4.5,4.5-4.5h83.8c2.5,0,4.5,2,4.5,4.5
			C397.1,103.2,395.1,105.3,392.6,105.3z"/>
		<path class="st28" d="M439,87.5H321.9c-2.5,0-4.5-2-4.5-4.5c0-2.5,2-4.5,4.5-4.5H439c2.5,0,4.5,2,4.5,4.5
			C443.6,85.5,441.5,87.5,439,87.5z"/>
	</g>
	<g>
		<g>
			<linearGradient id="SVGID_27_" gradientUnits="userSpaceOnUse" x1="397.9327" y1="408.7519" x2="439.9348" y2="408.7519">
				<stop  offset="0" style="stop-color:#9CFFFB"/>
				<stop  offset="1" style="stop-color:#9BFFFA"/>
			</linearGradient>
			<path class="st31" d="M399.8,459.4c-0.2,0-0.5-0.1-0.7-0.2c-0.9-0.4-1.4-1.6-1-2.6l38.3-97.3c0.4-1,1.5-1.5,2.4-1
				c0.9,0.4,1.4,1.6,1,2.6l-38.3,97.3C401.1,458.9,400.5,459.4,399.8,459.4z"/>
			<linearGradient id="SVGID_28_" gradientUnits="userSpaceOnUse" x1="402.7831" y1="408.7517" x2="444.7853" y2="408.7517">
				<stop  offset="0" style="stop-color:#9CFFFB"/>
				<stop  offset="1" style="stop-color:#9BFFFA"/>
			</linearGradient>
			<path class="st32" d="M443,459.4c-0.7,0-1.4-0.5-1.7-1.2l-38.3-97.3c-0.4-1,0-2.2,1-2.6c0.9-0.4,2,0,2.4,1l38.3,97.3
				c0.4,1,0,2.2-1,2.6C443.4,459.3,443.2,459.4,443,459.4z"/>
			<linearGradient id="SVGID_29_" gradientUnits="userSpaceOnUse" x1="561.1494" y1="408.7519" x2="603.1516" y2="408.7519">
				<stop  offset="0" style="stop-color:#9CFFFB"/>
				<stop  offset="1" style="stop-color:#9BFFFA"/>
			</linearGradient>
			<path class="st33" d="M563,459.4c-0.2,0-0.5-0.1-0.7-0.2c-0.9-0.4-1.4-1.6-1-2.6l38.3-97.3c0.4-1,1.5-1.5,2.4-1
				c0.9,0.4,1.4,1.6,1,2.6l-38.3,97.3C564.4,458.9,563.7,459.4,563,459.4z"/>
			<linearGradient id="SVGID_30_" gradientUnits="userSpaceOnUse" x1="565.9996" y1="408.7517" x2="608.0016" y2="408.7517">
				<stop  offset="0" style="stop-color:#9CFFFB"/>
				<stop  offset="1" style="stop-color:#9BFFFA"/>
			</linearGradient>
			<path class="st34" d="M606.2,459.4c-0.7,0-1.4-0.5-1.7-1.2l-38.3-97.3c-0.4-1,0-2.2,1-2.6c0.9-0.4,2,0,2.4,1l38.3,97.3
				c0.4,1,0,2.2-1,2.6C606.7,459.3,606.4,459.4,606.2,459.4z"/>
		</g>
		<g>
			<linearGradient id="SVGID_31_" gradientUnits="userSpaceOnUse" x1="535.991" y1="440.6083" x2="545.7897" y2="378.9711">
				<stop  offset="0" style="stop-color:#53D8FF"/>
				<stop  offset="1" style="stop-color:#3840F7"/>
			</linearGradient>
			<rect x="537.3" y="393.8" class="st35" width="4.5" height="49"/>
			<linearGradient id="SVGID_32_" gradientUnits="userSpaceOnUse" x1="539.9052" y1="441.2305" x2="549.7039" y2="379.593">
				<stop  offset="0" style="stop-color:#53D8FF"/>
				<stop  offset="1" style="stop-color:#3840F7"/>
			</linearGradient>
			<path class="st36" d="M559.4,443.8h-39.7v-0.2c0-1.5,1.2-2.7,2.7-2.7h34C558.1,440.9,559.4,442.2,559.4,443.8z"/>
			<linearGradient id="SVGID_33_" gradientUnits="userSpaceOnUse" x1="535.1013" y1="397.2251" x2="561.8755" y2="359.7411">
				<stop  offset="0" style="stop-color:#53D8FF"/>
				<stop  offset="1" style="stop-color:#3840F7"/>
			</linearGradient>
			<path class="st37" d="M565.3,392.1c0,2.7-2.2,4.9-4.9,4.9h-40.2c-2.7,0-4.9-2.2-4.9-4.9v-4.4c0-2.7,2.2-4.9,4.9-4.9h40.2
				c2.7,0,4.9,2.2,4.9,4.9V392.1z"/>
		</g>
		<g>
			<linearGradient id="SVGID_34_" gradientUnits="userSpaceOnUse" x1="490.0541" y1="401.3637" x2="522.2896" y2="401.3637">
				<stop  offset="0" style="stop-color:#F9B776"/>
				<stop  offset="1" style="stop-color:#F47960"/>
			</linearGradient>
			<path class="st38" d="M506.1,361.1c0,0-6.7,1-14.3,6.1c-1.2,0.8-1.8,2.2-1.7,3.6c0.9,7.2,4.6,30.4,16.9,53.1
				c0.6,1.2,0.8,2.6,0.5,3.9l-2.1,9.9l-4,3.7h10.2l6.8-18.4l-2.9-0.9c-2.3-0.7-3.8-2.8-3.8-5.1l-0.3-19.7c0.3-8.8-5.4-14.9-5.4-14.9
				l16.3-0.8L506.1,361.1z"/>
			<linearGradient id="SVGID_35_" gradientUnits="userSpaceOnUse" x1="509.7778" y1="422.3684" x2="505.0364" y2="495.0689">
				<stop  offset="0" style="stop-color:#CB236D"/>
				<stop  offset="1" style="stop-color:#4C246D"/>
			</linearGradient>
			<path class="st39" d="M497.5,443.4c-0.9,1.2,10,2.8,15.5,0.2c0,0,7.7-13.3,7.7-20.2c0,0-0.6-1.4-5.1-1.1c0,0-2.6,15.8-5.3,17.5
				c-2.7,1.8-7.6,0.2-7.6,0.2S498.9,441.6,497.5,443.4z"/>
			<linearGradient id="SVGID_36_" gradientUnits="userSpaceOnUse" x1="452.2042" y1="403.5657" x2="520.2276" y2="403.5657">
				<stop  offset="0" style="stop-color:#F9B776"/>
				<stop  offset="1" style="stop-color:#F47960"/>
			</linearGradient>
			<path class="st40" d="M520.2,382.8c-0.1-0.1-17.5-2.1-17.5-2.1s0.6,5.3-1.2,12.6c-1.8,7.3-27.4,39-27.4,39l2.7,8.5
				c-8.3,2.9-16.5,3.4-24.5,1.5l16.7-10c0,0,15.6-53.1,25.1-62.6l17.5-6.1L520.2,382.8z"/>
			<linearGradient id="SVGID_37_" gradientUnits="userSpaceOnUse" x1="494.177" y1="368.0804" x2="570.3828" y2="368.0804">
				<stop  offset="0" style="stop-color:#CB236D"/>
				<stop  offset="1" style="stop-color:#4C246D"/>
			</linearGradient>
			<path class="st41" d="M559.4,351.9c0,0,10.1,15,10.9,21.8s-2.8,9.6-13.3,10.1c-10.6,0.5-38.7,0.5-38.7,0.5l-24-20.6
				c0,0,17.5-6.3,22.1-8C520.8,353.9,559.4,351.9,559.4,351.9z"/>
			<linearGradient id="SVGID_38_" gradientUnits="userSpaceOnUse" x1="464.0244" y1="419.3847" x2="459.2831" y2="492.0846">
				<stop  offset="0" style="stop-color:#CB236D"/>
				<stop  offset="1" style="stop-color:#4C246D"/>
			</linearGradient>
			<path class="st42" d="M475.7,438c0,0,2.9,2.8,0.9,5.9c0,0-22.9,4.1-29.1,2.2c0,0,1.3-2.9,8.3-6.3l-0.5,0.4
				c-0.7,0.5-0.3,1.5,0.6,1.5C460.5,441.5,470,440.6,475.7,438z"/>
		</g>
		<g>
			<linearGradient id="SVGID_39_" gradientUnits="userSpaceOnUse" x1="571.2558" y1="274.105" x2="545.2068" y2="299.5877">
				<stop  offset="0" style="stop-color:#CB236D"/>
				<stop  offset="1" style="stop-color:#4C246D"/>
			</linearGradient>
			<path class="st43" d="M539.1,267.9c1.5,0.5,7,2.4,6.3,6c-0.1,0.5,0.3,0.9,0.8,0.7c2.4-0.6,7.6-1.4,10.8,2.6c2.9,3.6,0.7,7-1,8.8
				c-0.4,0.4-0.1,1.2,0.5,1.1c4.3-0.5,13.8-0.7,15.3,8.2c1.4,8.2-4.3,10.6-7.7,11.2c-0.6,0.1-0.7,0.9-0.2,1.2
				c1.7,1.1,3.7,3.3,2.9,7.7c-1.2,6.9-14.7,6.3-16.3,6.2c-0.1,0-0.2,0-0.3-0.1l-21.6-12.3c-0.2-0.1-0.3-0.3-0.3-0.5l-4.4-25.2
				c0-0.2,0-0.4,0.2-0.6l14.3-14.9C538.6,267.9,538.8,267.8,539.1,267.9z"/>
			<linearGradient id="SVGID_40_" gradientUnits="userSpaceOnUse" x1="527.7377" y1="304.9809" x2="563.8827" y2="383.6494">
				<stop  offset="0" style="stop-color:#FDF53F"/>
				<stop  offset="0.6645" style="stop-color:#E57A58"/>
				<stop  offset="1" style="stop-color:#D93C65"/>
			</linearGradient>
			<path class="st44" d="M532.2,350c0,0-11.7-11.2-17.5-18.5c-3.1-4-4.1-9.3-2.7-14.1c2.6-8.9,7.3-18.1,7.7-19.5
				c0.7-2.2,13.8-2.1,13.8-2.1s25.8,16.8,36,45.2l-11.4,3.6c0,0-6.7-11.3-13.4-18.5c0,0,11.5,15.2,11.9,21.5L532.2,350z"/>
			<linearGradient id="SVGID_41_" gradientUnits="userSpaceOnUse" x1="528.6089" y1="310.2054" x2="525.2065" y2="288.3735">
				<stop  offset="0" style="stop-color:#F9B776"/>
				<stop  offset="1" style="stop-color:#F47960"/>
			</linearGradient>
			<path class="st45" d="M518.2,285.6c0.1,0.5,3.6,11.8,3.8,12.1c0.3,0.2,7.5,0.6,10.9-1.7l-5.8-12.1L518.2,285.6z"/>
			<g>
				<linearGradient id="SVGID_42_" gradientUnits="userSpaceOnUse" x1="513.903" y1="269.061" x2="543.9575" y2="289.4754">
					<stop  offset="0" style="stop-color:#F9B776"/>
					<stop  offset="1" style="stop-color:#F47960"/>
				</linearGradient>
				<path class="st46" d="M523.8,261.7c0,0-6.2,2.6-10.4,11.6c-4.2,8.9-1.1,13.1,2.9,13.6c3.9,0.6,9.9,0.5,16.1-5.3
					C538.6,275.8,531.9,258.6,523.8,261.7z"/>
				<linearGradient id="SVGID_43_" gradientUnits="userSpaceOnUse" x1="548.3427" y1="250.6583" x2="522.2577" y2="276.1762">
					<stop  offset="0" style="stop-color:#CB236D"/>
					<stop  offset="1" style="stop-color:#4C246D"/>
				</linearGradient>
				<path class="st47" d="M528.2,276.8c0,0,4.7-13.1-6.9-13.2l-2.7,1.9c0,0-4.3-7.3,2.7-10.7c7-3.5,15.2-0.6,18.1,8.8
					c3,9.4,3.5,15.7-1.5,20.2c-4.9,4.5-7-0.6-7-0.6s2.7-4.2,1.6-6.5c-1.1-2.3-3.6,0.5-3.6,0.5L528.2,276.8z"/>
				<linearGradient id="SVGID_44_" gradientUnits="userSpaceOnUse" x1="515.7043" y1="266.4088" x2="545.7589" y2="286.8232">
					<stop  offset="0" style="stop-color:#F9B776"/>
					<stop  offset="1" style="stop-color:#F47960"/>
				</linearGradient>
				<path class="st48" d="M529.5,278.3c0,0,2.4-6.7,5.5-4.1c3.1,2.7-2.6,6.2-4.8,7.4L529.5,278.3z"/>
			</g>
			<linearGradient id="SVGID_45_" gradientUnits="userSpaceOnUse" x1="548.1419" y1="348.0077" x2="612.0417" y2="348.0077">
				<stop  offset="0" style="stop-color:#F9B776"/>
				<stop  offset="1" style="stop-color:#F47960"/>
			</linearGradient>
			<path class="st49" d="M508.3,350.8l8.6-8.3l11.9,5c0,0,11.9,1.8,18.6,0c6.8-1.8,6.8-1.8,6.8-1.8l15.3-4.8l2.4,6.8
				c0.6,1.7,0,3.6-1.5,4.7c-1.3,0.9-2.9,2-3.9,2.4c-2,0.9-49.8-0.6-49.8-0.6L508.3,350.8z"/>
		</g>
		<g>
			
				<linearGradient id="SVGID_46_" gradientUnits="userSpaceOnUse" x1="504.4369" y1="467.7314" x2="464.2115" y2="478.7561" gradientTransform="matrix(0.9988 -4.940000e-02 4.940000e-02 0.9988 22.418 -100.8238)">
				<stop  offset="0" style="stop-color:#2B3582"/>
				<stop  offset="1" style="stop-color:#150E42"/>
			</linearGradient>
			<path class="st50" d="M540.9,354.7c0,0-0.1,0-0.1,0l-49.9-0.1c-1.2,0-2.2-1-2.2-2.2c0-1.2,1-2.3,2.2-2.2l49.9,0.1
				c1.2,0,2.2,1,2.2,2.2C543,353.7,542.1,354.6,540.9,354.7z"/>
			<linearGradient id="SVGID_47_" gradientUnits="userSpaceOnUse" x1="494.9123" y1="315.4412" x2="466.3706" y2="345.608">
				<stop  offset="0" style="stop-color:#2B3582"/>
				<stop  offset="1" style="stop-color:#150E42"/>
			</linearGradient>
			<path class="st51" d="M446,309.4h41.6c3.1,0,5.9,1.8,7.2,4.5l19.2,40.8h-51.7c-2,0-3.8-1.2-4.5-3l-14.9-37.7
				C442,311.7,443.6,309.4,446,309.4z"/>
			<linearGradient id="SVGID_48_" gradientUnits="userSpaceOnUse" x1="477.6575" y1="322.9525" x2="464.7071" y2="342.4543">
				<stop  offset="0" style="stop-color:#53D8FF"/>
				<stop  offset="1" style="stop-color:#3840F7"/>
			</linearGradient>
			<path class="st52" d="M475.3,330.3c0.9,2.8,0.2,5.5-1.5,6.1c-1.7,0.6-3.8-1.3-4.7-4.1c-0.9-2.8-0.2-5.5,1.5-6.1
				C472.2,325.6,474.4,327.5,475.3,330.3z"/>
		</g>
		<linearGradient id="SVGID_49_" gradientUnits="userSpaceOnUse" x1="381.0531" y1="358.9458" x2="610.7028" y2="358.9458">
			<stop  offset="0" style="stop-color:#9CFFFB"/>
			<stop  offset="1" style="stop-color:#9BFFFA"/>
		</linearGradient>
		<path class="st53" d="M610.7,356.5c0.1-0.6,0-1.2-0.5-1.6c-0.4-0.4-1.1-0.7-1.7-0.7H383.6c-0.9,0-1.7,0.4-2.2,1
			c-0.5,0.6-0.5,1.4-0.2,2.1l2.4,4.6c0.6,1,1.8,1.7,3.1,1.7h220.1c1.2,0,2.3-0.8,2.5-1.8L610.7,356.5z"/>
	</g>
	<g>
		<linearGradient id="SVGID_50_" gradientUnits="userSpaceOnUse" x1="344.535" y1="41.7864" x2="324.6921" y2="178.3051">
			<stop  offset="0" style="stop-color:#CB236D"/>
			<stop  offset="1" style="stop-color:#4C246D"/>
		</linearGradient>
		<path class="st54" d="M309,196.5c0,0,107.1-52.9,72.1-91.9c-35-39-100.4-23.4-103.7,17.6C274.1,163.3,353.6,153.7,309,196.5z"/>
	</g>
</g>
</svg>
