<?xml version="1.0" encoding="utf-8"?>
<!-- Generator: Adobe Illustrator 24.0.2, SVG Export Plug-In . SVG Version: 6.00 Build 0)  -->
<svg version="1.1" id="Layer_1" xmlns="http://www.w3.org/2000/svg" xmlns:xlink="http://www.w3.org/1999/xlink" x="0px" y="0px"
	 viewBox="0 0 189 47" style="enable-background:new 0 0 189 47;" xml:space="preserve">
<style type="text/css">
	.st0{fill:#FFFFFF;}
</style>
<g>
	<g>
		<path class="st0" d="M62.6,28.7c0.8,0.4,2,0.8,3.3,0.8c1.4,0,2.1-0.6,2.1-1.4c0-0.8-0.6-1.3-2.2-1.8c-2.2-0.8-3.6-2-3.6-3.9
			c0-2.2,1.9-3.9,4.9-3.9c1.5,0,2.6,0.3,3.3,0.7l-0.7,2.4c-0.5-0.3-1.5-0.6-2.7-0.6c-1.3,0-1.9,0.6-1.9,1.3c0,0.8,0.7,1.2,2.4,1.8
			c2.3,0.9,3.4,2.1,3.4,3.9c0,2.2-1.7,4.1-5.3,4.1c-1.5,0-3-0.4-3.7-0.8L62.6,28.7z M75.9,18.7v13.1h-3V18.7H75.9z M79.1,18.9
			c1-0.2,2.4-0.3,3.9-0.3c1.9,0,3.3,0.3,4.2,1c0.8,0.6,1.2,1.5,1.2,2.7c0,1.7-1.2,2.8-2.3,3.2v0.1c0.9,0.4,1.4,1.2,1.7,2.4
			c0.4,1.5,0.8,3.2,1.1,3.7h-3c-0.2-0.4-0.5-1.4-0.9-3c-0.3-1.6-0.9-2.1-2.1-2.1H82v5.1h-2.9V18.9z M82,24.5h1.2
			c1.5,0,2.3-0.7,2.3-1.9c0-1.2-0.8-1.8-2.2-1.8c-0.7,0-1.1,0.1-1.3,0.1V24.5z M93.9,18.7v13.1h-3V18.7H93.9z M108.1,25.1
			c0,4.3-2.6,6.9-6.4,6.9c-3.9,0-6.1-2.9-6.1-6.7c0-3.9,2.5-6.8,6.4-6.8C105.9,18.5,108.1,21.5,108.1,25.1z M98.6,25.3
			c0,2.6,1.2,4.4,3.2,4.4c2,0,3.1-1.9,3.1-4.4c0-2.3-1.1-4.4-3.2-4.4C99.8,20.8,98.6,22.7,98.6,25.3z M116.2,18.7h3v10.6h5.2v2.5
			h-8.2V18.7z M128.9,18.7v13.1h-3V18.7H128.9z M132,18.9c0.8-0.2,2.3-0.3,3.8-0.3c1.8,0,2.9,0.2,3.9,0.7c0.9,0.5,1.6,1.4,1.6,2.6
			c0,1.2-0.7,2.2-2.2,2.8v0c1.5,0.4,2.6,1.5,2.6,3.2c0,1.2-0.5,2.1-1.4,2.8c-1,0.8-2.5,1.2-5.1,1.2c-1.5,0-2.5-0.1-3.2-0.2V18.9z
			 M134.9,23.9h1c1.6,0,2.4-0.6,2.4-1.6c0-1-0.8-1.5-2.1-1.5c-0.6,0-1,0-1.3,0.1V23.9z M134.9,29.7c0.3,0,0.6,0,1.1,0
			c1.3,0,2.5-0.5,2.5-1.9c0-1.3-1.2-1.8-2.7-1.8h-1V29.7z M146,28.4l-0.9,3.4H142l4-13.1h3.9l4.1,13.1h-3.2l-1-3.4H146z M149.3,26.2
			l-0.8-2.8c-0.2-0.8-0.5-1.7-0.7-2.5h0c-0.2,0.8-0.4,1.8-0.6,2.5l-0.8,2.8H149.3z M155.3,31.7V18.7h3.5l2.7,4.8
			c0.8,1.4,1.6,3,2.1,4.5h0.1c-0.2-1.7-0.3-3.5-0.3-5.5v-3.8h2.7v13.1H163l-2.8-5c-0.8-1.4-1.6-3.1-2.3-4.6l-0.1,0
			c0.1,1.7,0.1,3.6,0.1,5.7v3.9H155.3z M176.9,26.2h-4.8v3.1h5.4v2.4h-8.3V18.7h8.1v2.4h-5.1v2.7h4.8V26.2z M179.4,28.7
			c0.8,0.4,2,0.8,3.3,0.8c1.4,0,2.1-0.6,2.1-1.4c0-0.8-0.6-1.3-2.2-1.8c-2.2-0.8-3.6-2-3.6-3.9c0-2.2,1.9-3.9,4.9-3.9
			c1.5,0,2.6,0.3,3.3,0.7l-0.7,2.4c-0.5-0.3-1.5-0.6-2.7-0.6c-1.3,0-1.9,0.6-1.9,1.3c0,0.8,0.7,1.2,2.4,1.8c2.3,0.9,3.4,2.1,3.4,3.9
			c0,2.2-1.7,4.1-5.3,4.1c-1.5,0-3-0.4-3.7-0.8L179.4,28.7z M113.3,23.7h-3.1v3.1h3.1V23.7z M74.6,14.9L73,17.3h2.4l2.4-2.4H74.6z
			 M172.2,14.9l-1.9,2.4h2.1l1-1.2h0l1,1.2h2.1l-2-2.4H172.2z"/>
		<g>
			<g>
				<path class="st0" d="M12.2,44.5c-0.1-0.2-0.2-0.3-0.3-0.5c-0.2-0.2-0.5-0.2-0.6,0c-0.1,0.2-0.1,0.3,0,0.6
					c0.2,0.3,0.3,0.7,0.1,0.9c-0.2,0.3-0.6,0.3-1,0c-0.2-0.2-0.3-0.3-0.3-0.4l0.2-0.1c0,0.1,0.1,0.2,0.3,0.4c0.3,0.2,0.5,0.1,0.6,0
					c0.1-0.2,0.1-0.3-0.1-0.7c-0.2-0.4-0.2-0.6,0-0.9c0.2-0.3,0.6-0.4,1.1,0c0.2,0.1,0.3,0.4,0.4,0.5L12.2,44.5z"/>
				<path class="st0" d="M7.6,41.2c0.6-0.5,1.3-0.4,1.7,0c0.4,0.5,0.3,1.1-0.2,1.6c-0.6,0.5-1.2,0.5-1.7,0C7,42.3,7.1,41.7,7.6,41.2
					z M8.8,42.6c0.4-0.3,0.5-0.8,0.2-1.2c-0.3-0.4-0.8-0.3-1.2,0.1c-0.4,0.3-0.6,0.8-0.2,1.2C7.9,43,8.4,42.9,8.8,42.6z"/>
				<path class="st0" d="M6.4,37.4c0.1,0.1,0.3,0.2,0.4,0.5c0.3,0.6,0.2,1.2-0.4,1.6c-0.6,0.4-1.3,0.2-1.7-0.4
					c-0.2-0.3-0.2-0.4-0.2-0.5l0.2-0.1c0,0.1,0.1,0.3,0.2,0.5c0.3,0.5,0.8,0.6,1.3,0.3c0.5-0.3,0.6-0.8,0.3-1.3
					c-0.1-0.2-0.2-0.3-0.3-0.4L6.4,37.4z"/>
				<path class="st0" d="M3.2,36.2l2.2-0.9l0.1,0.3l-2.2,0.9L3.2,36.2z"/>
				<path class="st0" d="M3.2,32.3l0.3,0.9l0.8-0.2l-0.3-1l0.2-0.1l0.4,1.3l-2.3,0.7L2,32.6l0.2-0.1l0.3,0.9l0.7-0.2L3,32.3
					L3.2,32.3z"/>
				<path class="st0" d="M1.5,30.1c0-0.2-0.1-0.4-0.1-0.6c-0.1-0.4,0-0.8,0.2-1c0.2-0.2,0.4-0.4,0.8-0.4c0.4,0,0.7,0,0.9,0.2
					c0.2,0.2,0.4,0.5,0.5,1c0,0.2,0,0.4,0,0.6L1.5,30.1z M3.6,29.6c0-0.1,0-0.2,0-0.3c-0.1-0.6-0.5-1-1.1-0.9
					c-0.6,0.1-0.9,0.4-0.8,1.1c0,0.2,0,0.3,0.1,0.4L3.6,29.6z"/>
				<path class="st0" d="M2.9,25.5l0.7,0.3l0,0.3l-2.3-0.9l0-0.4l2.4-0.7l0,0.3l-0.8,0.2L2.9,25.5z M2.7,24.7L2,24.9
					c-0.2,0-0.3,0.1-0.4,0.1v0c0.1,0,0.3,0.1,0.4,0.1l0.7,0.3L2.7,24.7z"/>
				<path class="st0" d="M1.7,21.6c0-0.2,0-0.4,0.1-0.6c0.1-0.4,0.3-0.7,0.5-0.9c0.2-0.2,0.5-0.2,0.9-0.1C3.5,20,3.8,20.2,4,20.5
					c0.2,0.3,0.2,0.6,0.1,1.1c0,0.2-0.1,0.4-0.2,0.5L1.7,21.6z M3.8,21.7c0-0.1,0.1-0.2,0.1-0.3c0.1-0.6-0.1-1.1-0.8-1.2
					c-0.5-0.1-1,0.1-1.1,0.7c0,0.2,0,0.3,0,0.4L3.8,21.7z"/>
				<path class="st0" d="M4.5,16.7l-0.3,0.8l0.8,0.3l0.4-0.9L5.5,17L5,18.2l-2.2-0.9l0.5-1.2l0.2,0.1l-0.4,0.9l0.7,0.3l0.3-0.8
					L4.5,16.7z"/>
				<path class="st0" d="M5.9,11.7c0.1-0.1,0.2-0.3,0.3-0.5c0.2-0.2,0.3-0.4,0.5-0.4c0.1,0,0.3,0,0.5,0.1c0.2,0.1,0.2,0.4,0.2,0.6
					l0,0c0.2-0.1,0.5-0.2,0.8,0c0.2,0.1,0.2,0.3,0.3,0.4c0,0.2-0.1,0.5-0.3,0.8c-0.1,0.2-0.2,0.3-0.3,0.4L5.9,11.7z M6.9,12.1
					L7,11.8c0.2-0.3,0.2-0.5,0-0.6c-0.2-0.2-0.4-0.1-0.6,0.2c-0.1,0.1-0.1,0.2-0.1,0.2L6.9,12.1z M7.8,12.7c0,0,0.1-0.1,0.2-0.2
					c0.2-0.3,0.3-0.6,0-0.8c-0.3-0.2-0.5-0.1-0.7,0.2L7,12.2L7.8,12.7z"/>
				<path class="st0" d="M10.2,8.7L9.5,9.4l0.6,0.6l0.7-0.7L11,9.5l-1,0.9L8.4,8.7l0.9-0.9L9.5,8L8.8,8.7l0.5,0.5L10,8.6L10.2,8.7z"
					/>
				<path class="st0" d="M12.6,8.1l-1.3-1.9L11.5,6l1.3,0.5c0.3,0.1,0.6,0.3,0.8,0.4l0,0c-0.2-0.2-0.4-0.5-0.6-0.8l-0.6-0.8l0.2-0.2
					l1.3,1.9l-0.3,0.2l-1.3-0.6c-0.3-0.1-0.6-0.3-0.8-0.4l0,0c0.2,0.2,0.4,0.5,0.6,0.8L12.8,8L12.6,8.1z"/>
				<path class="st0" d="M16.6,4.5l-0.8,0.4l0.4,0.8l0.9-0.4l0.1,0.2L16,6l-1-2.1l1.1-0.5l0.1,0.2L15.3,4l0.3,0.7l0.8-0.4L16.6,4.5z
					"/>
				<path class="st0" d="M18.4,2.4l1.2-0.4l0.1,0.2l-0.9,0.3L19,3.4l0.9-0.3l0.1,0.2l-0.9,0.3l0.3,1l-0.3,0.1L18.4,2.4z"/>
				<path class="st0" d="M22.3,1.5l0.4,2.3l-0.3,0.1L22,1.6L22.3,1.5z"/>
				<path class="st0" d="M26.5,3.5c-0.1,0.1-0.3,0.1-0.6,0.1c-0.7,0-1.2-0.4-1.2-1.2c0-0.7,0.5-1.3,1.2-1.3c0.3,0,0.5,0,0.6,0.1
					l-0.1,0.3c-0.1-0.1-0.3-0.1-0.5-0.1c-0.6,0-0.9,0.4-0.9,1C25,3,25.4,3.3,26,3.3c0.2,0,0.4-0.1,0.5-0.1L26.5,3.5z"/>
				<path class="st0" d="M29.9,2.7L29,2.6l-0.1,0.8l1,0.1l0,0.3l-1.3-0.2l0.3-2.3l1.3,0.2l0,0.3l-1-0.1l-0.1,0.7L30,2.5L29.9,2.7z"
					/>
				<path class="st0" d="M31.9,4.2L32.6,2l0.3,0.1l0.4,1.4c0.1,0.3,0.1,0.6,0.2,0.9h0c0.1-0.3,0.1-0.6,0.2-0.9L34,2.4l0.3,0.1
					l-0.7,2.3l-0.3-0.1L33,3.3c-0.1-0.3-0.2-0.6-0.2-0.9h0c-0.1,0.3-0.1,0.6-0.3,0.9l-0.3,1L31.9,4.2z"/>
				<path class="st0" d="M37,3.9l-0.6-0.3l0.1-0.2L38,4.1l-0.1,0.2L37.3,4l-0.9,1.9l-0.3-0.1L37,3.9z"/>
				<path class="st0" d="M40.3,7l-0.8-0.5l-0.5,0.7l0.8,0.6l-0.1,0.2l-1.1-0.8L40,5.3l1,0.7l-0.1,0.2l-0.8-0.5l-0.4,0.6l0.8,0.5
					L40.3,7z"/>
				<path class="st0" d="M44.9,9.4c0.1,0.1,0.3,0.3,0.5,0.5c0.3,0.3,0.4,0.6,0.4,0.9c0,0.3-0.1,0.6-0.4,0.8C45,11.9,44.7,12,44.4,12
					c-0.3,0-0.6-0.2-0.9-0.6c-0.1-0.2-0.2-0.3-0.3-0.4L44.9,9.4z M43.5,11c0,0.1,0.1,0.2,0.2,0.2c0.4,0.5,0.9,0.5,1.4,0.1
					c0.4-0.4,0.5-0.8,0.1-1.3C45.1,10,45,9.9,44.9,9.8L43.5,11z"/>
				<path class="st0" d="M47.1,14.6l-0.5-0.8l-0.7,0.4l0.5,0.9l-0.2,0.1l-0.7-1.1l2-1.2l0.7,1.1L48,14.1l-0.5-0.8l-0.6,0.4l0.5,0.8
					L47.1,14.6z"/>
				<path class="st0" d="M48.3,19.3c0,0.2-0.1,0.4,0,0.6c0.1,0.3,0.3,0.4,0.5,0.4c0.2-0.1,0.3-0.2,0.3-0.6c0-0.4,0.2-0.7,0.5-0.8
					c0.4-0.1,0.7,0.1,0.8,0.6c0.1,0.2,0.1,0.4,0,0.5l-0.3,0c0-0.1,0-0.3,0-0.5c-0.1-0.3-0.3-0.4-0.5-0.3c-0.2,0.1-0.3,0.2-0.3,0.6
					c0,0.4-0.2,0.7-0.5,0.8c-0.3,0.1-0.7-0.1-0.9-0.6c-0.1-0.2-0.1-0.5,0-0.6L48.3,19.3z"/>
				<path class="st0" d="M50,23.8l-0.1-0.9L49.1,23l0.1,1l-0.3,0l-0.2-1.3l2.3-0.3l0.2,1.3l-0.3,0l-0.1-1l-0.7,0.1l0.1,0.9L50,23.8z
					"/>
				<path class="st0" d="M49.1,26.1l2.4,0.1l0,0.3l-1.2,0.7c-0.3,0.2-0.5,0.3-0.8,0.4l0,0c0.3,0,0.6,0,1,0l1,0l0,0.3L49,27.9l0-0.3
					l1.2-0.7c0.3-0.2,0.5-0.3,0.8-0.4l0,0c-0.3,0-0.6,0-1,0l-1,0L49.1,26.1z"/>
				<path class="st0" d="M51,30.8l-1-0.2l-0.2,1.1l1,0.2l-0.1,0.3l-2.3-0.5l0.1-0.3l1.1,0.2l0.2-1.1l-1.1-0.2l0.1-0.3l2.3,0.5
					L51,30.8z"/>
				<path class="st0" d="M48.1,36.2c-0.8-0.3-1-0.9-0.7-1.5c0.2-0.6,0.8-0.8,1.5-0.5c0.7,0.3,1,0.9,0.7,1.5
					C49.4,36.3,48.8,36.5,48.1,36.2z M48.8,34.5c-0.5-0.2-1-0.1-1.2,0.3c-0.2,0.4,0.1,0.9,0.6,1.1c0.4,0.2,1,0.1,1.2-0.3
					C49.6,35.1,49.2,34.7,48.8,34.5z"/>
				<path class="st0" d="M48,38.8c-0.1,0.1-0.2,0.3-0.3,0.5c-0.2,0.3-0.3,0.4-0.5,0.5c-0.2,0-0.3,0-0.5-0.1
					c-0.3-0.2-0.3-0.4-0.3-0.7l0,0c-0.1,0.1-0.3,0.1-0.6,0c-0.3-0.1-0.5-0.2-0.6-0.2l0.2-0.3c0.1,0,0.3,0.1,0.6,0.2
					c0.3,0.1,0.5,0.1,0.6-0.2l0.2-0.2l-0.9-0.5l0.2-0.3L48,38.8z M46.9,38.5l-0.2,0.3c-0.2,0.3-0.1,0.5,0.1,0.7
					c0.3,0.2,0.5,0,0.7-0.2c0.1-0.1,0.1-0.2,0.1-0.3L46.9,38.5z"/>
				<path class="st0" d="M44.3,41.3l-0.4-0.7l0.2-0.2l1.3,2.1l-0.2,0.3l-2.3-0.9l0.2-0.2l0.7,0.3L44.3,41.3z M44,42.1l0.7,0.3
					c0.2,0.1,0.3,0.1,0.4,0.2l0,0c-0.1-0.1-0.2-0.2-0.2-0.4l-0.4-0.6L44,42.1z"/>
				<path class="st0" d="M41.7,43.6c-0.2,0-0.4,0.1-0.5,0.2c-0.2,0.2-0.3,0.4-0.1,0.6c0.1,0.2,0.3,0.2,0.6,0.1
					c0.4-0.1,0.7-0.1,0.9,0.1c0.2,0.3,0.2,0.7-0.2,1c-0.2,0.2-0.4,0.2-0.5,0.2l-0.1-0.2c0.1,0,0.3-0.1,0.4-0.2
					c0.2-0.2,0.2-0.4,0.1-0.6c-0.1-0.2-0.3-0.2-0.7,0c-0.4,0.1-0.7,0.1-0.9-0.1c-0.2-0.3-0.2-0.7,0.2-1.1c0.2-0.1,0.4-0.3,0.6-0.3
					L41.7,43.6z"/>
			</g>
			<g>
				<g>
					<g>
						<polygon class="st0" points="36.6,18.9 30.3,12.6 27.8,16 						"/>
						<polygon class="st0" points="26.2,9.3 24.5,8 15,11.8 22.6,14.3 						"/>
						<polygon class="st0" points="36.6,10.9 27.3,7.9 26.2,9.3 30.3,12.6 						"/>
						<polygon class="st0" points="22.6,14.3 26.4,26.3 27.8,16 						"/>
						<rect x="25" y="5.8" transform="matrix(0.7321 -0.6812 0.6812 0.7321 2.3251 19.5513)" class="st0" width="2" height="2"/>
					</g>
				</g>
			</g>
			<g>
				<g>
					<g>
						<polygon class="st0" points="22.6,14.3 14.6,18.4 17.1,21.8 						"/>
						<polygon class="st0" points="10.2,21.3 8.4,22.5 9.2,32.7 13.8,26.3 						"/>
						<polygon class="st0" points="15,11.8 9.2,19.8 10.2,21.3 14.6,18.4 						"/>
						<polygon class="st0" points="17.1,21.8 13.8,26.3 26.4,26.3 						"/>
						<rect x="6.8" y="19.7" transform="matrix(0.9066 -0.4219 0.4219 0.9066 -7.9966 5.2208)" class="st0" width="2" height="2"/>
					</g>
				</g>
			</g>
			<g>
				<g>
					<g>
						<polygon class="st0" points="13.8,26.3 15.3,35.1 19.3,33.8 						"/>
						<polygon class="st0" points="16.7,40.2 17.2,42.3 27.2,44.7 22.5,38.3 						"/>
						<polygon class="st0" points="9.2,32.7 14.9,40.7 16.7,40.2 15.3,35.1 						"/>
						<polygon class="st0" points="19.3,33.8 22.5,38.3 26.4,26.3 						"/>
						<rect x="14.3" y="41.3" transform="matrix(0.9927 -0.1205 0.1205 0.9927 -4.9847 2.1578)" class="st0" width="2" height="2"/>
					</g>
				</g>
			</g>
			<g>
				<g>
					<g>
						<polygon class="st0" points="22.5,38.3 31.4,39.6 31.4,35.4 						"/>
						<polygon class="st0" points="36.6,39.9 38.8,40 44.2,31.3 36.6,33.7 						"/>
						<polygon class="st0" points="27.2,44.7 36.6,41.7 36.6,39.9 31.4,39.6 						"/>
						<polygon class="st0" points="31.4,35.4 36.6,33.7 26.4,26.3 						"/>
						
							<rect x="37.2" y="40.8" transform="matrix(0.1927 -0.9813 0.9813 0.1927 -10.1377 71.2518)" class="st0" width="2" height="2"/>
					</g>
				</g>
			</g>
			<g>
				<g>
					<polygon class="st0" points="36.6,33.7 40.6,25.7 36.6,24.4 					"/>
					<polygon class="st0" points="42.5,20.8 43.3,18.8 36.7,10.9 36.6,18.9 					"/>
					<polygon class="st0" points="44.2,31.2 44.2,21.4 42.5,20.8 40.6,25.7 					"/>
					<polygon class="st0" points="36.6,18.9 26.4,26.3 36.6,24.4 					"/>
					<rect x="43.8" y="18.9" transform="matrix(0.4859 -0.874 0.874 0.4859 5.6819 49.3944)" class="st0" width="2" height="2"/>
				</g>
			</g>
		</g>
	</g>
</g>
</svg>
