<?xml version="1.0" encoding="utf-8"?>
<!-- Generator: Adobe Illustrator 24.0.2, SVG Export Plug-In . SVG Version: 6.00 Build 0)  -->
<svg version="1.1" id="Layer_1" xmlns="http://www.w3.org/2000/svg" xmlns:xlink="http://www.w3.org/1999/xlink" x="0px" y="0px"
	 viewBox="0 0 128.1 50.1" style="enable-background:new 0 0 128.1 50.1;" xml:space="preserve">
<style type="text/css">
	.st0{fill-rule:evenodd;clip-rule:evenodd;fill:#B8B8B8;}
</style>
<g>
	<path class="st0" d="M5.1,44.1h3.5l-1.3-3.7c0-0.1-0.1-0.3-0.2-0.5c-0.1-0.2-0.2-0.6-0.3-1c-0.1,0.3-0.1,0.5-0.2,0.8
		c-0.1,0.2-0.1,0.5-0.2,0.7L5.1,44.1L5.1,44.1z M0.2,48.3l4.4-11.2H9l4.4,11.2H10l-0.7-2h-5l-0.7,2H0.2L0.2,48.3z M17.9,41.6h0.7
		c0.9,0,1.5-0.1,1.8-0.2c0.3-0.2,0.5-0.5,0.5-0.9c0-0.4-0.2-0.7-0.5-0.9c-0.3-0.2-0.9-0.3-1.8-0.3h-0.8V41.6L17.9,41.6z M14.7,48.3
		V37.1h3.5c1.5,0,2.5,0,3,0.1c0.6,0.1,1.1,0.2,1.5,0.4c0.5,0.2,0.8,0.5,1.1,0.9c0.2,0.4,0.4,0.8,0.4,1.3c0,0.6-0.2,1.1-0.6,1.5
		c-0.4,0.4-1,0.7-1.8,0.9c0.9,0.1,1.6,0.3,2.1,0.8c0.5,0.5,0.8,1.2,0.8,2c0,0.6-0.1,1.1-0.4,1.6c-0.3,0.5-0.7,0.8-1.2,1.1
		c-0.4,0.2-1,0.3-1.6,0.4c-0.6,0.1-1.7,0.1-3.2,0.1H14.7L14.7,48.3z M17.9,46h1.2c0.8,0,1.4-0.1,1.8-0.3c0.3-0.2,0.5-0.5,0.5-0.9
		c0-0.5-0.2-0.8-0.5-1c-0.3-0.2-0.9-0.3-1.8-0.3h-1.3V46L17.9,46z M26.2,48.3V37.1h8.6v2.4h-5.3v1.9h5v2.4h-5v1.9h5.3v2.5H26.2
		L26.2,48.3z M37.1,48.3V37.1h2.7c2,0,3.4,0.1,4.2,0.2c0.8,0.2,1.6,0.4,2.2,0.8c0.8,0.5,1.4,1.1,1.9,1.9c0.4,0.8,0.6,1.7,0.6,2.6
		c0,1-0.2,1.9-0.6,2.6c-0.4,0.8-1,1.4-1.9,1.9c-0.6,0.4-1.3,0.6-2.1,0.8c-0.8,0.2-2,0.2-3.7,0.2h-0.6H37.1L37.1,48.3z M40.6,45.8
		h0.6c1.4,0,2.4-0.2,3-0.7c0.6-0.5,0.9-1.3,0.9-2.3c0-1.1-0.3-1.9-0.9-2.3c-0.6-0.5-1.6-0.7-3-0.7h-0.6V45.8L40.6,45.8z M25.4,0.7
		c0.1,1.6,1.3,8.3,1.8,9.8c1.3-0.1,2.4-0.1,3.7-0.1c0.2-1.3,0.3-2.4,0.2-3.6c-0.1-2,0-2-2-1.3l-2,0.6l-0.3-1L30.2,4
		c1.8-0.7,1.8-0.6,2,2.3c0.1,1.4,0,2.8-0.2,4.1c4.6,0.9,8,3.5,9.5,8.4c-3.2,0.3-6.6,0.9-9.9,1.8l0.1,3.9l4.1,0.1
		c1.5-0.1,1.5-0.1,1.1-1.5L36,20.4l1.1-0.3l1,3c0.7,2.2,0.7,2.2-2,2.3l-4.5,0c-1,4.9-3,7.5-8.3,9.4c-0.3-3.4-0.7-6.7-1.6-9.7l-4.1,0
		c-0.1,0.5-0.2,2.2-0.1,3.5c0.2,1.9,0.2,1.9,1.6,1.5l2.7-1l0.2,1.1l-2.5,1c-2.7,0.9-2.6,0.9-3-2.9l0-3.5c-4-0.9-7.1-3.1-9.2-8.1
		c3.3-0.4,6.5-1,9.7-1.8c0-1.3,0-2.7,0-4c-1.1-0.2-2.4-0.2-3.5-0.2c-2.1,0-2.1,0-1.6,1.5l0.8,2.8l-1,0.3l-1.2-3.4
		c-0.7-1.9-0.6-1.9,2.6-2c1.2,0,2.8,0,4.1,0.1C18.2,5.2,21.1,2.1,25.4,0.7L25.4,0.7z M18,11.1l0.1,3.7c1.2-0.1,2.4-0.5,3.5-0.8
		c-1.8,3.1-3,6.4-3.7,10.1l3.5,0.1c-0.3-1.1-0.6-2.4-0.7-3.6c3.1,2,6.5,2.9,10,3.5l0.1-3.5c-1.1,0.1-2.3,0.4-3.3,0.6
		c1.5-3.1,2.7-6.3,3.3-9.8l-3.3,0c0,1.1,0.5,2.5,0.7,3.6C25,13.6,21.6,12,18,11.1z"/>
	<g>
		<path class="st0" d="M54.9,40.3l-0.4-1.2c0,0,0-0.1,0-0.2c0-0.1,0-0.2-0.1-0.3c0,0.1,0,0.2-0.1,0.3c0,0.1,0,0.2,0,0.2l-0.4,1.2
			H54.9L54.9,40.3z M52.5,41.8L54,38h0.9l1.5,3.8h-0.9L55.1,41h-1.5l-0.3,0.8H52.5L52.5,41.8z M56.5,41.3l0.5-0.5
			c0.1,0.1,0.1,0.3,0.3,0.3c0.1,0.1,0.3,0.1,0.4,0.1c0.2,0,0.3,0,0.5-0.1c0.1-0.1,0.2-0.2,0.2-0.4c0-0.2-0.2-0.4-0.6-0.5
			c-0.1-0.1-0.2-0.1-0.3-0.1c-0.3-0.2-0.6-0.3-0.7-0.5c-0.1-0.2-0.2-0.4-0.2-0.6c0-0.3,0.1-0.6,0.4-0.8c0.2-0.2,0.6-0.3,1-0.3
			c0.2,0,0.4,0,0.6,0.1c0.2,0.1,0.3,0.2,0.4,0.4l-0.5,0.5c-0.1-0.1-0.1-0.2-0.2-0.2c-0.1-0.1-0.2-0.1-0.3-0.1c-0.2,0-0.3,0-0.4,0.1
			c-0.1,0.1-0.1,0.2-0.1,0.3c0,0.2,0.2,0.4,0.6,0.6c0.1,0,0.1,0.1,0.2,0.1c0.3,0.1,0.6,0.3,0.7,0.5c0.2,0.2,0.2,0.4,0.2,0.6
			c0,0.4-0.1,0.6-0.4,0.9c-0.2,0.2-0.6,0.3-1,0.3c-0.3,0-0.5-0.1-0.7-0.2C56.8,41.6,56.6,41.5,56.5,41.3L56.5,41.3z M59.5,41.3
			l0.5-0.5c0.1,0.1,0.1,0.3,0.3,0.3c0.1,0.1,0.3,0.1,0.4,0.1c0.2,0,0.3,0,0.5-0.1c0.1-0.1,0.2-0.2,0.2-0.4c0-0.2-0.2-0.4-0.6-0.5
			c-0.1-0.1-0.2-0.1-0.3-0.1c-0.3-0.2-0.6-0.3-0.7-0.5c-0.1-0.2-0.2-0.4-0.2-0.6c0-0.3,0.1-0.6,0.4-0.8c0.2-0.2,0.6-0.3,1-0.3
			c0.2,0,0.4,0,0.6,0.1c0.2,0.1,0.3,0.2,0.4,0.4l-0.5,0.5c-0.1-0.1-0.1-0.2-0.2-0.2c-0.1-0.1-0.2-0.1-0.3-0.1c-0.2,0-0.3,0-0.4,0.1
			c-0.1,0.1-0.1,0.2-0.1,0.3c0,0.2,0.2,0.4,0.6,0.6c0.1,0,0.1,0.1,0.2,0.1c0.3,0.1,0.6,0.3,0.7,0.5c0.2,0.2,0.2,0.4,0.2,0.6
			c0,0.4-0.1,0.6-0.4,0.9c-0.2,0.2-0.6,0.3-1,0.3c-0.3,0-0.5-0.1-0.7-0.2C59.8,41.6,59.6,41.5,59.5,41.3L59.5,41.3z M66.6,39.9
			c0,0.3-0.1,0.5-0.2,0.8c-0.1,0.2-0.2,0.5-0.4,0.6c-0.2,0.2-0.4,0.3-0.7,0.4c-0.2,0.1-0.5,0.2-0.8,0.2c-0.2,0-0.5,0-0.7-0.1
			c-0.2-0.1-0.4-0.2-0.6-0.3c-0.2-0.2-0.4-0.4-0.5-0.7c-0.1-0.3-0.2-0.5-0.2-0.9c0-0.3,0.1-0.5,0.2-0.8c0.1-0.2,0.2-0.5,0.4-0.6
			c0.2-0.2,0.4-0.3,0.7-0.4c0.3-0.1,0.5-0.2,0.8-0.2c0.3,0,0.5,0.1,0.8,0.2c0.3,0.1,0.5,0.2,0.7,0.4c0.2,0.2,0.3,0.4,0.4,0.6
			C66.6,39.3,66.6,39.6,66.6,39.9L66.6,39.9z M64.6,41.1c0.3,0,0.6-0.1,0.9-0.4c0.2-0.2,0.3-0.5,0.3-0.9c0-0.4-0.1-0.7-0.3-0.9
			c-0.2-0.2-0.5-0.4-0.8-0.4c-0.3,0-0.6,0.1-0.9,0.4c-0.2,0.2-0.3,0.5-0.3,0.9c0,0.4,0.1,0.7,0.3,0.9C64,41,64.2,41.1,64.6,41.1
			L64.6,41.1z M70.4,39c-0.2-0.1-0.3-0.3-0.5-0.3c-0.2-0.1-0.4-0.1-0.6-0.1c-0.4,0-0.7,0.1-1,0.4c-0.2,0.2-0.4,0.6-0.4,1
			c0,0.4,0.1,0.7,0.3,1c0.2,0.2,0.5,0.4,0.9,0.4c0.2,0,0.4,0,0.6-0.1c0.2-0.1,0.4-0.2,0.5-0.3l0,0.8c-0.2,0.1-0.4,0.2-0.5,0.2
			c-0.2,0.1-0.4,0.1-0.6,0.1c-0.6,0-1.1-0.2-1.5-0.6c-0.4-0.4-0.6-0.9-0.6-1.4c0-0.6,0.2-1.1,0.6-1.4c0.4-0.4,0.9-0.6,1.5-0.6
			c0.2,0,0.4,0,0.6,0.1c0.2,0,0.4,0.1,0.6,0.2L70.4,39L70.4,39z M71.1,41.8V38H72v3.8H71.1L71.1,41.8z M74.8,40.3l-0.4-1.2
			c0,0,0-0.1,0-0.2c0-0.1,0-0.2-0.1-0.3c0,0.1,0,0.2-0.1,0.3c0,0.1,0,0.2,0,0.2l-0.4,1.2H74.8L74.8,40.3z M72.4,41.8l1.4-3.8h0.9
			l1.5,3.8h-0.9L75,41h-1.5l-0.3,0.8H72.4L72.4,41.8z M79.7,39c-0.2-0.1-0.3-0.3-0.5-0.3c-0.2-0.1-0.4-0.1-0.6-0.1
			c-0.4,0-0.7,0.1-1,0.4c-0.2,0.2-0.4,0.6-0.4,1c0,0.4,0.1,0.7,0.3,1c0.2,0.2,0.5,0.4,0.9,0.4c0.2,0,0.4,0,0.6-0.1
			c0.2-0.1,0.4-0.2,0.5-0.3l0,0.8c-0.2,0.1-0.4,0.2-0.5,0.2c-0.2,0.1-0.4,0.1-0.6,0.1c-0.6,0-1.1-0.2-1.5-0.6
			c-0.4-0.4-0.6-0.9-0.6-1.4c0-0.6,0.2-1.1,0.6-1.4c0.4-0.4,0.9-0.6,1.5-0.6c0.2,0,0.4,0,0.6,0.1c0.2,0,0.4,0.1,0.6,0.2L79.7,39
			L79.7,39z M77.8,42.9c0.1,0,0.3,0.1,0.4,0.1c0.1,0,0.2,0,0.3,0c0.2,0,0.4,0,0.5-0.1c0.1-0.1,0.2-0.2,0.2-0.4
			c0-0.2-0.1-0.3-0.2-0.4C78.9,42,78.8,42,78.6,42h0v-0.2h-0.3v0.6c0,0,0,0,0.1,0c0,0,0.1,0,0.1,0c0.1,0,0.2,0,0.2,0
			c0,0,0.1,0.1,0.1,0.1c0,0.1,0,0.1-0.1,0.1c0,0-0.1,0-0.2,0c-0.1,0-0.2,0-0.3,0c-0.1,0-0.2,0-0.4-0.1V42.9L77.8,42.9z M82.4,40.3
			L82,39.1c0,0,0-0.1,0-0.2c0-0.1,0-0.2-0.1-0.3c0,0.1,0,0.2-0.1,0.3c0,0.1,0,0.2,0,0.2l-0.4,1.2H82.4L82.4,40.3z M80,41.8l1.4-3.8
			h0.9l1.5,3.8h-0.9L82.6,41h-1.5l-0.3,0.8H80L80,41.8z M82.7,36.8c0,0.2-0.1,0.4-0.2,0.5c-0.1,0.1-0.2,0.1-0.3,0.1c0,0-0.1,0-0.1,0
			c0,0-0.1,0-0.1,0l-0.2-0.1c0,0-0.1,0-0.1,0c0,0-0.1,0-0.1,0c-0.1,0-0.1,0-0.1,0c0,0-0.1,0.1-0.1,0.2h-0.3c0-0.2,0.1-0.4,0.2-0.5
			c0.1-0.1,0.2-0.1,0.3-0.1c0,0,0.1,0,0.1,0c0,0,0.1,0,0.1,0l0.2,0.1c0,0,0,0,0.1,0c0,0,0,0,0.1,0c0.1,0,0.1,0,0.1-0.1
			c0,0,0.1-0.1,0.1-0.2H82.7L82.7,36.8z M88.1,39.9c0,0.3-0.1,0.5-0.2,0.8c-0.1,0.2-0.2,0.5-0.4,0.6c-0.2,0.2-0.4,0.3-0.7,0.4
			c-0.2,0.1-0.5,0.2-0.8,0.2c-0.2,0-0.5,0-0.7-0.1c-0.2-0.1-0.4-0.2-0.6-0.3c-0.2-0.2-0.4-0.4-0.5-0.7c-0.1-0.3-0.2-0.5-0.2-0.9
			c0-0.3,0.1-0.5,0.2-0.8c0.1-0.2,0.2-0.5,0.4-0.6c0.2-0.2,0.4-0.3,0.7-0.4c0.3-0.1,0.5-0.2,0.8-0.2c0.3,0,0.5,0.1,0.8,0.2
			c0.3,0.1,0.5,0.2,0.7,0.4c0.2,0.2,0.3,0.4,0.4,0.6C88.1,39.3,88.1,39.6,88.1,39.9L88.1,39.9z M86.1,41.1c0.3,0,0.6-0.1,0.9-0.4
			c0.2-0.2,0.3-0.5,0.3-0.9c0-0.4-0.1-0.7-0.3-0.9c-0.2-0.2-0.5-0.4-0.8-0.4c-0.3,0-0.6,0.1-0.9,0.4c-0.2,0.2-0.3,0.5-0.3,0.9
			c0,0.4,0.1,0.7,0.3,0.9C85.5,41,85.7,41.1,86.1,41.1L86.1,41.1z M91.3,41.1h0.3c0.2,0,0.4,0,0.5-0.1c0.1-0.1,0.2-0.2,0.2-0.4
			c0-0.2-0.1-0.3-0.2-0.4c-0.1-0.1-0.3-0.1-0.5-0.1h-0.3V41.1L91.3,41.1z M91.3,39.5h0.2c0.2,0,0.4,0,0.5-0.1
			c0.1-0.1,0.2-0.2,0.2-0.3c0-0.2,0-0.3-0.1-0.3c-0.1-0.1-0.3-0.1-0.5-0.1h-0.2V39.5L91.3,39.5z M90.4,41.8V38h0.7
			c0.4,0,0.6,0,0.8,0c0.2,0,0.3,0.1,0.4,0.1c0.1,0.1,0.3,0.2,0.3,0.3c0.1,0.1,0.1,0.3,0.1,0.5c0,0.2-0.1,0.4-0.2,0.5
			c-0.1,0.1-0.3,0.2-0.6,0.3c0.3,0,0.5,0.1,0.7,0.3c0.2,0.2,0.2,0.4,0.2,0.6c0,0.2,0,0.4-0.1,0.5c-0.1,0.2-0.2,0.3-0.4,0.4
			c-0.1,0.1-0.3,0.1-0.5,0.2c-0.2,0-0.5,0-0.9,0H91H90.4L90.4,41.8z M96.4,41.8h-0.9l-1-1.8v1.8h-0.8V38h1.2c0.5,0,0.8,0.1,1,0.3
			c0.2,0.2,0.3,0.4,0.3,0.8c0,0.3-0.1,0.5-0.2,0.7c-0.2,0.2-0.4,0.3-0.6,0.3L96.4,41.8L96.4,41.8z M94.4,39.6h0.1
			c0.3,0,0.5,0,0.7-0.1c0.1-0.1,0.2-0.2,0.2-0.4c0-0.2-0.1-0.3-0.2-0.4c-0.1-0.1-0.3-0.1-0.6-0.1h-0.1V39.6L94.4,39.6z M98.8,40.3
			l-0.4-1.2c0,0,0-0.1,0-0.2c0-0.1,0-0.2-0.1-0.3c0,0.1,0,0.2-0.1,0.3c0,0.1,0,0.2,0,0.2l-0.4,1.2H98.8L98.8,40.3z M96.4,41.8
			l1.4-3.8h0.9l1.5,3.8h-0.9L99,41h-1.5l-0.3,0.8H96.4L96.4,41.8z M100.4,41.3l0.5-0.5c0.1,0.1,0.1,0.3,0.3,0.3
			c0.1,0.1,0.3,0.1,0.4,0.1c0.2,0,0.3,0,0.5-0.1c0.1-0.1,0.2-0.2,0.2-0.4c0-0.2-0.2-0.4-0.6-0.5c-0.1-0.1-0.2-0.1-0.3-0.1
			c-0.3-0.2-0.6-0.3-0.7-0.5c-0.1-0.2-0.2-0.4-0.2-0.6c0-0.3,0.1-0.6,0.4-0.8c0.2-0.2,0.6-0.3,1-0.3c0.2,0,0.4,0,0.6,0.1
			c0.2,0.1,0.3,0.2,0.4,0.4l-0.5,0.5c-0.1-0.1-0.1-0.2-0.2-0.2c-0.1-0.1-0.2-0.1-0.3-0.1c-0.2,0-0.3,0-0.4,0.1
			c-0.1,0.1-0.1,0.2-0.1,0.3c0,0.2,0.2,0.4,0.6,0.6c0.1,0,0.1,0.1,0.2,0.1c0.3,0.1,0.6,0.3,0.7,0.5c0.2,0.2,0.2,0.4,0.2,0.6
			c0,0.4-0.1,0.6-0.4,0.9c-0.2,0.2-0.6,0.3-1,0.3c-0.3,0-0.5-0.1-0.7-0.2C100.6,41.6,100.5,41.5,100.4,41.3L100.4,41.3z M103.6,41.8
			V38h0.8v3.8H103.6L103.6,41.8z M105.3,41.8V38h0.8v3.1h1.3v0.7H105.3L105.3,41.8z M107.9,41.8V38h2.2v0.7h-1.4v0.8h1.4v0.7h-1.4v1
			h1.4v0.7H107.9L107.9,41.8z M111,41.8V38h0.8v3.8H111L111,41.8z M115.4,41.8h-0.9l-1-1.8v1.8h-0.8V38h1.2c0.5,0,0.8,0.1,1,0.3
			c0.2,0.2,0.3,0.4,0.3,0.8c0,0.3-0.1,0.5-0.2,0.7c-0.2,0.2-0.4,0.3-0.6,0.3L115.4,41.8L115.4,41.8z M113.5,39.6h0.1
			c0.3,0,0.5,0,0.7-0.1c0.1-0.1,0.2-0.2,0.2-0.4c0-0.2-0.1-0.3-0.2-0.4c-0.1-0.1-0.3-0.1-0.6-0.1h-0.1V39.6L113.5,39.6z M117.9,40.3
			l-0.4-1.2c0,0,0-0.1,0-0.2c0-0.1,0-0.2-0.1-0.3c0,0.1,0,0.2-0.1,0.3c0,0.1,0,0.2,0,0.2l-0.4,1.2H117.9L117.9,40.3z M115.4,41.8
			l1.4-3.8h0.9l1.5,3.8h-0.9l-0.3-0.8h-1.5l-0.3,0.8H115.4L115.4,41.8z"/>
	</g>
	<g>
		<path class="st0" d="M55.7,45.4c-0.1-0.3-0.3-0.5-0.5-0.6c-0.2-0.1-0.4-0.2-0.6-0.3c-0.2-0.1-0.6-0.1-1-0.1h-1v3.8h0.8h0.3
			c0.4,0,0.7,0,0.9-0.1c0.2-0.1,0.4-0.1,0.6-0.3c0.2-0.2,0.4-0.4,0.5-0.6c0.1-0.3,0.2-0.6,0.2-0.9C55.8,45.9,55.8,45.6,55.7,45.4z
			 M54.7,47.2c-0.2,0.2-0.5,0.3-0.9,0.3h-0.5V45h0.5c0.4,0,0.7,0.1,0.9,0.3c0.2,0.2,0.3,0.5,0.3,0.9C55,46.7,54.9,47,54.7,47.2z"/>
		<polygon class="st0" points="56.5,48.1 56.5,44.3 58.8,44.3 58.8,45 57.3,45 57.3,45.8 58.8,45.8 58.8,46.5 57.3,46.5 57.3,47.5 
			58.8,47.5 58.8,48.1 56.5,48.1 		"/>
		<polygon class="st0" points="61.2,48.1 61.2,44.3 63.4,44.3 63.4,45 62,45 62,45.8 63.4,45.8 63.4,46.5 62,46.5 62,47.5 
			63.4,47.5 63.4,48.1 61.2,48.1 		"/>
		<path class="st0" d="M67.4,45.4c-0.1-0.3-0.3-0.5-0.5-0.6c-0.2-0.1-0.4-0.2-0.6-0.3c-0.2-0.1-0.6-0.1-1-0.1h-1v3.8H65h0.3
			c0.4,0,0.7,0,0.9-0.1c0.2-0.1,0.4-0.1,0.6-0.3c0.2-0.2,0.4-0.4,0.5-0.6c0.1-0.3,0.2-0.6,0.2-0.9C67.6,45.9,67.5,45.6,67.4,45.4z
			 M66.4,47.2c-0.2,0.2-0.5,0.3-0.9,0.3H65V45h0.5c0.4,0,0.7,0.1,0.9,0.3c0.2,0.2,0.3,0.5,0.3,0.9C66.7,46.7,66.6,47,66.4,47.2z"/>
		<path class="st0" d="M71.5,44.3v2.4c0,0.5-0.1,0.9-0.4,1.2c-0.3,0.3-0.7,0.4-1.2,0.4c-0.6,0-1-0.1-1.2-0.4
			c-0.3-0.3-0.4-0.6-0.4-1.2v-2.4H69v2.2c0,0.3,0.1,0.5,0.2,0.7c0.1,0.2,0.3,0.2,0.6,0.2c0.3,0,0.5-0.1,0.6-0.2
			c0.1-0.2,0.2-0.4,0.2-0.7v-2.2H71.5L71.5,44.3z"/>
		<path class="st0" d="M75.4,45.3c-0.2-0.1-0.3-0.3-0.5-0.3c-0.2-0.1-0.4-0.1-0.6-0.1c-0.4,0-0.7,0.1-1,0.4c-0.2,0.2-0.4,0.6-0.4,1
			c0,0.4,0.1,0.7,0.3,1c0.2,0.2,0.5,0.4,0.9,0.4c0.2,0,0.4,0,0.6-0.1c0.2-0.1,0.4-0.2,0.5-0.3l0,0.8c-0.2,0.1-0.4,0.2-0.5,0.2
			c-0.2,0.1-0.4,0.1-0.6,0.1c-0.6,0-1.1-0.2-1.5-0.6c-0.4-0.4-0.6-0.9-0.6-1.4c0-0.6,0.2-1.1,0.6-1.4c0.4-0.4,0.9-0.6,1.5-0.6
			c0.2,0,0.4,0,0.6,0.1c0.2,0,0.4,0.1,0.6,0.2L75.4,45.3L75.4,45.3z"/>
		<path class="st0" d="M78.1,44.3h-0.9l-1.4,3.8h0.9l0.3-0.8h1.5l0.3,0.8h0.9L78.1,44.3z M77.1,46.7l0.4-1.2c0,0,0-0.1,0-0.2
			c0-0.1,0-0.2,0.1-0.3c0,0.1,0,0.2,0.1,0.3c0,0.1,0,0.2,0,0.2l0.4,1.2H77.1z"/>
		<path class="st0" d="M83,45.3c-0.2-0.1-0.3-0.3-0.5-0.3c-0.2-0.1-0.4-0.1-0.6-0.1c-0.4,0-0.7,0.1-1,0.4c-0.2,0.2-0.4,0.6-0.4,1
			c0,0.4,0.1,0.7,0.3,1c0.2,0.2,0.5,0.4,0.9,0.4c0.2,0,0.4,0,0.6-0.1c0.2-0.1,0.4-0.2,0.5-0.3l0,0.8c-0.2,0.1-0.4,0.2-0.5,0.2
			c-0.2,0.1-0.4,0.1-0.6,0.1c-0.6,0-1.1-0.2-1.5-0.6c-0.4-0.4-0.6-0.9-0.6-1.4c0-0.6,0.2-1.1,0.6-1.4c0.4-0.4,0.9-0.6,1.5-0.6
			c0.2,0,0.4,0,0.6,0.1c0.2,0,0.4,0.1,0.6,0.2L83,45.3L83,45.3z"/>
		<path class="st0" d="M81.1,49.3c0.1,0,0.3,0.1,0.4,0.1c0.1,0,0.2,0,0.3,0c0.2,0,0.4,0,0.5-0.1c0.1-0.1,0.2-0.2,0.2-0.4
			c0-0.2-0.1-0.3-0.2-0.4c-0.1-0.1-0.3-0.1-0.5-0.1h0v-0.2h-0.3v0.6c0,0,0,0,0.1,0c0,0,0.1,0,0.1,0c0.1,0,0.2,0,0.2,0
			c0,0,0.1,0.1,0.1,0.1c0,0.1,0,0.1-0.1,0.1c0,0-0.1,0-0.2,0c-0.1,0-0.2,0-0.3,0c-0.1,0-0.2,0-0.4-0.1V49.3L81.1,49.3z"/>
		<path class="st0" d="M85.7,44.3h-0.9l-1.4,3.8h0.9l0.3-0.8h1.5l0.3,0.8h0.9L85.7,44.3z M84.7,46.7l0.4-1.2c0,0,0-0.1,0-0.2
			c0-0.1,0-0.2,0.1-0.3c0,0.1,0,0.2,0.1,0.3c0,0.1,0,0.2,0,0.2l0.4,1.2H84.7z"/>
		<path class="st0" d="M86.1,43.1c0,0.2-0.1,0.4-0.2,0.5c-0.1,0.1-0.2,0.1-0.3,0.1c0,0-0.1,0-0.1,0c0,0-0.1,0-0.1,0l-0.2-0.1
			c0,0-0.1,0-0.1,0c0,0-0.1,0-0.1,0c-0.1,0-0.1,0-0.1,0c0,0-0.1,0.1-0.1,0.2h-0.3c0-0.2,0.1-0.4,0.2-0.5c0.1-0.1,0.2-0.1,0.3-0.1
			c0,0,0.1,0,0.1,0c0,0,0.1,0,0.1,0l0.2,0.1c0,0,0,0,0.1,0c0,0,0,0,0.1,0c0.1,0,0.1,0,0.1-0.1c0,0,0.1-0.1,0.1-0.2H86.1L86.1,43.1z"
			/>
		<path class="st0" d="M91.3,45.5c-0.1-0.2-0.2-0.5-0.4-0.6c-0.2-0.2-0.4-0.3-0.7-0.4c-0.3-0.1-0.5-0.2-0.8-0.2
			c-0.3,0-0.5,0.1-0.8,0.2c-0.3,0.1-0.5,0.2-0.7,0.4c-0.2,0.2-0.3,0.4-0.4,0.6c-0.1,0.2-0.2,0.5-0.2,0.8c0,0.3,0.1,0.6,0.2,0.9
			c0.1,0.3,0.3,0.5,0.5,0.7c0.2,0.1,0.4,0.3,0.6,0.3c0.2,0.1,0.4,0.1,0.7,0.1c0.3,0,0.5-0.1,0.8-0.2c0.2-0.1,0.5-0.2,0.7-0.4
			c0.2-0.2,0.3-0.4,0.4-0.6c0.1-0.2,0.2-0.5,0.2-0.8C91.5,46,91.4,45.7,91.3,45.5z M90.3,47.2c-0.2,0.2-0.5,0.4-0.9,0.4
			c-0.4,0-0.6-0.1-0.9-0.4c-0.2-0.2-0.3-0.5-0.3-0.9c0-0.4,0.1-0.7,0.3-0.9c0.2-0.2,0.5-0.4,0.9-0.4c0.3,0,0.6,0.1,0.8,0.4
			c0.2,0.2,0.3,0.5,0.3,0.9C90.6,46.6,90.5,46.9,90.3,47.2z"/>
		<path class="st0" d="M95.7,44.3h-0.9l-1.4,3.8h0.9l0.3-0.8H96l0.3,0.8h0.9L95.7,44.3z M94.7,46.7l0.4-1.2c0,0,0-0.1,0-0.2
			c0-0.1,0-0.2,0.1-0.3c0,0.1,0,0.2,0.1,0.3c0,0.1,0,0.2,0,0.2l0.4,1.2H94.7z"/>
		<path class="st0" d="M102.4,45.4c-0.1-0.3-0.3-0.5-0.5-0.6c-0.2-0.1-0.4-0.2-0.6-0.3c-0.2-0.1-0.6-0.1-1-0.1h-1v3.8h0.8h0.3
			c0.4,0,0.7,0,0.9-0.1c0.2-0.1,0.4-0.1,0.6-0.3c0.2-0.2,0.4-0.4,0.5-0.6c0.1-0.3,0.2-0.6,0.2-0.9C102.5,45.9,102.5,45.6,102.4,45.4
			z M101.4,47.2c-0.2,0.2-0.5,0.3-0.9,0.3H100V45h0.5c0.4,0,0.7,0.1,0.9,0.3c0.2,0.2,0.3,0.5,0.3,0.9
			C101.7,46.7,101.6,47,101.4,47.2z"/>
		<polygon class="st0" points="103.2,48.1 103.2,44.3 104.1,44.3 104.1,48.1 103.2,48.1 		"/>
		<path class="st0" d="M104.7,47.7l0.5-0.5c0.1,0.1,0.1,0.3,0.3,0.3c0.1,0.1,0.3,0.1,0.4,0.1c0.2,0,0.3,0,0.5-0.1
			c0.1-0.1,0.2-0.2,0.2-0.4c0-0.2-0.2-0.4-0.6-0.5c-0.1-0.1-0.2-0.1-0.3-0.1c-0.3-0.2-0.6-0.3-0.7-0.5c-0.1-0.2-0.2-0.4-0.2-0.6
			c0-0.3,0.1-0.6,0.4-0.8c0.2-0.2,0.6-0.3,1-0.3c0.2,0,0.4,0,0.6,0.1c0.2,0.1,0.3,0.2,0.4,0.4l-0.5,0.5c-0.1-0.1-0.1-0.2-0.2-0.2
			c-0.1-0.1-0.2-0.1-0.3-0.1c-0.2,0-0.3,0-0.4,0.1c-0.1,0.1-0.1,0.2-0.1,0.3c0,0.2,0.2,0.4,0.6,0.6c0.1,0,0.1,0.1,0.2,0.1
			c0.3,0.1,0.6,0.3,0.7,0.5c0.2,0.2,0.2,0.4,0.2,0.6c0,0.4-0.1,0.6-0.4,0.9c-0.2,0.2-0.6,0.3-1,0.3c-0.3,0-0.5-0.1-0.7-0.2
			C104.9,48,104.8,47.8,104.7,47.7L104.7,47.7z"/>
		<polygon class="st0" points="109.3,45 109.3,48.1 108.5,48.1 108.5,45 107.6,45 107.6,44.3 110.3,44.3 110.3,45 109.3,45 		"/>
		<path class="st0" d="M112.7,44.3h-0.9l-1.4,3.8h0.9l0.3-0.8h1.5l0.3,0.8h0.9L112.7,44.3z M111.7,46.7l0.4-1.2c0,0,0-0.1,0-0.2
			c0-0.1,0-0.2,0.1-0.3c0,0.1,0,0.2,0.1,0.3c0,0.1,0,0.2,0,0.2l0.4,1.2H111.7z"/>
		<polygon class="st0" points="111.4,44 112,43 112.6,43 113.1,44 112.7,44 112.3,43.4 111.8,44 111.4,44 		"/>
		<path class="st0" d="M114.6,48.1v-3.8h0.8l1.7,2.2c0,0.1,0.1,0.2,0.2,0.3c0.1,0.1,0.1,0.2,0.2,0.4c0-0.1,0-0.2,0-0.3
			c0-0.1,0-0.2,0-0.4v-2.1h0.8v3.8h-0.8l-1.7-2.3c0-0.1-0.1-0.1-0.2-0.3c-0.1-0.1-0.1-0.2-0.2-0.4c0,0.1,0,0.2,0,0.3
			c0,0.1,0,0.3,0,0.4v2.2H114.6L114.6,48.1z"/>
		<path class="st0" d="M122.1,45.3c-0.2-0.1-0.3-0.3-0.5-0.3c-0.2-0.1-0.4-0.1-0.6-0.1c-0.4,0-0.7,0.1-1,0.4c-0.2,0.2-0.4,0.6-0.4,1
			c0,0.4,0.1,0.7,0.3,1c0.2,0.2,0.5,0.4,0.9,0.4c0.2,0,0.4,0,0.6-0.1c0.2-0.1,0.4-0.2,0.5-0.3l0,0.8c-0.2,0.1-0.4,0.2-0.5,0.2
			c-0.2,0.1-0.4,0.1-0.6,0.1c-0.6,0-1.1-0.2-1.5-0.6c-0.4-0.4-0.6-0.9-0.6-1.4c0-0.6,0.2-1.1,0.6-1.4c0.4-0.4,0.9-0.6,1.5-0.6
			c0.2,0,0.4,0,0.6,0.1c0.2,0,0.4,0.1,0.6,0.2L122.1,45.3L122.1,45.3z"/>
		<polygon class="st0" points="122.9,48.1 122.9,44.3 123.7,44.3 123.7,48.1 122.9,48.1 		"/>
		<path class="st0" d="M126.5,44.3h-0.9l-1.4,3.8h0.9l0.3-0.8h1.5l0.3,0.8h0.9L126.5,44.3z M125.4,46.7l0.4-1.2c0,0,0-0.1,0-0.2
			c0-0.1,0-0.2,0.1-0.3c0,0.1,0,0.2,0.1,0.3c0,0.1,0,0.2,0,0.2l0.4,1.2H125.4z"/>
	</g>
</g>
</svg>
