<?xml version="1.0" encoding="utf-8"?>
<!-- Generator: Adobe Illustrator 24.0.2, SVG Export Plug-In . SVG Version: 6.00 Build 0)  -->
<svg version="1.1" id="Layer_1" xmlns="http://www.w3.org/2000/svg" xmlns:xlink="http://www.w3.org/1999/xlink" x="0px" y="0px"
	 viewBox="0 0 530.7 524.5" style="enable-background:new 0 0 530.7 524.5;" xml:space="preserve">
<style type="text/css">
	.st0{fill:url(#SVGID_1_);}
	.st1{fill:url(#SVGID_2_);}
	.st2{fill:#E500D7;}
</style>
<g>
	<linearGradient id="SVGID_1_" gradientUnits="userSpaceOnUse" x1="0.4721" y1="262.4012" x2="530.3483" y2="262.4012">
		<stop  offset="0" style="stop-color:#E500D7"/>
		<stop  offset="1" style="stop-color:#6341AD"/>
	</linearGradient>
	<path class="st0" d="M521.7,194.6v-12.2c4.8-0.2,8.6-4.1,8.6-9c0-5-4-9-9-9c-3.3,0-6.1,1.8-7.7,4.4l-42.9-23.4
		c0.5-1.3,0.8-2.8,0.8-4.3c0-6.8-5.5-12.4-12.4-12.4c-5.2,0-9.7,3.3-11.5,7.8l-20.8-7.4c0.2-0.6,0.3-1.3,0.3-2
		c0-3.9-3.2-7.1-7.1-7.1c-2.4,0-4.4,1.2-5.7,2.9l-23.8-15.3c0-0.2,0-0.3,0-0.5c0-2.9-2.3-5.2-5.2-5.2c-1.7,0-3.2,0.9-4.2,2.2
		l-46.1-28.1c0.2-0.6,0.3-1.3,0.3-2c0-4.1-3.3-7.4-7.4-7.4c-4.1,0-7.4,3.3-7.4,7.4c0,1.1,0.2,2.1,0.7,3l-16.3,13.4
		c-1.5-1.1-3.3-1.8-5.3-1.8c-0.3,0-0.6,0.1-1,0.1l-1.9-8.9c1.8-0.9,3-2.7,3-4.8c0-1.7-0.8-3.2-2-4.1l7.7-7.9c0.6,1.4,2,2.3,3.6,2.3
		c2.2,0,4-1.8,4-4c0-2-1.5-3.6-3.4-3.9l5.3-10.4c3.2-0.3,5.6-3,5.6-6.2c0-3.5-2.8-6.3-6.3-6.3c-0.1,0-0.2,0-0.2,0l-6.3-12.8
		c1.6-1,2.7-2.7,2.7-4.7c0-3.1-2.5-5.5-5.5-5.5c-3.1,0-5.5,2.5-5.5,5.5c0,1.6,0.7,3,1.7,4l-12.3,15c-1.2-0.9-2.7-1.4-4.3-1.4
		c-4,0-7.2,3.2-7.2,7.2c0,0.2,0,0.5,0.1,0.7l-14,2.1c-1.1-5.7-6.1-10.1-12.1-10.1c-6.8,0-12.3,5.5-12.3,12.3c0,0.1,0,0.3,0,0.4
		l-16.9,1.1c-0.3-3.1-2.9-5.6-6.1-5.6c-2.5,0-4.7,1.5-5.6,3.7l-9.9-2.3c0.1-0.5,0.1-0.9,0.1-1.4c0-4.6-3.7-8.3-8.3-8.3
		c-0.5,0-1,0.1-1.5,0.2l-4.9-20.1c1.5-1.5,2.5-3.6,2.5-6c0-4.7-3.8-8.5-8.5-8.5c-4.7,0-8.5,3.8-8.5,8.5c0,1,0.2,1.9,0.5,2.8l-14.7,5
		c-1.2-2.9-4-5-7.3-5c-3.4,0-6.2,2.1-7.4,5.1l-23.7-7.6c0-0.2,0.1-0.3,0.1-0.5c0-1.6-1.3-2.9-2.9-2.9s-2.9,1.3-2.9,2.9
		s1.3,2.9,2.9,2.9c0.6,0,1.1-0.2,1.5-0.5l9.1,11c-1.1,1.1-1.8,2.6-1.8,4.2c0,3.2,2.6,5.9,5.9,5.9c0.4,0,0.8,0,1.2-0.1l4.5,15.4
		c-1.5,0.6-2.6,2.1-2.6,3.8c0,0.3,0.1,0.6,0.2,0.8l-9.6,3.1c-0.9-2.2-3-3.7-5.4-3.7c-3.2,0-5.9,2.6-5.9,5.9c0,0.3,0,0.6,0.1,1
		l-13,3.1c-0.3-4-3.6-7.2-7.7-7.2c-2.7,0-5.1,1.4-6.5,3.6L63.4,44.6c0.3-0.6,0.4-1.2,0.4-1.8c0-2.4-2-4.4-4.4-4.4
		c-2.4,0-4.4,2-4.4,4.4c0,2.2,1.6,4,3.7,4.3l-0.8,12.2c-0.1,0-0.1,0-0.2,0c-4.8,0-8.7,3.9-8.7,8.7c0,4.8,3.9,8.7,8.7,8.7
		c0.1,0,0.2,0,0.4,0l1.8,19.7c-2.9,1.4-4.9,4.4-4.9,7.8c0,2.4,1,4.6,2.6,6.2l-11.4,16.5c-0.9-0.5-1.8-0.8-2.9-0.8
		c-3.2,0-5.7,2.6-5.7,5.7c0,1.2,0.4,2.3,1,3.3l-14.4,11.7c-1.3-1.5-3.3-2.4-5.4-2.4c-4.1,0-7.4,3.3-7.4,7.4c0,3.6,2.7,6.7,6.1,7.2
		l0.8-7.3l0.4,0L19,152l0.1-0.1l-0.8,7.1c0.1,0,0.3,0,0.4,0c2.1,0,4-0.9,5.3-2.3l14.6,4.8c-0.7,1-1.1,2.2-1.1,3.5
		c0,1.7,0.8,3.3,2,4.4l-11.3,10.3c-2-4.6-6.2-7.8-11.3-8.6l-1.6,14.3l-0.8-0.1l1.6-14.3c-0.4,0-0.8-0.1-1.2-0.1
		c-8,0-14.5,6.5-14.5,14.5c0,8,6.5,14.5,14.5,14.5c3.7,0,7-1.4,9.5-3.7l26.1,18.4c-0.7,1.1-1.1,2.3-1.1,3.7c0,3.9,3.1,7,7,7
		c3.9,0,7-3.1,7-7c0-1.2-0.3-2.3-0.8-3.3l14.9-9c0.9,2.4,3.2,4.1,5.9,4.1c3.5,0,6.4-2.9,6.4-6.4c0-1.2-0.4-2.4-1-3.4l25.2-6.7
		c1.4,4.7,5.7,8.1,10.8,8.3v18.1c-3.5,1.2-6.1,4.5-6.1,8.5c0,5,4,9,9,9c3.6,0,6.7-2.2,8.2-5.3l15,11.9c-1.2,1.6-1.9,3.6-1.9,5.7
		c0,5.4,4.4,9.8,9.8,9.8c4,0,7.4-2.4,8.9-5.8l13,5.2c-0.3,0.8-0.4,1.6-0.4,2.5c0,4.1,3.3,7.5,7.4,7.7v16.3c-0.1,0-0.3,0-0.4,0
		c-2.8,0-5.1,2.3-5.1,5.1c0,2.8,2.3,5.1,5.1,5.1c0.8,0,1.5-0.2,2.2-0.5l25.4,26.1c-2,1.8-3.3,4.4-3.3,7.3c0,5.4,4.3,9.7,9.6,9.8
		l0.2,13.2c-5.5,0.3-9.8,4.8-9.8,10.3c0,5.7,4.6,10.4,10.4,10.4c1.9,0,3.7-0.6,5.3-1.5l12,13.8c-2.4,1.2-4,3.7-4,6.5
		c0,4.1,3.3,7.4,7.4,7.4c2.3,0,4.3-1,5.6-2.7l11.6,16.7c-1.7,1.3-2.7,3.3-2.7,5.6c0,3.5,2.6,6.4,6,7l-1.6,16.2
		c-2.5,0.7-4.4,3-4.4,5.8c0,2.2,1.1,4,2.8,5.1l-4.8,9.1c-1.4-0.7-3-1.1-4.7-1.1c-6,0-10.9,4.9-10.9,10.9c0,1.8,0.5,3.6,1.3,5.1
		l-15.7,9.1c-1.3-2-3.5-3.3-6.1-3.3c-4,0-7.3,3.3-7.3,7.3c0,4,3.3,7.3,7.3,7.3c2.2,0,4.1-1,5.4-2.4l12,9.6c-0.7,1-1.1,2.3-1.1,3.6
		c0,3.5,2.8,6.3,6.3,6.3c2,0,3.8-1,5-2.5l8,5.3c-0.4,0.8-0.7,1.7-0.7,2.6c0,3,2.4,5.5,5.5,5.5s5.5-2.4,5.5-5.5c0-1.9-1-3.6-2.5-4.6
		l4.3-8c1.2,0.6,2.5,0.9,3.9,0.9c5,0,9.1-4.1,9.1-9.1c0-1.9-0.6-3.7-1.6-5.1l14.1-13.5c1.5,1.4,3.4,2.2,5.6,2.2
		c4.5,0,8.2-3.7,8.2-8.2c0-1.9-0.7-3.6-1.7-5l6.5-5.5c1.3,1.4,3.2,2.3,5.3,2.3c4.1,0,7.4-3.3,7.4-7.4c0-3.4-2.4-6.3-5.6-7.1l5-26.1
		c0.6,0.1,1.1,0.2,1.7,0.2c6.2,0,11.2-5,11.2-11.2c0-1.3-0.3-2.4-0.6-3.6l12.8-4.9c0.4,3,3,5.4,6.2,5.4c3.5,0,6.3-2.8,6.3-6.3
		c0-1.3-0.4-2.6-1.1-3.6l16.5-6.8c1.4,3.6,4.8,6.1,8.8,6.1c5.2,0,9.4-4.2,9.4-9.4c0-1-0.2-2-0.5-3l13.8-5.3c2,4.9,6.8,8.3,12.4,8.3
		c7.4,0,13.5-6,13.5-13.5c0-5.1-2.8-9.4-7-11.7l7.7-15.1c1.1,0.5,2.4,0.8,3.7,0.8c5,0,9-4,9-9c0-3.8-2.3-7-5.6-8.3l7.7-21.5
		c0.2,0,0.4,0.1,0.6,0.1c1.7,0,3-1.4,3-3c0-1.1-0.6-2.1-1.6-2.6l5.9-15c1.5,0.6,3.2,0.9,4.9,0.9c8,0,14.5-6.5,14.5-14.5
		c0-7.1-5.1-12.9-11.8-14.2l1.5-9.4c0.9,0.3,1.8,0.5,2.8,0.5c5,0,9.1-4.1,9.1-9.1c0-2.5-1-4.7-2.6-6.4l11.4-9.5
		c1.4,2.5,4.1,4.2,7.2,4.2c4.6,0,8.3-3.7,8.3-8.3c0-1.8-0.6-3.5-1.6-4.8l11.3-9c1.8,1.3,3.9,2.1,6.2,2.1c5.9,0,10.6-4.8,10.6-10.6
		C528.1,200,525.5,196.3,521.7,194.6z M493.2,218.5c-3,0-5.6,1.6-7,4l-7.8-7.3l4.3-14.9c0.6,0.4,1.3,0.8,2.1,0.8
		c1.6,0,3-1.1,3.4-2.6l18.4,3.5l-8.9,17.8C496.4,219,494.9,218.5,493.2,218.5z M450.4,288.2L434.1,305c-1.1-1.1-2.5-1.9-4.1-2.3
		l-1.8-18.9c1.9-0.4,3.3-2,3.3-3.9c0-0.9-0.3-1.7-0.8-2.4l11.6-10.4l7.3,3.1c-1.7,2.4-2.8,5.3-2.8,8.5
		C446.8,282.4,448.2,285.6,450.4,288.2z M377.5,384.5l-10.6-12.8l0.4-1.2l14.7-5.8v17.1C380.3,382.3,378.7,383.2,377.5,384.5z
		 M290.4,469.7l-16.1-6.2c0-0.2,0.1-0.4,0.1-0.6c0-0.8-0.3-1.4-0.8-1.9l7-9.5l13.9,2.9l1.5,11.4
		C293.6,466.2,291.6,467.7,290.4,469.7z M268.6,449l11.1,2.3l-6.8,9.2c-0.4-0.2-0.8-0.3-1.3-0.3c-0.4,0-0.8,0.1-1.1,0.2l-5.1-7.9
		C266.9,451.8,268,450.6,268.6,449z M281.1,450.8l5.9-8c1.5,1,3.4,1.6,5.3,1.6c0.3,0,0.5-0.1,0.8-0.1l1.2,9.2L281.1,450.8z
		 M292.4,425.3c-1.3,0-2.6,0.3-3.7,0.8L274.8,392l10.3,1.4c0,0.2-0.1,0.3-0.1,0.5c0,3.8,3.1,6.8,6.8,6.8c2.3,0,4.4-1.2,5.6-2.9
		l17.2,10.5c-1,1.7-1.7,3.7-1.7,5.8c0,2.2,0.7,4.3,1.8,6l-14.6,9.3C298.5,426.9,295.6,425.3,292.4,425.3z M243.5,383.9l1.3-15.3
		l12.3,2c0,0.4-0.1,0.8-0.1,1.2c0,5.4,4.4,9.8,9.8,9.8c1,0,1.9-0.2,2.8-0.4l4,9.8l-24.6-3.4C247.8,385.6,245.8,384.2,243.5,383.9z
		 M222.1,351.6l-0.2-13.2c2.3-0.1,4.3-1,5.9-2.4l17.4,16.3l-1.3,15.4l-12.5-2c0.4-1.1,0.7-2.4,0.7-3.7
		C232.2,356.3,227.7,351.8,222.1,351.6z M158.8,240.1c-0.4,0-0.9,0.1-1.3,0.1l-3.6-20.9c2.6-0.6,4.6-2.7,5-5.4l22.5,2.3
		c-0.2,1.1-0.4,2.1-0.4,3.3c0,3,0.9,5.8,2.4,8.1l-17.6,15.5C164.1,241.3,161.6,240.1,158.8,240.1z M49.2,194l11.3-9.8l17.9,15.7
		c-0.5,0.6-0.9,1.4-1.1,2.2l-27.9-5.9c0-0.2,0.1-0.4,0.1-0.6C49.4,194.9,49.3,194.4,49.2,194z M77,182.5c0.9,0,1.7-0.1,2.6-0.3
		l2.4,15.3c-1.2,0.3-2.3,0.9-3.1,1.7l-17.8-15.6l6.2-5.4C69.7,180.8,73.2,182.5,77,182.5z M83.4,197.4c-0.2,0-0.4,0-0.6,0.1
		L80.4,182c5.7-1.5,9.9-6.6,9.9-12.8c0-4.2-2-8-5.1-10.4l12.9-20.3c2.2,1.6,4.8,2.6,7.7,2.6c3.1,0,6-1.2,8.2-3l15.9,6.5l-1.4,12.9
		l-15.1,1.2c-0.3-1.8-1.8-3.1-3.7-3.1c-2.1,0-3.8,1.7-3.8,3.8c0,1.3,0.6,2.3,1.6,3l-21,35.6C85.4,197.7,84.5,197.4,83.4,197.4z
		 M81.3,132.6c-0.3-3.2-3-5.8-6.3-5.8c-1.8,0-3.4,0.7-4.5,1.9l-7-15.8c0.1,0,0.2,0,0.3,0c4.8,0,8.7-3.9,8.7-8.7
		c0-2.1-0.8-4.1-2.1-5.6L79.5,84l12.1,8.5c-2,1.3-3.3,3.6-3.3,6.1c0,4.1,3.3,7.4,7.4,7.4c1.3,0,2.5-0.4,3.5-0.9l3.4,10.6
		c-5.6,1.4-9.8,6.4-9.8,12.5c0,0.9,0.1,1.8,0.3,2.7L81.3,132.6z M65.2,72.4l18,4.3l-3.9,6.2L65,72.8C65.1,72.7,65.1,72.5,65.2,72.4z
		 M84,76.9l29.6,7.1c-0.1,0.5-0.2,1-0.2,1.6c0,4,3.3,7.3,7.3,7.3c0.4,0,0.8-0.1,1.1-0.1l4,14.4l-23-6.8c0.1-0.5,0.2-1.1,0.2-1.7
		c0-4.1-3.3-7.4-7.4-7.4c-1.2,0-2.3,0.3-3.3,0.8L80,83.3L84,76.9z M122.8,62l21.1,19.1c-2.7,1.5-4.7,4-5.4,7.1l-10.6-1.9
		c0-0.2,0.1-0.5,0.1-0.7c0-4-3.3-7.3-7.3-7.3c-0.1,0-0.1,0-0.2,0l-1.2-15C120.6,63.2,121.8,62.8,122.8,62z M142.1,52.2l16.2-1.8
		c0.5,3.4,2.6,6.2,5.5,7.7l-3.1,6.7L141.9,53C142,52.8,142.1,52.5,142.1,52.2z M164.6,58.5c1.2,0.5,2.6,0.8,4,0.8
		c3.3,0,6.3-1.6,8.2-4l12.9,5l1.1,15.6c-2.7,0.4-5.1,1.7-6.8,3.6l-22.6-14.1L164.6,58.5z M216.4,55.2c0.7,0,1.4-0.1,2.1-0.4
		l6.6,11.5c-2.8,0.3-5.1,1.9-6.6,4.1l-4.4-1.7l0.9-13.8C215.4,55.2,215.9,55.2,216.4,55.2z M289.6,77l-7.8,5.9l-11.1-8.8
		c0.6-0.9,1-2.1,1-3.3c0-0.9-0.2-1.7-0.6-2.5l6.5-3.6l12.5,7.5c-0.6,0.8-0.9,1.9-0.9,2.9C289.2,75.8,289.4,76.5,289.6,77z
		 M356.7,129.8c1.3-0.2,2.5-0.7,3.4-1.6L375,134c-0.1,0.7-0.2,1.4-0.2,2.1c0,3.2,1.4,6.1,3.6,8.2l-23.3,15.1
		c-1.5-3.6-4.5-6.3-8.2-7.5L356.7,129.8z M420.1,134.3c0.4,0,0.7-0.1,1.1-0.1l1.8,5.9l-26-1.9c0.1-0.6,0.2-1.3,0.2-2
		c0-0.2,0-0.4-0.1-0.6l16.3-6.2C414.3,132.2,416.9,134.3,420.1,134.3z M516.9,181.3l-10,19.9l-18.6-3.6c0-0.1,0.1-0.2,0.1-0.3
		c0-2-1.6-3.6-3.6-3.6c-0.9,0-1.7,0.4-2.3,0.9l-15.9-14.8l12-4.9c0.7,4.3,4.4,7.5,8.9,7.5c4.6,0,8.3-3.4,8.9-7.8l16.3,1.5
		C513.4,178.3,514.9,180.2,516.9,181.3z M478.4,173.4c0,0.2,0.1,0.5,0.1,0.7l-12.6,5.1l-4.3-4l-3.7-21.9c0.4,0,0.8,0.1,1.2,0.1
		c3.2,0,6-1.2,8.2-3.2l15.7,15.3C480.3,167.2,478.4,170.1,478.4,173.4z M462.1,203.3l-14.3-8c0.7-1.4,1.2-3,1.2-4.7
		c0-1.2-0.3-2.4-0.6-3.5l13.6-5.5l3.3,19.5C463.9,201.5,462.8,202.3,462.1,203.3z M436.4,233.6c-3.3,0.1-6,2.8-6,6.1
		c0,3.4,2.7,6.1,6.1,6.1c0.3,0,0.6,0,0.9-0.1l-5,16.3l-18.3-7.8c0.3-1.1,0.4-2.1,0.4-3.3c0-5.5-3.3-10.2-8.1-12.3l4.9-21.6
		c0.7,0.2,1.4,0.4,2.1,0.4c2.1,0,3.9-1,5.1-2.5l18.1,12.6L436.4,233.6z M428.2,302.5c-2.6,0-4.9,1.2-6.4,3.1l-9.4-5.4
		c0.5-1.2,0.8-2.5,0.8-3.9c0-5.9-4.8-10.6-10.6-10.6c-2.6,0-5,1-6.9,2.6l-16.5-13.2l14.2-13.1c2.2,1.6,4.9,2.5,7.8,2.5
		c3.4,0,6.5-1.3,8.8-3.4l14.4,16.2c-0.7,0.7-1.1,1.7-1.1,2.7c0,2.3,1.8,4.1,4.1,4.1l1.8,18.7C428.9,302.6,428.6,302.5,428.2,302.5z
		 M315.1,407.6l-17.3-10.5c0.5-1,0.8-2,0.8-3.2c0-1.9-0.8-3.6-2-4.8l7.4-8.4l14.6,23.8C317.2,405.3,316,406.3,315.1,407.6z
		 M296,388.5c-1.2-0.9-2.6-1.5-4.2-1.5c-1.2,0-2.3,0.3-3.2,0.8l-13.4-11.3c0.8-1.4,1.3-3.1,1.3-4.8c0-2.9-1.3-5.5-3.2-7.3l10.7-8.9
		c0.7,0.7,1.7,1.1,2.8,1.1c0.8,0,1.5-0.3,2.1-0.7l14.7,23.9L296,388.5z M223.6,319.2l5.9-11.4l10,3.9c0,0.4-0.1,0.8-0.1,1.2
		c0,5,3.6,9.2,8.3,10.2l-2.3,28.1l-16.9-15.8c1.7-1.8,2.7-4.1,2.7-6.8C231.1,324.1,227.9,320.2,223.6,319.2z M219,272.8l2.6-5.5
		l17.7,1.6c0,0.1,0,0.3,0,0.4c0,3.5,1.9,6.5,4.8,8.1l-10.4,20.3l-13-14.3c1.2-1.2,1.9-2.9,1.9-4.7C222.5,276.2,221.1,274,219,272.8z
		 M178.7,177.7l4.6-9.2c0.3,0.1,0.7,0.2,1.1,0.2c0.9,0,1.7-0.4,2.3-0.9l15.6,12.4c-1,1.3-1.5,3-1.5,4.8c0,3.3,1.9,6.1,4.7,7.4
		l-5.1,12.6c-1.3-0.4-2.7-0.6-4.1-0.6c-2.5,0-4.8,0.6-6.9,1.7l-10.2-17c1.8-1.2,2.9-3.2,2.9-5.6
		C182.1,181.1,180.7,178.9,178.7,177.7z M133.1,181.7c-1.7-1.6-3.9-2.6-6.3-3l2.3-20.4l13.4-1.1c0.4,2.3,1.7,4.3,3.5,5.7
		L133.1,181.7z M105.8,115.3c-0.8,0-1.6,0.1-2.3,0.2l-3.5-10.8c1.2-0.8,2.1-2,2.6-3.3l26.2,23.3c-0.4,0.6-0.8,1.3-0.8,2.2
		c0,2.1,1.7,3.8,3.8,3.8l-0.4,0l-1.5,13.2l-15.2-6.3c2.4-2.4,4-5.6,4-9.3C118.7,121.1,112.9,115.3,105.8,115.3z M127.8,87.1
		l10.6,1.9c-0.1,0.5-0.2,1-0.2,1.5c0,5.9,4.8,10.7,10.7,10.7c2.6,0,5-1,6.8-2.5l7.5,12.9c-2.3,0.8-4.1,2.6-4.8,5l-31.7-9.3
		l-4.1-14.8C125.2,91.8,127.3,89.8,127.8,87.1z M271.6,101.3c1.5,0,2.9-0.4,4-1.2l21.2,29.2c-3.1,1.7-5.4,4.7-6,8.4l-38.1-10.1
		c0.1-0.6,0.2-1.3,0.2-1.9c0-5-4-9-9-9c-5,0-9,4-9,9c0,5,4,9,9,9c1.3,0,2.6-0.3,3.7-0.8l6.9,27.5c-1.9,0.4-3.6,1.3-5,2.6l-25.9-27.3
		l7.5-27.9c2.8-0.1,5.3-1.7,6.7-3.9l30.1,13c-0.1,0.3-0.2,0.6-0.2,1c0,2,1.6,3.5,3.5,3.5c2,0,3.5-1.6,3.5-3.5c0-2-1.6-3.5-3.5-3.5
		l-1.6-14.3C270.4,101.2,271,101.3,271.6,101.3z M295.1,148.6l-6.6,10.5c-1-0.8-2.2-1.2-3.5-1.2c-1.9,0-3.6,1-4.7,2.4l-29.3-29
		c0.7-0.9,1.3-1.9,1.6-3l38.2,10.1c0,0.4-0.1,0.7-0.1,1.1C290.7,143.2,292.5,146.5,295.1,148.6z M355.8,166.7l41.4-4.8
		c0,0.1,0,0.2,0,0.3c0,0.9,0.2,1.7,0.4,2.6l-19.1,6.9c-0.6-0.4-1.3-0.7-2.1-0.7c-2.1,0-3.8,1.7-3.8,3.8c0,0.5,0.1,0.9,0.3,1.3
		l-10.5,19.2l-16.9-5.9l-1-12C350.2,176.7,354.8,172.3,355.8,166.7z M430.9,183.8l-18.7-15.5c1.5-1.6,2.4-3.7,2.4-6
		c0-0.4-0.1-0.8-0.1-1.2l14.8,0.3l5.9,19.6C433.6,181.5,432.1,182.5,430.9,183.8z M410.7,216.8l-4.9,21.6c-1.4-0.5-2.9-0.8-4.5-0.8
		c-4.3,0-8.1,2.1-10.6,5.3l-18.2-12.3l10.2-19.7c0.2,0,0.4,0.1,0.7,0.1c2.6,0,4.9-1.2,6.5-3l17.2,2.5c0,0.2-0.1,0.3-0.1,0.5
		C407,213.5,408.5,215.7,410.7,216.8z M392.1,294.5l-15.1-2.1c0.1-0.6,0.2-1.2,0.2-1.8c0-3.9-1.9-7.3-4.7-9.4l6.2-5.7l16.4,13.2
		C393.5,290.2,392.5,292.3,392.1,294.5z M366.1,333.2l-32.1-9.1c0.1-0.6,0.2-1.3,0.2-2c0-2.6-1.1-5-2.9-6.7l23.7-19
		c2,3.6,5.9,6,10.3,6c0,0,0.1,0,0.1,0l8,22.2C369.9,326.4,367.3,329.5,366.1,333.2z M321.5,330.7l-2.7,13.8l-18.4-2.5l-6.4-11.5
		c3.4-1.5,5.7-4.8,6-8.7l15.8,0.5C315.8,326.1,318.1,329.4,321.5,330.7z M314.5,362c-1,0-1.8,0.2-2.7,0.6l-11-19.7l17.7,2.4
		l-3.3,16.7C315.1,362,314.8,362,314.5,362z M286.7,348.9c-2.2,0-3.9,1.8-3.9,4c0,0.8,0.3,1.5,0.7,2.2l-10.9,9c-1.4-1-3-1.7-4.8-1.9
		l-2.9-21c1.4-0.3,2.4-1.4,2.7-2.8l19.8,2.7L286.7,348.9z M267.8,337.6c0,0,0-0.1,0-0.1c0-1.7-1.2-3.2-2.8-3.6l11.2-34.7
		c0.5,0.1,1,0.1,1.5,0.1c1,0,1.9-0.2,2.8-0.4l5,12.7c-3.6,1.6-6.2,5.2-6.2,9.5c0,5.3,4,9.6,9.1,10.2l-0.8,9L267.8,337.6z
		 M155.8,147.4l10.4-21.3c2.1-0.2,4-1.2,5.3-2.8l15.7,11.4c-1.3,0.6-2.3,1.7-2.6,3.1l-25.6,12.1C158,148.9,157,148,155.8,147.4z
		 M191.7,98l-0.4,36.4l-0.6,0.3c-0.6-0.2-1.2-0.4-1.8-0.4c-0.3,0-0.6,0-0.9,0.1l-16.2-11.8c0.7-1.1,1.1-2.5,1.1-3.9
		c0-1.1-0.3-2.2-0.7-3.1l13.8-19.4C187.7,97.3,189.7,97.9,191.7,98z M230.4,108.7l-7.3,27.2l-5.2-5.5c1.2-1.6,1.9-3.5,1.9-5.6
		c0-2.4-0.9-4.5-2.3-6.1l10.1-10.6C228.4,108.5,229.4,108.7,230.4,108.7z M210.2,134.3c2.8,0,5.4-1.3,7.1-3.3l5.5,5.8l-6.6,24.5
		c-0.2,0-0.4-0.1-0.7-0.1c-1,0-1.9,0.4-2.6,1l-20.5-20.3c0.7-0.8,1.1-1.8,1.1-2.9c0,0,0,0,0,0l0.2-0.3l-0.3-0.2
		c-0.1-1.1-0.6-2-1.3-2.7l0-0.8l9.9-5.2C203.8,132.4,206.8,134.3,210.2,134.3z M250.5,132l29.4,29.1c-0.4,0.8-0.6,1.7-0.6,2.6
		c0,3.2,2.6,5.7,5.7,5.7c0.1,0,0.2,0,0.3,0l5,16.5l-23.1-10.5c0.3-1,0.6-2.1,0.6-3.3c0-6-4.9-10.9-10.9-10.9c-0.5,0-0.9,0.1-1.4,0.1
		l-7-27.9C249.3,133,249.9,132.5,250.5,132z M327.1,210.1c0.5,0,1-0.1,1.5-0.2l-1.3,9.9l-14.3,2.4c-0.1-6-5-10.9-11.1-10.9
		c-1,0-1.9,0.2-2.8,0.4l-6.8-22.5l1.5-0.9l27.7,12.7c-0.4,0.8-0.7,1.8-0.7,2.8C320.8,207.3,323.6,210.1,327.1,210.1z M381.8,210.8
		l-10,19.3l-12.3-8.4c0.9-1.5,1.5-3.3,1.5-5.2c0-3.6-1.8-6.7-4.6-8.6l6.4-11.6l12.2,4.3c-0.1,0.6-0.2,1.2-0.2,1.8
		C374.8,206.5,377.8,210,381.8,210.8z M350.7,226.7c3.5,0,6.5-1.7,8.4-4.4l12.4,8.4l-6.1,11.8c-1.9-1.5-4.2-2.4-6.8-2.4
		c-4.8,0-8.8,3.1-10.3,7.4l-22-12.5l1.9-14.4l12.5-2.1C341.6,223.2,345.7,226.7,350.7,226.7z M387.9,251.7l-18.6,1
		c0.1-0.5,0.2-1.1,0.2-1.6c0-3.2-1.4-6-3.5-8l6.1-11.8l18,12.2c-1.4,2.1-2.3,4.7-2.3,7.5C387.9,251.2,387.9,251.5,387.9,251.7z
		 M300,321c0-5.7-4.7-10.3-10.4-10.3c-1.2,0-2.3,0.2-3.4,0.6l-5-12.7c4.7-1.5,8.2-5.9,8.2-11.1c0-0.9-0.1-1.7-0.3-2.6l29.5,2.4l-1,6
		c0,0-0.1,0-0.1,0c-1.8,0-3.3,1.5-3.3,3.3c0,1.8,1.5,3.3,3.3,3.3c0,0,0,0,0,0l-0.4,0.1l4.6,13.6c-3.3,1.3-5.6,4.3-5.9,7.9L300,321z
		 M238.5,237.3l19.5-20.4l4.5,0.9l2.7,24.3c-0.4-0.1-0.7-0.2-1.2-0.2c-1.7,0-3.2,1.2-3.6,2.8l-21.5-2.6c0.2-0.6,0.3-1.2,0.3-1.9
		C239.2,239.1,238.9,238.1,238.5,237.3z M217.1,185c0-0.8-0.1-1.5-0.3-2.2l30.1-6.5c1,2.4,2.8,4.3,5.1,5.5l-10.3,22.7
		c-0.7-0.3-1.5-0.5-2.4-0.5c-2,0-3.8,0.9-5,2.3l-20-15.2C216,189.6,217.1,187.4,217.1,185z M242.4,204.8l10.3-22.7
		c1.3,0.5,2.7,0.8,4.2,0.8c0.6,0,1.1-0.1,1.6-0.2l3.2,28.9l-4.1,4.3l-12.3-2.5c0.4-0.9,0.6-1.8,0.6-2.8
		C246,208.1,244.5,205.9,242.4,204.8z M261.9,212.7l0.5,4.2l-3.7-0.7L261.9,212.7z M311.6,227.7l13.6,7.7L322,260
		c-1,0-1.9,0.2-2.7,0.5l-12.5-28.1C308.8,231.4,310.5,229.7,311.6,227.7z M291.3,250l7.5-16.9c1,0.3,2,0.5,3,0.5
		c1.5,0,2.9-0.3,4.1-0.8l12.5,28.1c-1.8,0.9-3.2,2.6-3.9,4.5l-21.4-10.2c0.2-0.5,0.3-0.9,0.3-1.4C293.5,252.1,292.6,250.7,291.3,250
		z M292.6,216.2l-11.9-10.3c1.3-1.6,2.1-3.6,2.1-5.8c0-1.6-0.5-3.1-1.2-4.5l9.8-5.9l6.8,22.3C296,212.7,294,214.2,292.6,216.2z
		 M267.2,207.1c1.7,1.5,3.8,2.4,6.2,2.4c2.7,0,5.1-1.1,6.8-3l12,10.4c-0.9,1.6-1.5,3.5-1.5,5.5c0,0,0,0.1,0,0.1l-27.6-5.5l-0.6-5.1
		L267.2,207.1z M266,242.5l-2.7-24.5l27.6,5.5c0.4,4.4,3.3,8,7.2,9.4l-7.5,16.8c-0.4-0.1-0.9-0.2-1.3-0.2c-1.7,0-3.2,1-3.8,2.5
		l-17.6-6.1c0-0.1,0-0.1,0-0.2C267.8,244.3,267.1,243.2,266,242.5z M289.2,257.9c1.5,0,2.9-0.8,3.6-2l21.5,10.3
		c-0.1,0.5-0.2,1.1-0.2,1.6c0,3.8,2.8,7,6.4,7.7l-1.8,11.1l-29.9-2.4c-1-3.3-3.3-5.9-6.4-7.3l5.9-19
		C288.7,257.9,288.9,257.9,289.2,257.9z M325,312.9c-0.9,0-1.7,0.2-2.5,0.4l-4.5-13.6c1.6-0.2,2.9-1.5,2.9-3.2c0-1.5-1-2.7-2.3-3.1
		l1-6.1l34.1,2.7c0,0.2-0.1,0.4-0.1,0.5c0,1.8,0.5,3.6,1.2,5.1l-24,19.2C329.1,313.7,327.2,312.9,325,312.9z M353.6,289.3l-34.1-2.7
		l1.8-11c0.2,0,0.4,0.1,0.6,0.1c3.1,0,5.8-1.8,7-4.4l25.8,14.2C354.2,286.5,353.8,287.9,353.6,289.3z M322.8,260l3.2-24.2l21.9,12.4
		c-0.2,0.9-0.4,1.9-0.4,2.9c0,2,0.6,3.8,1.5,5.4l-21,6.3C326.8,261.3,324.9,260.2,322.8,260z M325.4,234.5L312,227
		c0.5-1.2,0.9-2.5,0.9-3.9l14.3-2.4L325.4,234.5z M292,188.4l-0.3-1l1.2,0.5L292,188.4z M291.2,188.8l-10,6
		c-1.7-2.5-4.6-4.2-7.8-4.2c-5.2,0-9.4,4.2-9.4,9.4c0,2.5,1,4.8,2.6,6.5l-4.1,4.3l-3.1-28.2c3.5-0.8,6.3-3.3,7.7-6.5l23.6,10.8
		L291.2,188.8z M246.1,170.7l-26.5-5.1c0-0.1,0.1-0.2,0.1-0.4c0-1.8-1.1-3.2-2.7-3.8l6.4-23.9l25.6,27
		C247.5,166.1,246.4,168.3,246.1,170.7z M189,143.5c1.1,0,2.2-0.4,3-1.1l20.5,20.3c-0.5,0.6-0.8,1.3-0.9,2.2l-24,0.2
		c-0.2-1.3-1.1-2.4-2.4-2.7l2.2-19.2C187.8,143.4,188.4,143.5,189,143.5z M187.5,165.9l24-0.2c0.2,2.1,1.9,3.7,4,3.7
		c1.9,0,3.4-1.3,3.9-3l26.6,5.1c0,0.2-0.1,0.4-0.1,0.5c0,1.2,0.2,2.3,0.6,3.4l-30.1,6.5c-1.2-3-4.1-5.2-7.6-5.2
		c-2.4,0-4.6,1.1-6.1,2.8l-15.7-12.5C187.3,166.8,187.5,166.3,187.5,165.9z M213.6,191.7l20.1,15.3c-0.7,1.1-1.1,2.3-1.1,3.7
		c0,3.7,3,6.7,6.7,6.7c2.4,0,4.5-1.2,5.6-3.1l12.1,2.4l-18.9,19.8c-1.2-1.8-3.2-2.9-5.5-2.9c-1.2,0-2.3,0.3-3.2,0.9l-18.3-41.6
		C212,192.6,212.9,192.2,213.6,191.7z M238.5,242.8l21.6,2.6c0,0.1-0.1,0.2-0.1,0.3c0,1.7,1.1,3.1,2.7,3.6l-8.9,12.2
		c-1.5-1-3.3-1.6-5.2-1.6c-1.5,0-2.9,0.4-4.2,1l-8.4-15.4C237.2,244.9,238,244,238.5,242.8z M254.6,262l9.1-12.6
		c0.1,0,0.2,0.1,0.3,0.1c1.8,0,3.2-1.2,3.7-2.8l17.5,6c-0.1,0.3-0.1,0.6-0.1,1c0,1.8,1.1,3.3,2.6,3.9l-5.9,18.9
		c-1.3-0.5-2.6-0.7-4-0.7c-4.6,0-8.6,2.7-10.5,6.6l-10.6-7.8c1-1.5,1.6-3.3,1.6-5.2C258.1,266.4,256.7,263.8,254.6,262z
		 M289.2,331.4c0.2,0,0.3,0,0.5,0c1.2,0,2.4-0.3,3.5-0.7l6.2,11.1l-11-1.5L289.2,331.4z M371.8,280.7c-1.9-1.2-4.1-1.9-6.5-1.9
		c-4.3,0-8.1,2.3-10.2,5.8l-25.9-14.2c0.3-0.8,0.5-1.7,0.5-2.6c0-1.6-0.5-3-1.3-4.2l20.8-6.2c2,2.9,5.3,4.8,9.1,4.8c1,0,2-0.2,3-0.5
		L378,275L371.8,280.7z M362.4,261.4c3.4-1.3,6-4.2,6.8-7.8l18.8-1.1c0.4,3.5,2.2,6.6,4.8,8.7l-14.2,13.2L362.4,261.4z M407.1,209.6
		l-16.7-2.4c1-1.4,1.5-3.1,1.5-4.9c0-4.7-3.8-8.6-8.6-8.6c-3.8,0-7.1,2.5-8.2,6l-12.1-4.2l10.2-18.6c0.7,1,1.8,1.7,3.1,1.7
		c2.1,0,3.8-1.7,3.8-3.8c0-1-0.4-1.8-1-2.5l18.6-6.7c1.1,2.7,3.6,4.7,6.5,5.2l6.2,34.3C408.8,206,407.5,207.6,407.1,209.6z M362,196
		l-6.3,11.5c-1.5-0.8-3.2-1.3-5-1.3c-1.3,0-2.5,0.3-3.7,0.7l-1.4-16.6L362,196z M346.2,207.2c-3.4,1.7-5.8,5.2-5.8,9.2
		c0,0.4,0.1,0.8,0.1,1.2l-12.4,2l1.3-10c2.3-0.9,4-3.2,4-5.9c0-3.5-2.9-6.4-6.4-6.4c-2.2,0-4.2,1.1-5.3,2.9l-27.3-12.5l10.4-6.2
		c1,0.7,2.1,1.1,3.4,1.1c2.4,0,4.5-1.5,5.4-3.5l31,10.8L346.2,207.2z M304.3,181l-10.6,6.4l-2.3-1.1l-5.2-17.1
		c1.5-0.3,2.8-1.2,3.7-2.5l13.3,7.5c-0.4,0.8-0.6,1.6-0.6,2.5C302.5,178.5,303.2,179.9,304.3,181z M268.9,100.7l1.6,14.7
		c-1,0.2-1.7,0.8-2.2,1.6l-30.1-13c0.5-1.1,0.9-2.3,0.9-3.6c0-1.2-0.3-2.4-0.8-3.5l12.1-12l14.2,5.3c-0.5,1-0.8,2.1-0.8,3.3
		C264,96.9,266,99.7,268.9,100.7z M226.7,107.6l-9.9,10.4c-1.5-1.5-3.5-2.4-5.7-2.6l1.2-18.9l10.2,3.1c0,0.3-0.1,0.6-0.1,1
		C222.5,103.6,224.2,106.2,226.7,107.6z M210.4,115.3c-0.1,0-0.1,0-0.2,0c-5.2,0-9.5,4.3-9.5,9.5c0,1.5,0.4,2.9,1,4.2l-9.5,5
		l0.4-35.9c3.7-0.1,6.9-2,8.9-4.8l10.1,3L210.4,115.3z M185.5,95.7l-13.6,19.1c-1.3-2.1-3.6-3.5-6.3-3.5c-0.5,0-1,0.1-1.5,0.2
		l-7.6-13.2c2-1.9,3.2-4.7,3.2-7.7c0-0.1,0-0.2,0-0.4l21.5-2.4C181.4,91,183,93.8,185.5,95.7z M158.3,117.5
		c-0.1,0.4-0.1,0.8-0.1,1.2c0,4,3.1,7.2,7.1,7.4L155,147c-1.1-0.4-2.2-0.7-3.4-0.7c-1.8,0-3.5,0.5-4.9,1.4l-12.5-18.1
		c0.8-0.7,1.3-1.7,1.3-2.8c0-2.1-1.7-3.8-3.8-3.8c-0.2,0-0.4,0.1-0.6,0.1l-4.2-14.8L158.3,117.5z M130.4,123.3
		c-0.4,0.2-0.8,0.4-1.1,0.7l-25.4-22.5l22.2,6.5L130.4,123.3z M132.2,130.6l-0.4,0c0.7,0,1.2-0.2,1.8-0.5l12.5,18.1
		c-0.6,0.4-1.1,1-1.6,1.5l-13.7-5.7L132.2,130.6z M143.9,150.5c-1,1.5-1.6,3.3-1.6,5.2c0,0.3,0.1,0.6,0.1,0.8l-13.2,1l1.4-12.5
		L143.9,150.5z M159.4,150.6l25-11.8c0,0,0,0.1,0,0.1c0,1.6,0.9,3.1,2.2,3.9l-2.2,19.4c-1.2,0-2.3,0.7-2.8,1.8l-20.7-7.7
		c0-0.2,0.1-0.4,0.1-0.6C160.9,153.8,160.3,152,159.4,150.6z M201.1,205.2l5.1-12.5c0.8,0.3,1.7,0.5,2.7,0.5c0.5,0,0.9-0.1,1.4-0.1
		l18.4,41.9c-0.9,0.7-1.7,1.6-2.1,2.7l-16.8-11.2c1-2,1.6-4.3,1.6-6.7C211.5,212.9,207.1,207.3,201.1,205.2z M232.6,246.6
		c1,0,1.9-0.2,2.8-0.6l8.4,15.4c-2.4,1.4-4,3.9-4.4,6.8l-17.4-1.5l9.7-20C232,246.6,232.3,246.6,232.6,246.6z M244.8,277.9
		c1.2,0.6,2.5,0.9,3.9,0.9c3,0,5.6-1.4,7.3-3.5l10.8,7.9c-0.5,1.3-0.9,2.8-0.9,4.3c0,5.7,4.1,10.4,9.4,11.5l-11.1,34.7
		c-0.1,0-0.2-0.1-0.3-0.1c-0.3,0-0.6,0.1-0.9,0.2l-8.6-11.7c3.3-1.7,5.6-5.2,5.6-9.2c0-5.7-4.7-10.4-10.4-10.4c-3.3,0-6.2,1.6-8.1,4
		l-7.3-8L244.8,277.9z M241.1,307.1c-0.7,1.1-1.3,2.4-1.5,3.7l-9.7-3.8l4-7.8L241.1,307.1z M248.5,323.2c0.4,0.1,0.8,0.1,1.3,0.1
		c1.4,0,2.8-0.3,4-0.8l8.5,11.6c-1.2,0.6-2.1,1.9-2.1,3.4c0,2.1,1.7,3.9,3.9,3.9c0,0,0.1,0,0.1,0L267,362c-0.1,0-0.2,0-0.3,0
		c-2.7,0-5.1,1.1-6.9,2.8L246.1,352L248.5,323.2z M289.6,355.6c0.7-0.7,1.1-1.7,1.1-2.8c0-1.9-1.4-3.4-3.2-3.8l0.7-7.9l11.6,1.6
		l11.3,20.2c-1.7,1.1-2.8,3-2.8,5.2c0,1.7,0.7,3.2,1.8,4.4l-6,6.8L289.6,355.6z M316.1,362.2l3.3-16.8l21,2.9c0,0.1,0,0.2,0,0.3
		c0,2.8,2.3,5.1,5.1,5.1c1.5,0,2.9-0.7,3.8-1.8l6.2,7.5l-35,7.4C320.1,364.6,318.4,362.8,316.1,362.2z M349.9,351.3
		c0.5-0.8,0.8-1.7,0.8-2.7c0-2.8-2.3-5.1-5.1-5.1c-2.5,0-4.5,1.7-5,4l-21-2.9l2.7-13.7c0.9,0.3,1.8,0.5,2.7,0.5
		c4.2,0,7.6-2.8,8.8-6.5l32.1,9.1c-0.3,1.1-0.5,2.3-0.5,3.5c0,5.9,3.6,10.9,8.7,13.1L372,356l-15.5,3.3L349.9,351.3z M374.9,350.8
		c1.5,0.5,3,0.8,4.6,0.8c0.9,0,1.7-0.1,2.5-0.3v2.5l-9,1.9L374.9,350.8z M382.8,351.2c2.5-0.6,4.7-1.8,6.4-3.5l3.9,3.8l-10.3,2.2
		V351.2z M379.5,323.3c-1.9,0-3.7,0.4-5.3,1l-7.9-21.9c5.2-0.4,9.5-4.2,10.6-9.2l15.1,2.1c0,0.3-0.1,0.6-0.1,0.9
		c0,4.7,3.1,8.7,7.3,10.1l-12.4,19.1C384.7,324.1,382.2,323.3,379.5,323.3z M427.4,275.8c-0.9,0-1.7,0.3-2.4,0.8l-14.4-16.2
		c1.5-1.5,2.6-3.4,3.2-5.4l18.3,7.8l-4,13.1C427.9,275.9,427.7,275.8,427.4,275.8z M419.1,214.3c0.6-1,1-2.1,1-3.4
		c0-3.6-2.9-6.5-6.5-6.5c-0.8,0-1.5,0.2-2.2,0.4l-6.1-33.9c0.2,0,0.5,0.1,0.7,0.1c2.2,0,4.2-0.8,5.7-2.2l18.8,15.6
		c-1.3,1.7-2.2,3.9-2.2,6.3c0,5.5,4.3,9.9,9.6,10.3l-1.1,25.7L419.1,214.3z M448,186.4c-1.6-3.6-5.2-6.1-9.4-6.1
		c-0.9,0-1.8,0.2-2.6,0.4l-5.8-19.4l12.6,0.2c0.2,1.6,1.5,2.9,3.2,2.9c0.8,0,1.5-0.3,2-0.8l12.9,12l0.9,5.3L448,186.4z M461.9,176.5
		l3.2,3l-2.5,1L461.9,176.5z M457.1,153.3l3.5,21L448.5,163c0.4-0.5,0.7-1.1,0.7-1.9c0-1.8-1.5-3.2-3.2-3.2c-1.6,0-2.9,1.2-3.1,2.8
		l-12.9-0.2l-5.9-19.5l22.9,1.7C447.6,148.1,451.8,152.4,457.1,153.3z M429.1,160.4l-14.7-0.3c-0.9-3.8-4.3-6.7-8.5-6.7
		c-4.4,0-8,3.3-8.6,7.6l-41.4,4.8c0.1-0.5,0.2-1,0.2-1.5c0-1.4-0.3-2.8-0.7-4.1l23.7-15.4c1.9,1.5,4.3,2.5,6.9,2.5
		c5.2,0,9.6-3.6,10.8-8.4l26.4,2L429.1,160.4z M342.9,177.5c0.2,0,0.5-0.1,0.7-0.1l1,11.7L314,178.3c0.1-0.5,0.2-1,0.2-1.5
		c0-2.2-1.3-4.1-3.1-5.1l9.3-20.5l11.1,6.9c-1.1,1.9-1.7,4.1-1.7,6.4C329.8,171.6,335.7,177.5,342.9,177.5z M310.4,171.3
		c-0.6-0.2-1.3-0.4-2-0.4c-2,0-3.8,1-4.9,2.6l-13.3-7.5c0.4-0.7,0.6-1.6,0.6-2.4c0-1.5-0.6-2.9-1.6-4l6.6-10.5
		c1.9,1.3,4.2,2.1,6.7,2.1c4.1,0,7.7-2.1,9.8-5.2l7.5,4.6L310.4,171.3z M312.6,145.3c1-1.7,1.6-3.7,1.6-5.8c0-2.4-0.7-4.6-2-6.5
		l21.3-23.2c1.1,0.9,2.3,1.6,3.7,2l-17.2,38L312.6,145.3z M333,109.4l-21.2,23.1c-1.8-2.4-4.5-4-7.6-4.4l-2.8-21.4
		c4.2-0.7,7.4-4.4,7.4-8.8c0-0.7-0.1-1.4-0.3-2.1l21.5,4.2c-0.1,0.6-0.2,1.3-0.2,1.9C329.8,104.8,331,107.4,333,109.4z M299.7,106.8
		c0.3,0,0.5-0.1,0.8-0.1l2.8,21.2c-0.3,0-0.5-0.1-0.8-0.1c-1.7,0-3.4,0.4-4.8,1.1l-21.3-29.3c1.8-1.4,3-3.6,3-6c0-2.3-1-4.3-2.6-5.7
		l5.1-3.9l10.7,8.5c-1.1,1.5-1.7,3.3-1.7,5.3C290.7,102.7,294.8,106.8,299.7,106.8z M276.1,87.4c-1.3-0.9-2.8-1.4-4.4-1.4
		c-2.8,0-5.1,1.5-6.5,3.6l-14-5.2l10.2-10c1.1,1.4,2.7,2.3,4.6,2.3c1.7,0,3.2-0.7,4.3-1.9l10.9,8.7L276.1,87.4z M270.8,67.7
		c-1-1.6-2.8-2.6-4.9-2.6c-0.9,0-1.8,0.2-2.6,0.6l-5-8.4c1.1-0.7,2-1.5,2.8-2.5l15.8,9.5L270.8,67.7z M243.3,55.9
		c2.2,2,5.1,3.3,8.4,3.3c2.2,0,4.2-0.6,5.9-1.6l5,8.4c-1.5,1.1-2.5,2.8-2.5,4.8c0,1,0.3,2,0.7,2.8l-10.6,10.4l-15.7-5.9
		c0.3-0.9,0.5-1.9,0.5-2.9c0-3-1.5-5.6-3.7-7.3L243.3,55.9z M218.1,71.3c-0.6,1.2-1,2.6-1,4c0,5,4,9,9,9c3.7,0,6.8-2.2,8.2-5.3
		l15.4,5.7L238,96.2c-1.4-2.4-4.1-4.1-7.1-4.1c-4,0-7.3,2.8-8.1,6.5l-10.3-3.1l1.6-25.9L218.1,71.3z M211.6,95.4l-9.8-2.9
		c1-1.7,1.6-3.6,1.6-5.6c0-6.2-5-11.2-11.2-11.2c-0.2,0-0.4,0.1-0.7,0.1l-1.1-15.1l22.7,8.8L211.6,95.4z M183.4,80.1
		c-1.5,1.9-2.4,4.2-2.4,6.8c0,0,0,0,0,0.1l-21.5,2.4c-0.4-3.6-2.5-6.6-5.5-8.2l7-15.1L183.4,80.1z M113.4,159.6l14.9-1.2l-2.3,20.3
		c-0.3,0-0.6-0.1-0.9-0.1c-1.2,0-2.4,0.2-3.5,0.6l-9.8-16.7C112.7,161.8,113.4,160.8,113.4,159.6z M133.7,182.3l13-18.9
		c1.4,0.9,3.1,1.4,4.9,1.4c0.9,0,1.7-0.2,2.5-0.4v21.6l-17.4,2.5C136.4,186.2,135.3,184,133.7,182.3z M154.9,164.3
		c3.1-1.2,5.3-3.9,5.9-7.2l20.5,7.7c-0.1,0.2-0.1,0.5-0.1,0.7c0,1.1,0.6,2.1,1.5,2.7l-4.6,9.2c-0.8-0.3-1.7-0.5-2.6-0.5
		c-3.7,0-6.8,3-6.8,6.8c0,0.2,0,0.4,0.1,0.5l-13.8,2V164.3z M168.7,184.9c0.6,3.1,3.3,5.4,6.6,5.4c1.1,0,2.2-0.3,3.1-0.8l10.2,16.9
		c-3.4,2-5.9,5.2-7,9l-22.7-2.4c0-0.1,0-0.2,0-0.3c0-2.8-1.7-5.2-4.1-6.2v-19.8L168.7,184.9z M209.4,227l16.9,11.3
		c-0.2,0.6-0.3,1.1-0.3,1.7c0,3,2.1,5.5,4.8,6.3l-9.7,20.1l-9.3-0.8l-10.5-31.8C204.8,232.6,207.7,230.2,209.4,227z M220.8,267.3
		l-2.5,5.2c-0.8-0.3-1.7-0.5-2.6-0.5c-0.6,0-1.2,0.1-1.7,0.2l-1.9-5.7L220.8,267.3z M220,284.1l13.3,14.5l-4.2,8.2l-10.9-4.3
		l-1.4-16.9C217.9,285.3,219.1,284.8,220,284.1z M228.7,307.5l-5.9,11.6c-0.5-0.1-0.9-0.1-1.4-0.1c-0.6,0-1.2,0.1-1.7,0.2l-1.3-15.7
		L228.7,307.5z M246,353l13.3,12.4c-1.1,1.2-1.9,2.7-2.2,4.4l-12.3-2L246,353z M270.3,380.9c1.9-0.7,3.5-2,4.6-3.6l13,11
		c-1.4,1-2.4,2.5-2.7,4.2l-10.7-1.5L270.3,380.9z M324.2,402.9c-1.8,0-3.4,0.4-4.9,1.2l-14.7-24l6.2-7c1,0.8,2.3,1.3,3.8,1.3
		c2.6,0,4.8-1.6,5.7-3.8l22.8,6.1c-0.1,0.3-0.1,0.6-0.1,1c0,1.7,0.8,3.2,2.1,4.2l-14.6,23C328.6,403.6,326.5,402.9,324.2,402.9z
		 M348.2,372.3c-2.3,0-4.2,1.5-5,3.5l-22.7-6.1c0.1-0.5,0.2-1.1,0.2-1.6c0-0.2,0-0.4-0.1-0.6l35.5-7.5l8.7,10.5l-12,4.7
		C352.1,373.6,350.3,372.3,348.2,372.3z M357.1,359.9l14.6-3.1l-5,13.1l-1,0.4L357.1,359.9z M366.3,371L366.3,371L366.3,371
		L366.3,371z M367.7,369.5l4.9-12.8l9.4-2v9.2L367.7,369.5z M382.8,354.5l11-2.3l5.1,5.1l-16.1,6.3V354.5z M394.8,352l33.8-7.1
		c0.1,0.2,0.1,0.4,0.2,0.6l-29,11.4L394.8,352z M428.2,342.6c0,0.5,0.1,1,0.1,1.5l-34.3,7.2l-4.2-4.2c2.4-2.5,3.8-5.9,3.8-9.6
		c0-4.8-2.4-9.1-6.1-11.6l12.5-19.3c0.8,0.2,1.6,0.3,2.5,0.3c1.6,0,3-0.4,4.4-1l2.4,22.9c-2,0.4-3.5,2.2-3.5,4.3
		c0,2.4,2,4.4,4.4,4.4c2.4,0,4.4-2,4.4-4.4s-2-4.4-4.4-4.4c0,0,0,0-0.1,0l-2.5-23.2c1.9-1.1,3.4-2.6,4.4-4.6l9.3,5.3
		c-0.8,1.3-1.3,2.8-1.3,4.4c0,4.5,3.7,8.2,8.2,8.2c0.6,0,1.2-0.1,1.8-0.2l3.2,15.9C430.3,336.1,428.2,339.1,428.2,342.6z
		 M430.2,276.9c-0.3-0.3-0.7-0.6-1.2-0.8l4-12.9l8.5,3.6L430.2,276.9z M433.2,262.4l5.2-16.8c2.5-0.8,4.3-3.1,4.3-5.8
		c0-3.2-2.4-5.7-5.5-6.1l0.2-5.5l22.2,15.5c-0.3,0.9-0.5,1.9-0.5,2.9c0,1.3,0.3,2.5,0.8,3.7l-17.8,15.9L433.2,262.4z M468.2,237.6
		c-3.7,0-6.8,2.2-8.2,5.3l-22.4-15.7l1.2-26.2c3.7,0,6.9-2,8.7-5l14.3,8c-0.3,0.7-0.5,1.4-0.5,2.1c0,2.8,2.3,5.1,5.1,5.1
		c1.8,0,3.4-0.9,4.3-2.3l6.8,6.4l-6.5,22.6C470.1,237.8,469.2,237.6,468.2,237.6z M471.1,208.3c0.3-0.6,0.5-1.4,0.5-2.1
		c0-2.8-2.3-5.1-5.1-5.1c-0.1,0-0.3,0-0.4,0l-3.3-19.7l3.1-1.2l16.2,15.1c-0.4,0.6-0.8,1.3-0.8,2.1c0,0.9,0.3,1.6,0.9,2.3l-4.3,14.9
		L471.1,208.3z M517.4,193.7c-2.8,0-5.4,1.1-7.3,2.9l7.5-15c1,0.4,2.1,0.7,3.3,0.7v11.9C519.8,194,518.7,193.7,517.4,193.7z
		 M513.2,169.5c-0.6,1.2-0.9,2.5-0.9,3.9c0,0.6,0.1,1.2,0.2,1.8l-16-1.4c0-0.1,0-0.3,0-0.4c0-5-4-9-9-9c-1.3,0-2.6,0.3-3.7,0.8
		L468,149.8c1-1,1.8-2.3,2.5-3.6L513.2,169.5z M447.4,137.4c-0.4,1.2-0.6,2.4-0.6,3.7c0,0.3,0.1,0.5,0.1,0.7l-23.1-1.7l-1.9-6.1
		c2.1-0.6,3.8-2.1,4.6-4L447.4,137.4z M413.9,123.7c-0.6,1-0.9,2.2-0.9,3.5c0,0.5,0.1,1,0.1,1.4l-16.1,6.1c-0.6-5-4.5-8.9-9.5-9.6
		l-0.7-12.9c1.8-0.5,3.2-1.9,3.6-3.6L413.9,123.7z M380.8,104.9c-0.4,0.7-0.6,1.5-0.6,2.3c0,2.9,2.3,5.2,5.2,5.2
		c0.2,0,0.4,0,0.5-0.1l0.7,12.7c-0.2,0-0.5-0.1-0.7-0.1c-5.2,0-9.5,3.5-10.8,8.3l-14.6-5.7c0.7-0.9,1.1-2,1.1-3.3
		c0-3.1-2.5-5.6-5.6-5.6c-3.1,0-5.6,2.5-5.6,5.6c0,3,2.4,5.5,5.4,5.6l-9.7,21.8c-1-0.3-2.1-0.4-3.2-0.4c-4.6,0-8.7,2.4-11,6
		l-11.2-6.9l17.3-38.2c0.8,0.2,1.5,0.3,2.3,0.3c5.2,0,9.5-3.7,10.4-8.7l11,4c0,0.2-0.1,0.4-0.1,0.7c0,1.7,1.4,3.1,3.1,3.1
		s3.1-1.4,3.1-3.1c0-1.7-1.4-3.1-3.1-3.1c-1.2,0-2.2,0.7-2.7,1.7l-11.2-4c0-0.4,0.1-0.7,0.1-1.1c0-5.8-4.7-10.6-10.6-10.6
		c-0.5,0-0.9,0.1-1.4,0.1l-5.8-12c0.7-0.7,1.3-1.5,1.7-2.5L380.8,104.9z M321.8,77.8c1.3,2.2,3.6,3.6,6.3,3.6c1.7,0,3.2-0.6,4.4-1.5
		l5.6,11.6c-3.9,0.8-6.9,3.8-7.9,7.6l-22-4.3c-0.5-1.5-1.4-2.7-2.5-3.7L321.8,77.8z M298,88.9c-2,0.4-3.7,1.5-5,2.9l-10.5-8.4
		l7.5-5.7c0.9,1.6,2.6,2.7,4.6,2.7c0.5,0,1.1-0.1,1.5-0.3L298,88.9z M297.3,70.6c-0.8-0.5-1.7-0.7-2.7-0.7c-1.6,0-3,0.7-3.9,1.8
		l-12.2-7.3l19.8-11.2l7.7,6.2c-0.4,0.6-0.7,1.3-0.7,2.1c0,0.3,0.1,0.5,0.2,0.8L297.3,70.6z M314.3,47.1l-5.3,10.3
		c-1,0.1-2,0.5-2.6,1.2l-7.4-5.9L311,46C311.9,46.7,313.1,47.1,314.3,47.1z M302.1,21.6c0.9,0.6,2,1,3.2,1c0.7,0,1.4-0.1,2.1-0.4
		l6.2,12.5c-2.9,0.5-5.2,3.1-5.2,6.2c0,1.8,0.8,3.4,2,4.5l-11.9,6.7l-7.6-6.1c0.8-1.2,1.4-2.6,1.4-4.2c0-2.1-0.9-4-2.3-5.3
		L302.1,21.6z M277.8,43.3c0.7,3.3,3.6,5.7,7.1,5.7c2.1,0,4-0.9,5.4-2.4l7.3,5.9l-19.9,11.2l-16.1-9.7c1.5-2,2.4-4.5,2.4-7.2
		c0-0.5-0.1-1-0.1-1.4L277.8,43.3z M242.7,55.4l-12.1,12.2c-1.3-0.8-2.9-1.3-4.5-1.3c-0.1,0-0.1,0-0.2,0l-6.7-11.8
		c1.9-1,3.2-2.9,3.3-5.2l16.9-1.1C239.7,50.9,240.9,53.5,242.7,55.4z M210.5,47.4c-0.2,0.5-0.3,1.1-0.3,1.7c0,2.6,1.6,4.8,3.9,5.7
		l-0.9,13.7l-22.9-8.8l-0.6-9c0.9,0.3,1.8,0.5,2.9,0.5c3.8,0,7-2.6,8-6.1L210.5,47.4z M184.3,42.9c0,3.3,1.9,6.1,4.6,7.4l0.6,9
		l-12.3-4.8c1.1-1.6,1.7-3.6,1.7-5.7c0-4.3-2.7-8.1-6.4-9.6l7.2-22.1c0.2,0,0.3,0,0.5,0c2,0,3.8-0.7,5.3-1.9l4.8,19.7
		C186.9,36,184.3,39.1,184.3,42.9z M172.6,12.3c1.2,2.5,3.5,4.3,6.3,4.7l-7.1,22c-1-0.3-2.1-0.6-3.2-0.6c-1.2,0-2.3,0.2-3.3,0.6
		l-10-13.5c1.8-1.5,2.9-3.6,2.9-6.1c0-0.7-0.1-1.5-0.3-2.1L172.6,12.3z M133,31.8c2.2-0.8,3.9-3,3.9-5.5c0-3.2-2.6-5.9-5.9-5.9
		c-1.3,0-2.5,0.4-3.4,1.1l-9.1-11c0.2-0.2,0.3-0.4,0.5-0.7l23.7,7.6c-0.2,0.6-0.3,1.3-0.3,2c0,4.4,3.5,7.9,7.9,7.9
		c1.6,0,3.1-0.5,4.4-1.3l9.8,13.2c-3.7,1.6-6.3,5.3-6.3,9.6c0,0.3,0.1,0.5,0.1,0.7l-15.9,1.8c0-0.1,0-0.1,0-0.1
		c0-2.3-1.8-4.1-4.1-4.1c-0.3,0-0.5,0.1-0.7,0.1L133,31.8z M134.5,52.9c0.6,1.4,2.1,2.5,3.7,2.5c1.3,0,2.4-0.7,3.2-1.6l18.9,11.9
		l-7.1,15.2c-1.3-0.6-2.8-0.9-4.3-0.9c-1.5,0-3,0.3-4.3,0.9l-21.2-19.2c1-1.1,1.7-2.5,1.7-4.1c0-0.5-0.1-1-0.2-1.4L134.5,52.9z
		 M118.5,63.2l1.2,15.2c-2.7,0.4-5,2.3-5.8,4.8l-29.4-7l4.6-7.3c1.1,0.6,2.4,1,3.8,1c4.2,0,7.6-3.4,7.8-7.6l13.1-3.1
		C114.4,61.3,116.2,62.9,118.5,63.2z M59.5,47.1c1.4,0,2.7-0.8,3.4-1.8l23,13.2C85.4,59.6,85,60.8,85,62c0,2.6,1.3,5,3.3,6.4
		l-4.7,7.6l-18-4.3c0.5-1.1,0.8-2.3,0.8-3.6c0-4.5-3.4-8.1-7.7-8.6L59.5,47.1z M58.9,76.6c2.2-0.3,4.2-1.5,5.6-3.1l14.4,10.1
		l-9,14.4c-1.6-1.5-3.7-2.5-6.1-2.5c-1.1,0-2.1,0.2-3.1,0.6L58.9,76.6z M58.3,110.9c1.2,1,2.6,1.6,4.2,1.9l7.4,16.6
		c-0.8,1-1.2,2.3-1.2,3.7c0,3.5,2.8,6.3,6.3,6.3c3.4,0,6.1-2.7,6.3-6l12.1-1.7c0.7,2.5,2.1,4.7,4.1,6.3l-12.9,20.3
		c-2.1-1.5-4.7-2.4-7.5-2.4c-3.3,0-6.2,1.2-8.5,3.2l-21.1-23.3c1-1,1.6-2.4,1.6-4c0-1.8-0.9-3.4-2.2-4.4L58.3,110.9z M24.7,156.1
		c0.9-1.2,1.5-2.7,1.5-4.4c0-1.6-0.5-3.1-1.4-4.3l14.4-11.7c1,1.1,2.5,1.8,4.2,1.8c1.3,0,2.5-0.5,3.5-1.2l21,23.3
		c-2.5,2.4-4.1,5.8-4.1,9.6c0,3.2,1.2,6.1,3,8.4l-6.3,5.5L46,170.4c2-0.9,3.4-3,3.4-5.4c0-3.3-2.7-5.9-5.9-5.9
		c-1.7,0-3.2,0.7-4.2,1.8L24.7,156.1z M40.2,169.9c1,0.6,2.1,1,3.3,1c0.6,0,1.1-0.1,1.6-0.2l14.7,12.9l-11,9.6
		c-0.8-1.5-2.4-2.5-4.2-2.5c-2.6,0-4.8,2.1-4.8,4.7L28,191.5c0.9-1.9,1.4-3.9,1.4-6.1c0-1.7-0.3-3.3-0.9-4.8L40.2,169.9z
		 M62.2,214.3c-1.3-1.8-3.4-3-5.8-3c-2.2,0-4.2,1.1-5.5,2.7l-25.9-18.3c1-1,1.8-2.2,2.5-3.4l12.2,4c0.4,2.3,2.3,4.1,4.8,4.1
		c2.2,0,4-1.5,4.6-3.4l27.9,5.9c0,0.3-0.1,0.6-0.1,0.9c0,0.5,0.1,1,0.2,1.5L62.2,214.3z M88.3,199.7c-0.4-0.4-0.8-0.9-1.3-1.2
		l21-35.6c0.5,0.2,1,0.4,1.6,0.4c0.6,0,1.1-0.1,1.6-0.4l9.7,16.5c-4.3,1.7-7.4,5.9-7.4,10.9c0,0.9,0.1,1.8,0.3,2.6L88.3,199.7z
		 M125.6,202c6.3-0.2,11.3-5.4,11.3-11.7c0-0.3-0.1-0.6-0.1-0.9l17.3-2.4v19.4c-0.6-0.2-1.1-0.3-1.7-0.3c-3.7,0-6.7,3-6.7,6.7
		c0,0.8,0.2,1.6,0.5,2.4l-12.5,6.6c-1.6-1.4-3.6-2.2-5.9-2.2c-0.7,0-1.4,0.1-2.1,0.3V202z M136.2,231.5c0.3-0.9,0.5-1.9,0.5-2.9
		c0-2.4-1-4.6-2.5-6.2l12.2-6.4c1.1,2.1,3.3,3.6,5.9,3.6c0.3,0,0.5,0,0.7-0.1l3.6,20.8c-2.1,0.5-4,1.6-5.3,3.2L136.2,231.5z
		 M168,253.2c0.4-1,0.6-2.1,0.6-3.2c0-2.3-0.9-4.5-2.2-6.1l17.5-15.4c2.8,3.9,7.3,6.4,12.4,6.4c1.5,0,3-0.3,4.3-0.7l10.4,31.5
		l-15.7-1.4c0.3-0.8,0.5-1.7,0.5-2.6c0-4.3-3.5-7.8-7.8-7.8c-3.1,0-5.8,1.9-7,4.5L168,253.2z M188.4,269.3c2.9-0.2,5.3-1.9,6.5-4.3
		l16.3,1.4l2,6c-2.5,1-4.3,3.5-4.3,6.3c0,3.8,3.1,6.8,6.8,6.8c0.1,0,0.1,0,0.2,0l1.4,16.5l-25.3-10c0.1-0.5,0.2-1,0.2-1.5
		c0-2.4-1.6-4.3-3.8-4.9V269.3z M190.1,294.8c0.7-0.5,1.2-1.1,1.6-1.9l25.6,10.1l1.4,16.2c-1.2,0.3-2.3,0.9-3.3,1.6L190.1,294.8z
		 M227.8,370.4c1.4-1,2.6-2.4,3.3-4l12.7,2.1l-1.3,15.3c-0.1,0-0.1,0-0.2,0c-0.9,0-1.8,0.2-2.6,0.5L227.8,370.4z M248.6,395.2
		c0.8-1.2,1.2-2.5,1.2-4c0-0.9-0.2-1.8-0.5-2.7l24.5,3.3l14.1,34.6c-1.3,0.7-2.5,1.7-3.4,3l-13.9-8.7c0.3-0.8,0.5-1.6,0.5-2.5
		c0-3.9-3.2-7.1-7.1-7.1c-1.4,0-2.6,0.4-3.7,1.1L248.6,395.2z M263.7,425.2c0.1,0,0.2,0,0.3,0c2.7,0,5.1-1.6,6.3-3.8l13.8,8.7
		c-0.8,1.4-1.3,3-1.3,4.7c0,3,1.4,5.6,3.6,7.4l-6.2,8.4l-11.4-2.3c0.1-0.4,0.1-0.8,0.1-1.2c0-3.3-2.7-6-6-6c-0.3,0-0.5,0-0.8,0.1
		L263.7,425.2z M260.5,452.6c0.7,0.3,1.6,0.5,2.4,0.5c0.6,0,1.2-0.1,1.8-0.3l5.2,8.1c-0.6,0.5-0.9,1.2-0.9,2c0,1.3,1,2.4,2.3,2.6
		l-0.6,23.8c-0.1,0-0.3,0-0.4,0c-2.7,0-5.1,1.2-6.8,3.1l-8-11.7c3.4-1.8,5.7-5.4,5.7-9.6c0-4-2.2-7.5-5.5-9.4L260.5,452.6z
		 M250.2,482c1.6,0,3.1-0.4,4.5-1l8.2,12c-0.8,1.1-1.3,2.3-1.6,3.6l-16.7-3.1l2.5-12.1C248.1,481.8,249.1,482,250.2,482z M241,476.9
		c1.2,2,3.1,3.5,5.2,4.3l-2.5,12.2l-17.8-3.3c0-0.3,0.1-0.6,0.1-0.9c0-1.2-0.3-2.3-0.8-3.3L241,476.9z M224.7,493.5
		c0.5-0.7,0.9-1.6,1.1-2.5l17.7,3.3l-1.4,6.9c-0.3,0-0.6-0.1-0.8-0.1c-1.8,0-3.5,0.8-4.6,2.1L224.7,493.5z M261.3,514.1
		c-0.7-0.3-1.4-0.5-2.2-0.5c-1.8,0-3.3,0.8-4.3,2.1l-8-5.3c0.5-0.9,0.8-2,0.8-3.1c0-2.9-2-5.3-4.6-6l1.4-6.9l16.8,3.1
		c0,0.3-0.1,0.6-0.1,0.9c0,3.3,1.8,6.2,4.4,7.8L261.3,514.1z M271.4,489.4l0.6-23.9c0.9-0.1,1.6-0.6,2-1.3l16,6.2
		c-0.5,1-0.8,2.2-0.8,3.4c0,2,0.8,3.9,2,5.3l-14.1,13.5C275.8,490.9,273.7,489.8,271.4,489.4z M303.4,468.2
		c-1.5-1.6-3.6-2.6-5.9-2.6c-0.2,0-0.4,0-0.6,0.1l-1.5-11.2l13.1,2.7c-0.1,0.4-0.1,0.7-0.1,1.1c0,1.7,0.6,3.2,1.5,4.4L303.4,468.2z
		 M316.7,451c-0.3,0-0.6-0.1-1-0.1c-3.4,0-6.3,2.3-7.1,5.5l-13.4-2.7l-1.2-9.5c4.5-0.8,7.9-4.7,7.9-9.4c0-1.7-0.5-3.3-1.3-4.8
		l14.7-9.3c1.6,2.1,3.8,3.6,6.4,4.2L316.7,451z M334.5,409.7c-0.7-1.8-2-3.3-3.5-4.4l14.7-23c0.7,0.4,1.6,0.6,2.5,0.6
		c2.9,0,5.3-2.4,5.3-5.3c0-0.5-0.1-1.1-0.3-1.5l12.2-4.8l0.5,0.6l-10.3,27c-0.6-0.2-1.2-0.3-1.8-0.3c-3.5,0-6.3,2.8-6.3,6.3
		c0,0,0,0,0,0L334.5,409.7z M358.4,400.6c-0.6-0.6-1.2-1.1-2-1.4l10.1-26.5l10.4,12.5c-1.3,1.6-2.2,3.7-2.2,6c0,0.9,0.2,1.7,0.4,2.6
		L358.4,400.6z M392.9,387.3c-1.5-3.3-4.8-5.7-8.7-5.7c-0.5,0-0.9,0.1-1.4,0.1v-17.3l16.7-6.6l10.3,10.2c-2.4,2.4-4,5.8-4,9.5
		c0,1.6,0.3,3,0.8,4.4L392.9,387.3z M425.1,365.5c-1.7-0.8-3.7-1.3-5.7-1.3c-3.4,0-6.5,1.3-8.9,3.4l-10.1-10l28.7-11.3
		c0.8,1.7,2.1,3.2,3.8,4.1L425.1,365.5z M449.7,307c-0.2-0.1-0.4-0.1-0.7-0.1c-1.7,0-3,1.4-3,3c0,1.2,0.7,2.1,1.6,2.6l-7.7,21.5
		c-0.8-0.3-1.7-0.4-2.6-0.4c-1.2,0-2.2,0.2-3.3,0.6l-3.1-15.8c3.2-1.1,5.6-4.1,5.6-7.7c0-1.9-0.7-3.6-1.8-5l16.2-16.9
		c1.3,1.4,2.9,2.5,4.7,3.3L449.7,307z M463.1,264.5c-0.6-0.1-1.2-0.2-1.9-0.2c-4.5,0-8.5,2.1-11.1,5.3l-7.2-3.1l17.4-15.5
		c1,1.7,2.5,3.1,4.3,3.9L463.1,264.5z M474,239.7c-0.7-0.6-1.4-1.1-2.3-1.4l6.4-22.3l7.6,7.2c-0.5,1.1-0.8,2.3-0.8,3.5
		c0,1.2,0.2,2.3,0.7,3.3L474,239.7z M499.4,221.3c-0.3-0.4-0.7-0.7-1.1-1l8.6-17.2c-0.1,0.4-0.1,0.8-0.1,1.3c0,3.2,1.5,6.1,3.7,8
		L499.4,221.3z"/>
</g>
<polygon class="st2" points="19.3,151.2 18.3,151.2 14.3,186.2 15.3,186.2 "/>
</svg>
