<?xml version="1.0" encoding="utf-8"?>
<!-- Generator: Adobe Illustrator 24.0.2, SVG Export Plug-In . SVG Version: 6.00 Build 0)  -->
<svg version="1.1" id="Layer_1" xmlns="http://www.w3.org/2000/svg" xmlns:xlink="http://www.w3.org/1999/xlink" x="0px" y="0px"
	 viewBox="0 0 37 37" style="enable-background:new 0 0 37 37;" xml:space="preserve">
<style type="text/css">
	.st0{fill:#007BE3;}
</style>
<g>
	<g>
		<g>
			<g>
				
					<rect x="3.1" y="10.4" transform="matrix(0.2588 -0.9659 0.9659 0.2588 -10.6776 15.8412)" class="st0" width="3.8" height="8.9"/>
			</g>
		</g>
	</g>
	<g>
		<g>
			<g>
				
					<rect x="4.2" y="26.5" transform="matrix(0.7071 -0.7071 0.7071 0.7071 -17.5577 14.4015)" class="st0" width="8.9" height="3.8"/>
			</g>
		</g>
	</g>
	<g>
		<g>
			<g>
				
					<rect x="20.2" y="27.6" transform="matrix(0.9659 -0.2588 0.2588 0.9659 -7.5326 6.8164)" class="st0" width="3.8" height="8.9"/>
			</g>
		</g>
	</g>
	<g>
		<g>
			<g>
				
					<rect x="30.1" y="17.7" transform="matrix(0.2588 -0.9659 0.9659 0.2588 2.3618 47.3214)" class="st0" width="3.8" height="8.9"/>
			</g>
		</g>
	</g>
	<g>
		<g>
			<g>
				
					<rect x="23.9" y="6.7" transform="matrix(0.7071 -0.7071 0.7071 0.7071 2.2315 22.5979)" class="st0" width="8.9" height="3.8"/>
			</g>
		</g>
	</g>
	<g>
		<g>
			<g>
				<rect x="13" y="0.5" transform="matrix(0.9659 -0.2588 0.2588 0.9659 -0.7829 4.0205)" class="st0" width="3.8" height="8.9"/>
			</g>
		</g>
	</g>
</g>
</svg>
