<?xml version="1.0" encoding="utf-8"?>
<!-- Generator: Adobe Illustrator 24.0.2, SVG Export Plug-In . SVG Version: 6.00 Build 0)  -->
<svg version="1.1" id="Layer_1" xmlns="http://www.w3.org/2000/svg" xmlns:xlink="http://www.w3.org/1999/xlink" x="0px" y="0px"
	 viewBox="0 0 37 37" style="enable-background:new 0 0 37 37;" xml:space="preserve">
<style type="text/css">
	.st0{fill:#FFDD6C;}
</style>
<g>
	<g>
		<g>
			<g>
				
					<rect x="2.9" y="10.3" transform="matrix(0.2588 -0.9659 0.9659 0.2588 -10.7448 15.6789)" class="st0" width="3.9" height="9"/>
			</g>
		</g>
	</g>
	<g>
		<g>
			<g>
				<rect x="4" y="26.6" transform="matrix(0.7071 -0.7071 0.7071 0.7071 -17.6598 14.3592)" class="st0" width="9" height="3.9"/>
			</g>
		</g>
	</g>
	<g>
		<g>
			<g>
				<rect x="20.2" y="27.7" transform="matrix(0.9659 -0.2588 0.2588 0.9659 -7.5674 6.8308)" class="st0" width="3.9" height="9"/>
			</g>
		</g>
	</g>
	<g>
		<g>
			<g>
				<rect x="30.2" y="17.7" transform="matrix(0.2588 -0.9659 0.9659 0.2588 2.4291 47.4839)" class="st0" width="3.9" height="9"/>
			</g>
		</g>
	</g>
	<g>
		<g>
			<g>
				<rect x="24" y="6.6" transform="matrix(0.7071 -0.7071 0.7071 0.7071 2.3336 22.6402)" class="st0" width="9" height="3.9"/>
			</g>
		</g>
	</g>
	<g>
		<g>
			<g>
				<rect x="12.9" y="0.3" transform="matrix(0.9659 -0.2588 0.2588 0.9659 -0.748 4.0061)" class="st0" width="3.9" height="9"/>
			</g>
		</g>
	</g>
</g>
</svg>
